G75*
%MOIN*%
%OFA0B0*%
%FSLAX25Y25*%
%IPPOS*%
%LPD*%
%AMOC8*
5,1,8,0,0,1.08239X$1,22.5*
%
%ADD10R,0.03740X0.03740*%
%ADD11C,0.05937*%
%ADD12R,0.05512X0.03543*%
%ADD13R,0.04331X0.03543*%
%ADD14R,0.04134X0.02362*%
%ADD15C,0.02000*%
D10*
X0030000Y0029146D03*
X0030000Y0034854D03*
X0042146Y0044000D03*
X0047854Y0044000D03*
X0047854Y0020000D03*
X0042146Y0020000D03*
D11*
X0015079Y0032118D03*
X0015079Y0042157D03*
X0015079Y0052197D03*
X0094646Y0052197D03*
X0094646Y0042157D03*
X0094646Y0032118D03*
D12*
X0071591Y0038543D03*
D13*
X0076118Y0025551D03*
X0067063Y0025551D03*
D14*
X0050315Y0028260D03*
X0050315Y0035740D03*
X0039685Y0035740D03*
X0039685Y0032000D03*
X0039685Y0028260D03*
D15*
X0027767Y0018552D02*
X0027767Y0007050D01*
X0084989Y0007050D01*
X0084989Y0018552D01*
X0086208Y0021494D01*
X0086208Y0021494D01*
X0088459Y0023745D01*
X0088459Y0023745D01*
X0090157Y0024449D01*
X0090157Y0024724D01*
X0091338Y0027574D01*
X0091805Y0028041D01*
X0091409Y0028328D01*
X0090856Y0028881D01*
X0090396Y0029514D01*
X0090041Y0030211D01*
X0089800Y0030955D01*
X0089677Y0031727D01*
X0089677Y0032118D01*
X0094646Y0032118D01*
X0094646Y0032118D01*
X0099614Y0032118D01*
X0099614Y0031727D01*
X0099492Y0030955D01*
X0099483Y0030926D01*
X0102307Y0029756D01*
X0102706Y0029357D01*
X0102706Y0039200D01*
X0098432Y0039200D01*
X0097347Y0038115D01*
X0095594Y0037389D01*
X0093697Y0037389D01*
X0091945Y0038115D01*
X0091010Y0039050D01*
X0088917Y0036957D01*
X0088129Y0036170D01*
X0087100Y0035743D01*
X0075864Y0035743D01*
X0075092Y0034972D01*
X0068089Y0034972D01*
X0067510Y0035550D01*
X0058374Y0026414D01*
X0058374Y0026414D01*
X0057586Y0025626D01*
X0056557Y0025200D01*
X0049760Y0025200D01*
X0050228Y0024732D01*
X0050654Y0023703D01*
X0050654Y0023486D01*
X0051340Y0022800D01*
X0063332Y0022800D01*
X0063098Y0023034D01*
X0063098Y0028068D01*
X0064152Y0029123D01*
X0069974Y0029123D01*
X0071028Y0028068D01*
X0071028Y0024421D01*
X0072153Y0025546D01*
X0072153Y0028068D01*
X0073207Y0029123D01*
X0079029Y0029123D01*
X0080083Y0028068D01*
X0080083Y0023034D01*
X0079029Y0021980D01*
X0076506Y0021980D01*
X0072153Y0017626D01*
X0071124Y0017200D01*
X0051340Y0017200D01*
X0050470Y0016330D01*
X0045239Y0016330D01*
X0045114Y0016455D01*
X0044788Y0016266D01*
X0044279Y0016130D01*
X0042146Y0016130D01*
X0042146Y0020000D01*
X0042146Y0020000D01*
X0042146Y0020000D01*
X0042146Y0023870D01*
X0043170Y0023870D01*
X0041761Y0025279D01*
X0036873Y0025279D01*
X0035818Y0026333D01*
X0035818Y0029937D01*
X0035754Y0030047D01*
X0035618Y0030556D01*
X0035618Y0032000D01*
X0039685Y0032000D01*
X0039685Y0032000D01*
X0035618Y0032000D01*
X0035618Y0032658D01*
X0035586Y0032626D01*
X0034557Y0032200D01*
X0033631Y0032200D01*
X0033545Y0032114D01*
X0033734Y0031788D01*
X0033870Y0031279D01*
X0033870Y0029146D01*
X0030000Y0029146D01*
X0030000Y0029146D01*
X0030000Y0029146D01*
X0026130Y0029146D01*
X0026130Y0031279D01*
X0026266Y0031788D01*
X0026455Y0032114D01*
X0026330Y0032239D01*
X0026330Y0034565D01*
X0021537Y0039357D01*
X0019022Y0039357D01*
X0017780Y0038115D01*
X0016027Y0037389D01*
X0014130Y0037389D01*
X0012378Y0038115D01*
X0011036Y0039456D01*
X0010310Y0041209D01*
X0010310Y0043106D01*
X0011036Y0044859D01*
X0012378Y0046200D01*
X0014130Y0046926D01*
X0016027Y0046926D01*
X0017780Y0046200D01*
X0019022Y0044957D01*
X0023254Y0044957D01*
X0024283Y0044531D01*
X0030290Y0038524D01*
X0032616Y0038524D01*
X0033090Y0038050D01*
X0033154Y0038114D01*
X0034183Y0038540D01*
X0036691Y0038540D01*
X0036873Y0038721D01*
X0042498Y0038721D01*
X0043552Y0037667D01*
X0043552Y0034063D01*
X0043616Y0033953D01*
X0043752Y0033444D01*
X0043752Y0032000D01*
X0039685Y0032000D01*
X0039685Y0032000D01*
X0043752Y0032000D01*
X0043752Y0030871D01*
X0044200Y0030686D01*
X0044200Y0040130D01*
X0042146Y0040130D01*
X0042146Y0044000D01*
X0042146Y0044000D01*
X0042146Y0040130D01*
X0040012Y0040130D01*
X0039504Y0040266D01*
X0039048Y0040530D01*
X0038675Y0040902D01*
X0038412Y0041358D01*
X0038276Y0041867D01*
X0038276Y0044000D01*
X0042146Y0044000D01*
X0042146Y0044000D01*
X0038276Y0044000D01*
X0038276Y0046133D01*
X0038412Y0046642D01*
X0038675Y0047098D01*
X0038777Y0047200D01*
X0010050Y0047200D01*
X0010050Y0029357D01*
X0010449Y0029756D01*
X0010661Y0029844D01*
X0010474Y0030211D01*
X0010233Y0030955D01*
X0010110Y0031727D01*
X0010110Y0032118D01*
X0015079Y0032118D01*
X0015079Y0032118D01*
X0020047Y0032118D01*
X0020047Y0031727D01*
X0019925Y0030955D01*
X0019683Y0030211D01*
X0019379Y0029613D01*
X0021418Y0027574D01*
X0022598Y0024724D01*
X0022598Y0024449D01*
X0024297Y0023745D01*
X0026548Y0021494D01*
X0026548Y0021494D01*
X0027767Y0018552D01*
X0027767Y0017988D02*
X0038276Y0017988D01*
X0038276Y0017867D02*
X0038412Y0017358D01*
X0038675Y0016902D01*
X0039048Y0016530D01*
X0039504Y0016266D01*
X0040012Y0016130D01*
X0042146Y0016130D01*
X0042146Y0020000D01*
X0042146Y0023870D01*
X0040012Y0023870D01*
X0039504Y0023734D01*
X0039048Y0023470D01*
X0038675Y0023098D01*
X0038412Y0022642D01*
X0038276Y0022133D01*
X0038276Y0020000D01*
X0038276Y0017867D01*
X0038276Y0019987D02*
X0027172Y0019987D01*
X0026057Y0021985D02*
X0038276Y0021985D01*
X0038276Y0020000D02*
X0042146Y0020000D01*
X0038276Y0020000D01*
X0042146Y0020000D02*
X0042146Y0020000D01*
X0042146Y0019987D02*
X0042146Y0019987D01*
X0042146Y0017988D02*
X0042146Y0017988D01*
X0042146Y0021985D02*
X0042146Y0021985D01*
X0043057Y0023984D02*
X0023721Y0023984D01*
X0022077Y0025982D02*
X0026595Y0025982D01*
X0026530Y0026048D02*
X0026902Y0025675D01*
X0027358Y0025412D01*
X0027867Y0025276D01*
X0030000Y0025276D01*
X0032133Y0025276D01*
X0032642Y0025412D01*
X0033098Y0025675D01*
X0033470Y0026048D01*
X0033734Y0026504D01*
X0033870Y0027012D01*
X0033870Y0029146D01*
X0030000Y0029146D01*
X0026130Y0029146D01*
X0026130Y0027012D01*
X0026266Y0026504D01*
X0026530Y0026048D01*
X0026130Y0027981D02*
X0021011Y0027981D01*
X0019565Y0029979D02*
X0026130Y0029979D01*
X0026376Y0031978D02*
X0020047Y0031978D01*
X0020047Y0032118D02*
X0020047Y0032509D01*
X0019925Y0033282D01*
X0019683Y0034025D01*
X0019328Y0034722D01*
X0018868Y0035355D01*
X0018315Y0035908D01*
X0017683Y0036368D01*
X0016986Y0036723D01*
X0016242Y0036964D01*
X0015470Y0037087D01*
X0015079Y0037087D01*
X0015079Y0032118D01*
X0020047Y0032118D01*
X0019699Y0033976D02*
X0026330Y0033976D01*
X0024920Y0035975D02*
X0018224Y0035975D01*
X0017438Y0037973D02*
X0022921Y0037973D01*
X0026844Y0041970D02*
X0038276Y0041970D01*
X0038276Y0043969D02*
X0024845Y0043969D01*
X0022697Y0042157D02*
X0030000Y0034854D01*
X0030146Y0035000D01*
X0034000Y0035000D01*
X0034740Y0035740D01*
X0039685Y0035740D01*
X0043552Y0035975D02*
X0044200Y0035975D01*
X0044200Y0033976D02*
X0043602Y0033976D01*
X0043752Y0031978D02*
X0044200Y0031978D01*
X0047000Y0031978D02*
X0056018Y0031978D01*
X0055100Y0031060D02*
X0053309Y0031060D01*
X0053127Y0031241D01*
X0047502Y0031241D01*
X0047000Y0030738D01*
X0047000Y0032979D01*
X0047020Y0032959D01*
X0047476Y0032695D01*
X0047985Y0032559D01*
X0050315Y0032559D01*
X0052645Y0032559D01*
X0053154Y0032695D01*
X0053610Y0032959D01*
X0053982Y0033331D01*
X0054246Y0033787D01*
X0054382Y0034296D01*
X0054382Y0035740D01*
X0050315Y0035740D01*
X0050315Y0032559D01*
X0050315Y0035740D01*
X0050315Y0035740D01*
X0050315Y0035740D01*
X0054382Y0035740D01*
X0054382Y0037185D01*
X0054246Y0037693D01*
X0053982Y0038149D01*
X0053610Y0038522D01*
X0053154Y0038785D01*
X0052645Y0038921D01*
X0050315Y0038921D01*
X0050315Y0035740D01*
X0050315Y0035740D01*
X0050315Y0038921D01*
X0047985Y0038921D01*
X0047476Y0038785D01*
X0047020Y0038522D01*
X0047000Y0038502D01*
X0047000Y0040130D01*
X0047854Y0040130D01*
X0047854Y0044000D01*
X0047854Y0047870D01*
X0046130Y0047870D01*
X0044000Y0050000D01*
X0019536Y0050000D01*
X0019683Y0050290D01*
X0019925Y0051033D01*
X0020047Y0051806D01*
X0020047Y0052197D01*
X0020047Y0052588D01*
X0019925Y0053360D01*
X0019683Y0054104D01*
X0019379Y0054702D01*
X0021418Y0056740D01*
X0022598Y0059591D01*
X0022598Y0059866D01*
X0024297Y0060570D01*
X0026548Y0062821D01*
X0027767Y0065762D01*
X0027767Y0077265D01*
X0084989Y0077265D01*
X0084989Y0065762D01*
X0086208Y0062821D01*
X0088459Y0060570D01*
X0090157Y0059866D01*
X0090157Y0059591D01*
X0091338Y0056740D01*
X0091805Y0056274D01*
X0091409Y0055987D01*
X0090856Y0055434D01*
X0090396Y0054801D01*
X0090041Y0054104D01*
X0089800Y0053360D01*
X0089677Y0052588D01*
X0089677Y0052197D01*
X0094646Y0052197D01*
X0099614Y0052197D01*
X0099614Y0052588D01*
X0099492Y0053360D01*
X0099483Y0053389D01*
X0102307Y0054559D01*
X0102706Y0054958D01*
X0102706Y0042000D01*
X0099414Y0042000D01*
X0099414Y0043106D01*
X0098688Y0044859D01*
X0097347Y0046200D01*
X0095594Y0046926D01*
X0093697Y0046926D01*
X0091945Y0046200D01*
X0090702Y0044957D01*
X0089601Y0044957D01*
X0088571Y0044531D01*
X0085384Y0041343D01*
X0075864Y0041343D01*
X0075092Y0042115D01*
X0068089Y0042115D01*
X0067317Y0041343D01*
X0065986Y0041343D01*
X0064957Y0040917D01*
X0064170Y0040129D01*
X0055100Y0031060D01*
X0056260Y0028260D02*
X0066543Y0038543D01*
X0071591Y0038543D01*
X0086543Y0038543D01*
X0090157Y0042157D01*
X0094646Y0042157D01*
X0099057Y0043969D02*
X0102706Y0043969D01*
X0102706Y0045967D02*
X0097580Y0045967D01*
X0096553Y0047592D02*
X0095809Y0047351D01*
X0095037Y0047228D01*
X0094646Y0047228D01*
X0094646Y0052197D01*
X0094646Y0052197D01*
X0099614Y0052197D01*
X0099614Y0051806D01*
X0099492Y0051033D01*
X0099250Y0050290D01*
X0098895Y0049593D01*
X0098435Y0048960D01*
X0097882Y0048407D01*
X0097250Y0047947D01*
X0096553Y0047592D01*
X0097275Y0047966D02*
X0102706Y0047966D01*
X0102706Y0049964D02*
X0099084Y0049964D01*
X0099614Y0051963D02*
X0102706Y0051963D01*
X0102706Y0053961D02*
X0100864Y0053961D01*
X0094646Y0052197D02*
X0094646Y0052197D01*
X0094646Y0052197D01*
X0094646Y0047228D01*
X0094255Y0047228D01*
X0093482Y0047351D01*
X0092738Y0047592D01*
X0092042Y0047947D01*
X0091409Y0048407D01*
X0090856Y0048960D01*
X0090396Y0049593D01*
X0090041Y0050290D01*
X0089800Y0051033D01*
X0089677Y0051806D01*
X0089677Y0052197D01*
X0094646Y0052197D01*
X0094646Y0051963D02*
X0094646Y0051963D01*
X0094646Y0049964D02*
X0094646Y0049964D01*
X0094646Y0047966D02*
X0094646Y0047966D01*
X0092016Y0047966D02*
X0046034Y0047966D01*
X0047854Y0047870D02*
X0047854Y0044000D01*
X0047854Y0044000D01*
X0047854Y0044000D01*
X0047854Y0040130D01*
X0049988Y0040130D01*
X0050496Y0040266D01*
X0050952Y0040530D01*
X0051325Y0040902D01*
X0051588Y0041358D01*
X0051724Y0041867D01*
X0051724Y0044000D01*
X0051724Y0046133D01*
X0051588Y0046642D01*
X0051325Y0047098D01*
X0050952Y0047470D01*
X0050496Y0047734D01*
X0049988Y0047870D01*
X0047854Y0047870D01*
X0047854Y0045967D02*
X0047854Y0045967D01*
X0047854Y0044000D02*
X0051724Y0044000D01*
X0047854Y0044000D01*
X0047854Y0044000D01*
X0047854Y0043969D02*
X0047854Y0043969D01*
X0047854Y0041970D02*
X0047854Y0041970D01*
X0047000Y0039972D02*
X0064012Y0039972D01*
X0062013Y0037973D02*
X0054084Y0037973D01*
X0054382Y0035975D02*
X0060015Y0035975D01*
X0058016Y0033976D02*
X0054296Y0033976D01*
X0050315Y0033976D02*
X0050315Y0033976D01*
X0050315Y0035975D02*
X0050315Y0035975D01*
X0050315Y0037973D02*
X0050315Y0037973D01*
X0051724Y0041970D02*
X0067944Y0041970D01*
X0075237Y0041970D02*
X0086010Y0041970D01*
X0088009Y0043969D02*
X0051724Y0043969D01*
X0051724Y0045967D02*
X0091712Y0045967D01*
X0090207Y0049964D02*
X0044036Y0049964D01*
X0038276Y0045967D02*
X0018013Y0045967D01*
X0015079Y0042157D02*
X0022697Y0042157D01*
X0028842Y0039972D02*
X0044200Y0039972D01*
X0044200Y0037973D02*
X0043246Y0037973D01*
X0042146Y0041970D02*
X0042146Y0041970D01*
X0042146Y0043969D02*
X0042146Y0043969D01*
X0035618Y0031978D02*
X0033624Y0031978D01*
X0033870Y0029979D02*
X0035794Y0029979D01*
X0035818Y0027981D02*
X0033870Y0027981D01*
X0033405Y0025982D02*
X0036169Y0025982D01*
X0039685Y0028260D02*
X0042740Y0028260D01*
X0047854Y0023146D01*
X0047854Y0020000D01*
X0070567Y0020000D01*
X0076118Y0025551D01*
X0072153Y0025982D02*
X0071028Y0025982D01*
X0071028Y0027981D02*
X0072153Y0027981D01*
X0065936Y0033976D02*
X0090025Y0033976D01*
X0090041Y0034025D02*
X0089800Y0033282D01*
X0089677Y0032509D01*
X0089677Y0032118D01*
X0094646Y0032118D01*
X0099614Y0032118D01*
X0099614Y0032509D01*
X0099492Y0033282D01*
X0099250Y0034025D01*
X0098895Y0034722D01*
X0098435Y0035355D01*
X0097882Y0035908D01*
X0097250Y0036368D01*
X0096553Y0036723D01*
X0095809Y0036964D01*
X0095037Y0037087D01*
X0094646Y0037087D01*
X0094646Y0032118D01*
X0094646Y0032118D01*
X0094646Y0032118D01*
X0094646Y0037087D01*
X0094255Y0037087D01*
X0093482Y0036964D01*
X0092738Y0036723D01*
X0092042Y0036368D01*
X0091409Y0035908D01*
X0090856Y0035355D01*
X0090396Y0034722D01*
X0090041Y0034025D01*
X0091501Y0035975D02*
X0087659Y0035975D01*
X0089933Y0037973D02*
X0092287Y0037973D01*
X0094646Y0035975D02*
X0094646Y0035975D01*
X0094646Y0033976D02*
X0094646Y0033976D01*
X0097790Y0035975D02*
X0102706Y0035975D01*
X0102706Y0033976D02*
X0099266Y0033976D01*
X0099614Y0031978D02*
X0102706Y0031978D01*
X0102706Y0029979D02*
X0101769Y0029979D01*
X0091744Y0027981D02*
X0080083Y0027981D01*
X0080083Y0025982D02*
X0090679Y0025982D01*
X0089035Y0023984D02*
X0080083Y0023984D01*
X0079035Y0021985D02*
X0086699Y0021985D01*
X0085583Y0019987D02*
X0074513Y0019987D01*
X0072515Y0017988D02*
X0084989Y0017988D01*
X0084989Y0015990D02*
X0027767Y0015990D01*
X0027767Y0013991D02*
X0084989Y0013991D01*
X0084989Y0011993D02*
X0027767Y0011993D01*
X0027767Y0009994D02*
X0084989Y0009994D01*
X0084989Y0007996D02*
X0027767Y0007996D01*
X0030000Y0025276D02*
X0030000Y0029146D01*
X0030000Y0025276D01*
X0030000Y0025982D02*
X0030000Y0025982D01*
X0030000Y0027981D02*
X0030000Y0027981D01*
X0030000Y0029146D02*
X0030000Y0029146D01*
X0015079Y0032118D02*
X0015079Y0032118D01*
X0015079Y0032118D01*
X0015079Y0037087D01*
X0014688Y0037087D01*
X0013915Y0036964D01*
X0013171Y0036723D01*
X0012475Y0036368D01*
X0011842Y0035908D01*
X0011289Y0035355D01*
X0010829Y0034722D01*
X0010474Y0034025D01*
X0010233Y0033282D01*
X0010110Y0032509D01*
X0010110Y0032118D01*
X0015079Y0032118D01*
X0015079Y0033976D02*
X0015079Y0033976D01*
X0015079Y0035975D02*
X0015079Y0035975D01*
X0012720Y0037973D02*
X0010050Y0037973D01*
X0010050Y0039972D02*
X0010823Y0039972D01*
X0010310Y0041970D02*
X0010050Y0041970D01*
X0010050Y0043969D02*
X0010668Y0043969D01*
X0010050Y0045967D02*
X0012145Y0045967D01*
X0010622Y0050000D02*
X0010050Y0050000D01*
X0010050Y0054958D01*
X0010449Y0054559D01*
X0010661Y0054471D01*
X0010474Y0054104D01*
X0010233Y0053360D01*
X0010110Y0052588D01*
X0010110Y0052197D01*
X0015079Y0052197D01*
X0020047Y0052197D01*
X0015079Y0052197D01*
X0015079Y0052197D01*
X0015079Y0052197D01*
X0010110Y0052197D01*
X0010110Y0051806D01*
X0010233Y0051033D01*
X0010474Y0050290D01*
X0010622Y0050000D01*
X0010110Y0051963D02*
X0010050Y0051963D01*
X0010050Y0053961D02*
X0010428Y0053961D01*
X0019730Y0053961D02*
X0089995Y0053961D01*
X0089677Y0051963D02*
X0020047Y0051963D01*
X0020637Y0055960D02*
X0091382Y0055960D01*
X0090834Y0057958D02*
X0021922Y0057958D01*
X0022817Y0059957D02*
X0089939Y0059957D01*
X0087073Y0061955D02*
X0025682Y0061955D01*
X0026548Y0062821D02*
X0026548Y0062821D01*
X0027017Y0063954D02*
X0085739Y0063954D01*
X0086208Y0062821D02*
X0086208Y0062821D01*
X0084989Y0065952D02*
X0027767Y0065952D01*
X0027767Y0067951D02*
X0084989Y0067951D01*
X0084989Y0069949D02*
X0027767Y0069949D01*
X0027767Y0071948D02*
X0084989Y0071948D01*
X0084989Y0073946D02*
X0027767Y0073946D01*
X0027767Y0075945D02*
X0084989Y0075945D01*
X0097005Y0037973D02*
X0102706Y0037973D01*
X0089677Y0031978D02*
X0063937Y0031978D01*
X0061939Y0029979D02*
X0090159Y0029979D01*
X0063098Y0027981D02*
X0059940Y0027981D01*
X0057942Y0025982D02*
X0063098Y0025982D01*
X0063098Y0023984D02*
X0050538Y0023984D01*
X0050315Y0028260D02*
X0056260Y0028260D01*
X0024297Y0060570D02*
X0024297Y0060570D01*
X0011934Y0035975D02*
X0010050Y0035975D01*
X0010050Y0033976D02*
X0010458Y0033976D01*
X0010110Y0031978D02*
X0010050Y0031978D01*
X0010050Y0029979D02*
X0010592Y0029979D01*
M02*
