G75*
%MOIN*%
%OFA0B0*%
%FSLAX25Y25*%
%IPPOS*%
%LPD*%
%AMOC8*
5,1,8,0,0,1.08239X$1,22.5*
%
%ADD10R,0.00100X0.00400*%
%ADD11R,0.00100X0.00600*%
%ADD12R,0.00100X0.00700*%
%ADD13R,0.00100X0.00900*%
%ADD14R,0.00100X0.01100*%
%ADD15R,0.00100X0.01300*%
%ADD16R,0.00100X0.01200*%
%ADD17R,0.00100X0.01900*%
%ADD18R,0.00100X0.01400*%
%ADD19R,0.00100X0.04300*%
%ADD20R,0.00100X0.05000*%
%ADD21R,0.00100X0.01500*%
%ADD22R,0.00100X0.06700*%
%ADD23R,0.00100X0.06600*%
%ADD24R,0.00100X0.06500*%
%ADD25R,0.00100X0.00800*%
%ADD26R,0.00100X0.03200*%
%ADD27R,0.00100X0.02200*%
%ADD28R,0.00100X0.01800*%
%ADD29R,0.00100X0.02000*%
%ADD30R,0.00100X0.02600*%
%ADD31R,0.00100X0.02500*%
%ADD32R,0.00100X0.00300*%
%ADD33R,0.00100X0.01000*%
%ADD34R,0.00100X0.00500*%
%ADD35R,0.00100X0.00100*%
%ADD36R,0.00100X0.02400*%
%ADD37R,0.00100X0.02100*%
%ADD38R,0.00100X0.05100*%
%ADD39R,0.00100X0.07300*%
%ADD40R,0.00100X0.06800*%
%ADD41R,0.00100X0.02800*%
%ADD42R,0.00100X0.01700*%
%ADD43C,0.01000*%
%ADD44C,0.05000*%
%ADD45R,0.00400X0.00100*%
%ADD46R,0.00600X0.00100*%
%ADD47R,0.00700X0.00100*%
%ADD48R,0.00900X0.00100*%
%ADD49R,0.01100X0.00100*%
%ADD50R,0.01300X0.00100*%
%ADD51R,0.01200X0.00100*%
%ADD52R,0.01900X0.00100*%
%ADD53R,0.01400X0.00100*%
%ADD54R,0.04300X0.00100*%
%ADD55R,0.05000X0.00100*%
%ADD56R,0.01500X0.00100*%
%ADD57R,0.06700X0.00100*%
%ADD58R,0.06600X0.00100*%
%ADD59R,0.06500X0.00100*%
%ADD60R,0.00800X0.00100*%
%ADD61R,0.03200X0.00100*%
%ADD62R,0.02200X0.00100*%
%ADD63R,0.01800X0.00100*%
%ADD64R,0.02000X0.00100*%
%ADD65R,0.02600X0.00100*%
%ADD66R,0.02500X0.00100*%
%ADD67R,0.00300X0.00100*%
%ADD68R,0.01000X0.00100*%
%ADD69R,0.00500X0.00100*%
%ADD70R,0.01600X0.00100*%
%ADD71R,0.02400X0.00100*%
%ADD72R,0.03000X0.00100*%
%ADD73R,0.03500X0.00100*%
%ADD74R,0.03600X0.00100*%
%ADD75R,0.02300X0.00100*%
%ADD76R,0.02100X0.00100*%
%ADD77R,0.01700X0.00100*%
%ADD78R,0.00200X0.00100*%
%ADD79R,0.02700X0.00100*%
%ADD80R,0.02900X0.00100*%
%ADD81R,0.03100X0.00100*%
%ADD82R,0.03300X0.00100*%
%ADD83R,0.02800X0.00100*%
%ADD84R,0.04100X0.00100*%
%ADD85R,0.03800X0.00100*%
%ADD86R,0.03400X0.00100*%
D10*
X0029021Y0030767D03*
D11*
X0028921Y0030767D03*
X0025021Y0031067D03*
D12*
X0028821Y0030817D03*
X0054820Y0082272D03*
X0059220Y0081772D03*
D13*
X0059120Y0081772D03*
X0055520Y0082372D03*
X0054920Y0082272D03*
X0028721Y0030917D03*
X0028621Y0030917D03*
D14*
X0028521Y0031117D03*
X0028421Y0031117D03*
X0055020Y0082272D03*
X0055120Y0082272D03*
X0055220Y0082272D03*
X0055320Y0082272D03*
X0055420Y0082272D03*
X0055620Y0082272D03*
X0055720Y0082172D03*
X0055820Y0082072D03*
X0058520Y0081672D03*
D15*
X0056020Y0081872D03*
X0027321Y0032417D03*
X0027421Y0032317D03*
X0027521Y0032217D03*
X0027621Y0032117D03*
X0027721Y0032017D03*
X0027821Y0031817D03*
X0027921Y0031717D03*
X0028321Y0031317D03*
X0025321Y0031217D03*
X0027321Y0027917D03*
D16*
X0028221Y0031467D03*
X0028121Y0031567D03*
X0028021Y0031667D03*
X0027121Y0032767D03*
X0055920Y0082022D03*
X0058320Y0081522D03*
X0058420Y0081622D03*
D17*
X0058020Y0080972D03*
X0057820Y0080672D03*
X0057620Y0080272D03*
X0026221Y0032717D03*
X0026121Y0032717D03*
X0027221Y0028017D03*
D18*
X0027221Y0032667D03*
X0056320Y0081422D03*
X0056220Y0081622D03*
X0056120Y0081722D03*
X0058220Y0081422D03*
D19*
X0027121Y0029117D03*
D20*
X0027021Y0029467D03*
D21*
X0025421Y0031317D03*
X0027021Y0032817D03*
X0056520Y0081172D03*
X0056420Y0081272D03*
D22*
X0026821Y0030417D03*
X0026921Y0030317D03*
D23*
X0026721Y0030467D03*
D24*
X0026621Y0030517D03*
D25*
X0026521Y0027767D03*
X0025121Y0031067D03*
D26*
X0026521Y0032167D03*
D27*
X0026421Y0032667D03*
X0025921Y0032367D03*
X0057720Y0080422D03*
D28*
X0026321Y0032867D03*
X0025521Y0031467D03*
D29*
X0025621Y0031567D03*
X0026021Y0032567D03*
X0056620Y0080722D03*
X0056720Y0080722D03*
X0057520Y0080222D03*
X0057920Y0080822D03*
D30*
X0025821Y0032067D03*
D31*
X0025721Y0031817D03*
D32*
X0025621Y0032817D03*
X0057520Y0085772D03*
D33*
X0058620Y0081822D03*
X0058720Y0081822D03*
X0058820Y0081822D03*
X0058920Y0081822D03*
X0059020Y0081822D03*
X0025221Y0031167D03*
D34*
X0059320Y0081772D03*
X0056820Y0086372D03*
D35*
X0056820Y0085672D03*
X0056418Y0070229D03*
X0059218Y0070229D03*
X0039457Y0083540D03*
X0038457Y0085640D03*
X0068309Y0045665D03*
X0068509Y0043365D03*
X0072209Y0040065D03*
X0073609Y0038965D03*
X0081709Y0040465D03*
X0044357Y0027122D03*
D36*
X0056820Y0080822D03*
D37*
X0056920Y0085672D03*
D38*
X0056920Y0081972D03*
D39*
X0057320Y0082872D03*
X0057220Y0082972D03*
X0057120Y0082972D03*
X0057020Y0083072D03*
D40*
X0057420Y0082622D03*
D41*
X0057520Y0083922D03*
D42*
X0058120Y0081172D03*
D43*
X0069461Y0080394D02*
X0083240Y0080394D01*
X0083240Y0052047D01*
X0069461Y0052047D01*
X0069461Y0080394D01*
X0069461Y0072126D02*
X0069461Y0066220D01*
X0073398Y0066220D01*
X0073398Y0072126D01*
X0069461Y0072126D01*
X0069461Y0066220D02*
X0069461Y0060315D01*
X0073398Y0060315D01*
X0073398Y0066220D01*
X0035858Y0063858D02*
X0031134Y0063858D01*
X0031134Y0052441D02*
X0035858Y0052441D01*
D44*
X0038476Y0049429D03*
D45*
X0054368Y0058218D03*
X0068259Y0045765D03*
X0070359Y0040265D03*
X0065659Y0035265D03*
X0068859Y0034765D03*
X0067559Y0031165D03*
X0078159Y0039265D03*
X0081759Y0040365D03*
X0077659Y0046565D03*
X0093711Y0069514D03*
X0060168Y0071129D03*
X0049807Y0082340D03*
X0045007Y0082740D03*
X0039407Y0083440D03*
X0038407Y0084840D03*
X0035307Y0082940D03*
X0042007Y0030522D03*
X0039507Y0027522D03*
X0044307Y0027222D03*
X0048307Y0030622D03*
D46*
X0048307Y0030522D03*
X0045807Y0028022D03*
X0044307Y0027322D03*
X0044207Y0027522D03*
X0042507Y0027522D03*
X0042507Y0027422D03*
X0041107Y0027322D03*
X0041007Y0027422D03*
X0039507Y0027622D03*
X0036507Y0028122D03*
X0036507Y0028222D03*
X0036507Y0028322D03*
X0036507Y0028422D03*
X0034907Y0030022D03*
X0033607Y0028122D03*
X0042107Y0030322D03*
X0048807Y0026922D03*
X0048807Y0026822D03*
X0065659Y0035165D03*
X0068859Y0034665D03*
X0072359Y0034765D03*
X0075259Y0036765D03*
X0077459Y0034665D03*
X0080159Y0034465D03*
X0082459Y0032165D03*
X0082459Y0032065D03*
X0085359Y0031965D03*
X0078159Y0039365D03*
X0081859Y0040265D03*
X0077659Y0046465D03*
X0073859Y0043465D03*
X0072259Y0039765D03*
X0070359Y0040165D03*
X0069559Y0039065D03*
X0068559Y0040065D03*
X0068459Y0040165D03*
X0068359Y0040365D03*
X0068359Y0040465D03*
X0068559Y0043065D03*
X0068559Y0043165D03*
X0068159Y0046565D03*
X0057068Y0061918D03*
X0054568Y0061918D03*
X0054068Y0073929D03*
X0059668Y0073729D03*
X0049807Y0082440D03*
X0049307Y0086040D03*
X0045007Y0082840D03*
X0043107Y0083140D03*
X0041907Y0082840D03*
X0042007Y0082440D03*
X0042007Y0082340D03*
X0042007Y0082240D03*
X0040907Y0082740D03*
X0039207Y0082740D03*
X0038407Y0083640D03*
X0038407Y0083740D03*
X0038407Y0084440D03*
X0038407Y0084640D03*
X0038407Y0084740D03*
X0036307Y0085540D03*
X0035407Y0082840D03*
X0044007Y0084840D03*
X0094011Y0073514D03*
X0093711Y0069614D03*
X0073959Y0030765D03*
D47*
X0073209Y0031565D03*
X0073109Y0031665D03*
X0073009Y0031865D03*
X0072909Y0032065D03*
X0071009Y0031365D03*
X0070309Y0032165D03*
X0070309Y0032265D03*
X0070309Y0032365D03*
X0066809Y0032665D03*
X0066709Y0032865D03*
X0066709Y0032965D03*
X0066609Y0033065D03*
X0066609Y0033165D03*
X0066609Y0033265D03*
X0066509Y0033465D03*
X0066409Y0033665D03*
X0066409Y0033765D03*
X0066309Y0033965D03*
X0066309Y0034065D03*
X0066209Y0034165D03*
X0066209Y0034265D03*
X0066109Y0034365D03*
X0066109Y0034465D03*
X0066009Y0034565D03*
X0066009Y0034665D03*
X0065909Y0034765D03*
X0065909Y0034865D03*
X0065809Y0034965D03*
X0065709Y0035065D03*
X0068709Y0039865D03*
X0068609Y0039965D03*
X0068409Y0040265D03*
X0068309Y0040565D03*
X0068309Y0040665D03*
X0068309Y0040765D03*
X0068309Y0040865D03*
X0068309Y0040965D03*
X0068309Y0041065D03*
X0068309Y0041165D03*
X0068309Y0041265D03*
X0068309Y0041365D03*
X0068309Y0041465D03*
X0068309Y0041565D03*
X0068309Y0041665D03*
X0068309Y0041765D03*
X0068409Y0042165D03*
X0068409Y0042265D03*
X0068509Y0042965D03*
X0068209Y0045865D03*
X0068209Y0045965D03*
X0074909Y0040965D03*
X0075009Y0040765D03*
X0078009Y0040865D03*
X0078009Y0040965D03*
X0078009Y0040665D03*
X0078009Y0040265D03*
X0078109Y0039565D03*
X0078109Y0039465D03*
X0078009Y0041365D03*
X0078009Y0041465D03*
X0078009Y0041565D03*
X0078009Y0041665D03*
X0078009Y0041765D03*
X0078009Y0041865D03*
X0078009Y0041965D03*
X0078009Y0042065D03*
X0078009Y0042165D03*
X0078009Y0042265D03*
X0078009Y0042365D03*
X0078009Y0042465D03*
X0078009Y0042565D03*
X0078009Y0042665D03*
X0078009Y0042765D03*
X0078009Y0042865D03*
X0078009Y0042965D03*
X0078009Y0043065D03*
X0077909Y0043665D03*
X0077909Y0043765D03*
X0077909Y0043865D03*
X0077909Y0043965D03*
X0077909Y0044065D03*
X0077909Y0044165D03*
X0077809Y0044665D03*
X0077809Y0044765D03*
X0077809Y0044865D03*
X0077809Y0044965D03*
X0077809Y0045065D03*
X0077809Y0045165D03*
X0077809Y0045265D03*
X0077809Y0045365D03*
X0077709Y0046365D03*
X0082609Y0042765D03*
X0085409Y0042565D03*
X0085509Y0042465D03*
X0085509Y0042365D03*
X0085609Y0042265D03*
X0085609Y0042165D03*
X0085609Y0042065D03*
X0083009Y0039465D03*
X0084909Y0034265D03*
X0084909Y0034165D03*
X0084909Y0034065D03*
X0082409Y0032265D03*
X0082509Y0031965D03*
X0080209Y0034265D03*
X0080209Y0034365D03*
X0078109Y0033165D03*
X0078209Y0032865D03*
X0078309Y0032665D03*
X0078309Y0032565D03*
X0078409Y0032365D03*
X0078509Y0032065D03*
X0077809Y0033865D03*
X0077709Y0034065D03*
X0077509Y0034565D03*
X0075409Y0034465D03*
X0075409Y0034865D03*
X0075409Y0034965D03*
X0075409Y0035065D03*
X0075409Y0035165D03*
X0075409Y0035265D03*
X0075409Y0035365D03*
X0075409Y0035465D03*
X0075409Y0035565D03*
X0075309Y0035865D03*
X0075309Y0036065D03*
X0075309Y0036165D03*
X0075309Y0036265D03*
X0075309Y0036365D03*
X0075309Y0036465D03*
X0075309Y0036565D03*
X0075309Y0036665D03*
X0075409Y0033565D03*
X0075409Y0033365D03*
X0075409Y0033265D03*
X0075409Y0033165D03*
X0075409Y0033065D03*
X0075409Y0032965D03*
X0075409Y0032865D03*
X0075409Y0032765D03*
X0075509Y0031265D03*
X0048657Y0028222D03*
X0048657Y0028122D03*
X0048657Y0028022D03*
X0048657Y0027922D03*
X0048657Y0027822D03*
X0048657Y0027722D03*
X0048657Y0027622D03*
X0048657Y0027522D03*
X0048657Y0027422D03*
X0048757Y0027222D03*
X0048757Y0027122D03*
X0048757Y0027022D03*
X0048557Y0028622D03*
X0048557Y0028722D03*
X0048557Y0028922D03*
X0048557Y0029022D03*
X0048457Y0029222D03*
X0048457Y0029322D03*
X0048457Y0029422D03*
X0048457Y0029522D03*
X0048457Y0029622D03*
X0048457Y0029722D03*
X0048457Y0029822D03*
X0048457Y0029922D03*
X0048357Y0030222D03*
X0048357Y0030322D03*
X0048357Y0030422D03*
X0047257Y0028122D03*
X0047257Y0028022D03*
X0047257Y0027922D03*
X0045857Y0027922D03*
X0045857Y0027822D03*
X0045857Y0028122D03*
X0045857Y0028222D03*
X0044157Y0027822D03*
X0044157Y0027722D03*
X0044157Y0027622D03*
X0044257Y0027422D03*
X0044057Y0027922D03*
X0044057Y0028022D03*
X0044057Y0028122D03*
X0042457Y0027822D03*
X0042457Y0027722D03*
X0042457Y0027622D03*
X0042357Y0028322D03*
X0042357Y0028422D03*
X0042357Y0028522D03*
X0042257Y0029522D03*
X0042257Y0029622D03*
X0042257Y0029722D03*
X0042157Y0030222D03*
X0040857Y0028722D03*
X0040857Y0028622D03*
X0040857Y0028522D03*
X0040957Y0028322D03*
X0040957Y0028222D03*
X0040957Y0028122D03*
X0040957Y0028022D03*
X0040957Y0027922D03*
X0040957Y0027822D03*
X0040957Y0027722D03*
X0040957Y0027622D03*
X0040957Y0027522D03*
X0039457Y0027722D03*
X0039457Y0027822D03*
X0039457Y0027922D03*
X0039457Y0028022D03*
X0039457Y0028122D03*
X0038357Y0028422D03*
X0038357Y0028522D03*
X0038257Y0028622D03*
X0038257Y0028722D03*
X0038157Y0028822D03*
X0037257Y0029722D03*
X0036557Y0028622D03*
X0036457Y0028522D03*
X0037457Y0027322D03*
X0033657Y0028022D03*
X0033657Y0028222D03*
X0033657Y0028422D03*
X0054318Y0058318D03*
X0054318Y0058418D03*
X0054318Y0058518D03*
X0054418Y0058718D03*
X0054418Y0058818D03*
X0054418Y0058918D03*
X0054518Y0059518D03*
X0054518Y0059618D03*
X0054518Y0059718D03*
X0054518Y0059818D03*
X0054518Y0059918D03*
X0056818Y0058218D03*
X0058518Y0059518D03*
X0058518Y0059618D03*
X0058518Y0059718D03*
X0058518Y0059818D03*
X0058618Y0059318D03*
X0060718Y0060518D03*
X0060618Y0060718D03*
X0057118Y0061818D03*
X0056418Y0070429D03*
X0056418Y0071829D03*
X0056318Y0072229D03*
X0056318Y0072329D03*
X0056318Y0072429D03*
X0056318Y0072529D03*
X0056318Y0072629D03*
X0056318Y0072729D03*
X0056318Y0073729D03*
X0055318Y0072129D03*
X0054118Y0072129D03*
X0054118Y0072029D03*
X0054118Y0071929D03*
X0054118Y0071829D03*
X0054118Y0071729D03*
X0054118Y0071629D03*
X0054018Y0071129D03*
X0054018Y0071029D03*
X0054018Y0070929D03*
X0054018Y0070629D03*
X0054018Y0070529D03*
X0054118Y0072229D03*
X0054118Y0072329D03*
X0054118Y0072429D03*
X0054118Y0072529D03*
X0054118Y0072629D03*
X0054118Y0073829D03*
X0057918Y0071529D03*
X0057918Y0071429D03*
X0057918Y0071329D03*
X0057918Y0071229D03*
X0057918Y0071129D03*
X0057918Y0071029D03*
X0049757Y0082540D03*
X0049757Y0082640D03*
X0049657Y0082840D03*
X0049657Y0082940D03*
X0049657Y0083040D03*
X0049657Y0083140D03*
X0049657Y0083240D03*
X0049557Y0083740D03*
X0049557Y0083840D03*
X0049557Y0083940D03*
X0049557Y0084040D03*
X0049557Y0084140D03*
X0049557Y0084240D03*
X0049557Y0084340D03*
X0049557Y0084440D03*
X0049557Y0084540D03*
X0049457Y0084840D03*
X0049457Y0084940D03*
X0049457Y0085040D03*
X0049457Y0085140D03*
X0049457Y0085240D03*
X0049457Y0085340D03*
X0049357Y0085640D03*
X0049357Y0085740D03*
X0047757Y0083240D03*
X0048057Y0082740D03*
X0044957Y0083140D03*
X0044957Y0083240D03*
X0044957Y0083340D03*
X0044857Y0083740D03*
X0043057Y0083440D03*
X0043057Y0083340D03*
X0041957Y0082740D03*
X0041957Y0082640D03*
X0041957Y0082540D03*
X0042057Y0082140D03*
X0042057Y0082040D03*
X0042057Y0081940D03*
X0042057Y0081840D03*
X0042057Y0081740D03*
X0042057Y0081640D03*
X0042057Y0081540D03*
X0042057Y0081440D03*
X0041957Y0081340D03*
X0040357Y0081540D03*
X0040357Y0083340D03*
X0040357Y0083440D03*
X0040357Y0083540D03*
X0041057Y0084440D03*
X0038457Y0084540D03*
X0038357Y0084340D03*
X0038357Y0084240D03*
X0038357Y0084140D03*
X0038357Y0084040D03*
X0038357Y0083940D03*
X0038357Y0083840D03*
X0038457Y0083540D03*
X0036857Y0083340D03*
X0036857Y0083240D03*
X0036857Y0083140D03*
X0036857Y0083040D03*
X0035057Y0084540D03*
X0038357Y0085840D03*
X0038357Y0085940D03*
X0038357Y0086040D03*
X0038357Y0086140D03*
X0093761Y0069714D03*
D48*
X0093861Y0069814D03*
X0093861Y0069914D03*
X0068109Y0046265D03*
X0073809Y0043365D03*
X0074609Y0041165D03*
X0075009Y0040565D03*
X0075009Y0040465D03*
X0080909Y0044865D03*
X0084809Y0045065D03*
X0084809Y0045165D03*
X0085209Y0042765D03*
X0085309Y0042665D03*
X0085609Y0041565D03*
X0085609Y0041465D03*
X0085509Y0041365D03*
X0084209Y0034865D03*
X0084809Y0033865D03*
X0082809Y0033465D03*
X0082709Y0033365D03*
X0082709Y0033265D03*
X0080209Y0034065D03*
X0080209Y0034165D03*
X0080109Y0033865D03*
X0080009Y0033665D03*
X0079909Y0033565D03*
X0079909Y0033465D03*
X0079909Y0033365D03*
X0079809Y0033265D03*
X0079809Y0033165D03*
X0079709Y0032965D03*
X0079709Y0032865D03*
X0079609Y0032565D03*
X0079609Y0032465D03*
X0079509Y0032165D03*
X0079509Y0032065D03*
X0079209Y0030765D03*
X0073809Y0030965D03*
X0073709Y0031065D03*
X0073409Y0031365D03*
X0072609Y0033165D03*
X0072609Y0033265D03*
X0072609Y0033365D03*
X0072609Y0033465D03*
X0072609Y0033565D03*
X0072609Y0033665D03*
X0070609Y0033065D03*
X0070509Y0032965D03*
X0070509Y0032865D03*
X0070409Y0032665D03*
X0067809Y0032865D03*
X0067709Y0032765D03*
X0067709Y0032665D03*
X0067409Y0031565D03*
X0067409Y0031465D03*
X0047257Y0027822D03*
X0047157Y0028222D03*
X0045957Y0028322D03*
X0044857Y0029222D03*
X0044057Y0028422D03*
X0040257Y0029422D03*
X0039457Y0028422D03*
X0039457Y0028322D03*
X0039457Y0028222D03*
X0038257Y0028222D03*
X0038057Y0028922D03*
X0037957Y0029022D03*
X0037257Y0029622D03*
X0036657Y0028822D03*
X0034857Y0029922D03*
X0033857Y0028822D03*
X0033757Y0028622D03*
X0056818Y0058318D03*
X0056918Y0059718D03*
X0056918Y0059818D03*
X0057018Y0060618D03*
X0057018Y0060718D03*
X0057018Y0060818D03*
X0057118Y0061318D03*
X0057118Y0061418D03*
X0057118Y0061518D03*
X0057118Y0061618D03*
X0057118Y0061718D03*
X0055618Y0060218D03*
X0055518Y0060318D03*
X0055718Y0060018D03*
X0055818Y0059918D03*
X0055818Y0059818D03*
X0055918Y0059718D03*
X0054618Y0061718D03*
X0058618Y0060318D03*
X0058718Y0060518D03*
X0060818Y0059818D03*
X0060818Y0059718D03*
X0056318Y0070629D03*
X0056318Y0070729D03*
X0058018Y0071729D03*
X0058018Y0071829D03*
X0058118Y0071929D03*
X0058218Y0072129D03*
X0058318Y0072329D03*
X0059618Y0073629D03*
X0056318Y0073329D03*
X0056318Y0073229D03*
X0054218Y0073529D03*
X0054218Y0073629D03*
X0047957Y0082940D03*
X0047857Y0083040D03*
X0046957Y0084540D03*
X0044657Y0084140D03*
X0043157Y0083940D03*
X0043057Y0083540D03*
X0041457Y0083740D03*
X0040457Y0083740D03*
X0040857Y0082840D03*
X0041557Y0080740D03*
X0036757Y0082840D03*
X0036757Y0083540D03*
X0035257Y0084740D03*
X0035157Y0084640D03*
X0036257Y0082140D03*
D49*
X0036457Y0083740D03*
X0035357Y0084840D03*
X0036257Y0085440D03*
X0039257Y0082840D03*
X0041457Y0083440D03*
X0043257Y0084140D03*
X0046257Y0083140D03*
X0054318Y0073329D03*
X0056218Y0071029D03*
X0056218Y0070929D03*
X0059518Y0073529D03*
X0059018Y0060918D03*
X0058918Y0060818D03*
X0058918Y0059118D03*
X0060418Y0059218D03*
X0060518Y0059318D03*
X0060618Y0059418D03*
X0056718Y0058618D03*
X0056718Y0058518D03*
X0054818Y0061318D03*
X0054818Y0061418D03*
X0054718Y0061518D03*
X0070309Y0039965D03*
X0074809Y0040165D03*
X0068809Y0034365D03*
X0068809Y0034265D03*
X0068709Y0034165D03*
X0068609Y0034065D03*
X0068309Y0033665D03*
X0068209Y0033565D03*
X0068009Y0033265D03*
X0067309Y0031865D03*
X0070909Y0033465D03*
X0071009Y0033565D03*
X0071109Y0033665D03*
X0071209Y0033765D03*
X0072509Y0032865D03*
X0072509Y0032765D03*
X0071109Y0031465D03*
X0083009Y0033765D03*
X0083109Y0033865D03*
X0083209Y0033965D03*
X0083309Y0034065D03*
X0084709Y0033665D03*
X0085009Y0040665D03*
X0085109Y0040765D03*
X0085209Y0040865D03*
X0085309Y0040965D03*
X0085009Y0042865D03*
X0084509Y0044665D03*
X0084609Y0044765D03*
X0094061Y0070014D03*
X0094061Y0070114D03*
X0044757Y0029122D03*
X0044157Y0028522D03*
X0039657Y0028722D03*
X0039557Y0028622D03*
X0038157Y0028022D03*
X0035057Y0028022D03*
D50*
X0034657Y0029622D03*
X0037457Y0027422D03*
X0046357Y0028822D03*
X0067309Y0031965D03*
X0067309Y0032065D03*
X0071309Y0033865D03*
X0072209Y0034565D03*
X0072409Y0032565D03*
X0079109Y0031365D03*
X0079109Y0031265D03*
X0083609Y0034265D03*
X0084209Y0034765D03*
X0084409Y0033465D03*
X0084309Y0033365D03*
X0084809Y0040465D03*
X0083809Y0043965D03*
X0083909Y0044065D03*
X0074609Y0039965D03*
X0070209Y0039865D03*
X0056618Y0058818D03*
X0056618Y0058918D03*
X0054918Y0061018D03*
X0054918Y0061118D03*
X0059618Y0061518D03*
X0056218Y0071229D03*
X0054418Y0073029D03*
X0054418Y0073129D03*
X0058818Y0072829D03*
X0059518Y0073429D03*
X0041457Y0080840D03*
X0040657Y0081340D03*
X0039157Y0082940D03*
X0040957Y0084240D03*
X0035557Y0084940D03*
X0090861Y0071214D03*
X0094261Y0070214D03*
X0094661Y0070614D03*
X0094761Y0070714D03*
X0094961Y0070814D03*
X0095061Y0070914D03*
X0095161Y0071014D03*
X0095261Y0071114D03*
X0095361Y0071214D03*
X0094161Y0073214D03*
D51*
X0095711Y0071414D03*
X0094611Y0070514D03*
X0094511Y0070414D03*
X0094411Y0070314D03*
X0084459Y0044565D03*
X0084359Y0044465D03*
X0084259Y0044365D03*
X0084159Y0044265D03*
X0084059Y0044165D03*
X0084959Y0040565D03*
X0083459Y0034165D03*
X0084559Y0033565D03*
X0085159Y0031865D03*
X0082659Y0032365D03*
X0079159Y0031165D03*
X0079159Y0031065D03*
X0072459Y0032665D03*
X0068559Y0033965D03*
X0068459Y0033865D03*
X0068359Y0033765D03*
X0074759Y0040065D03*
X0073759Y0043265D03*
X0056668Y0058718D03*
X0054868Y0061218D03*
X0059068Y0061018D03*
X0056168Y0071129D03*
X0058568Y0072629D03*
X0058668Y0072729D03*
X0054368Y0073229D03*
X0046907Y0084440D03*
X0043907Y0084740D03*
X0041407Y0083340D03*
X0036207Y0082240D03*
X0035307Y0084440D03*
X0034707Y0029722D03*
X0034307Y0029322D03*
X0034207Y0029222D03*
X0037207Y0029522D03*
X0040207Y0029322D03*
X0044307Y0028622D03*
D52*
X0046457Y0028422D03*
X0046657Y0027522D03*
X0037457Y0027622D03*
X0034557Y0027422D03*
X0069609Y0039465D03*
X0073409Y0039165D03*
X0073509Y0042865D03*
X0072109Y0034265D03*
X0084109Y0034465D03*
X0090961Y0071314D03*
X0095661Y0072314D03*
X0095661Y0072414D03*
X0046757Y0084140D03*
X0041257Y0082940D03*
X0035857Y0083940D03*
X0035757Y0084040D03*
X0035657Y0084140D03*
D53*
X0036207Y0085340D03*
X0036207Y0082340D03*
X0039107Y0083040D03*
X0046307Y0083240D03*
X0054468Y0072929D03*
X0056068Y0071429D03*
X0056168Y0071329D03*
X0054968Y0060918D03*
X0054968Y0060818D03*
X0060268Y0059118D03*
X0073759Y0043165D03*
X0072359Y0042165D03*
X0072359Y0042065D03*
X0070059Y0039765D03*
X0069559Y0039265D03*
X0073359Y0039065D03*
X0067259Y0032265D03*
X0067259Y0032165D03*
X0081059Y0045065D03*
X0083559Y0046365D03*
X0083659Y0043865D03*
X0084159Y0033265D03*
X0046707Y0027222D03*
X0044707Y0029022D03*
X0040207Y0029222D03*
X0034607Y0029522D03*
X0034507Y0029422D03*
X0095611Y0071314D03*
D54*
X0092061Y0071414D03*
X0083009Y0045665D03*
D55*
X0092411Y0071514D03*
D56*
X0094261Y0073114D03*
X0095761Y0071514D03*
X0083509Y0043765D03*
X0082809Y0042965D03*
X0084709Y0042965D03*
X0084609Y0040365D03*
X0084209Y0034665D03*
X0082809Y0032465D03*
X0079109Y0031565D03*
X0079109Y0031465D03*
X0072409Y0032465D03*
X0071109Y0031565D03*
X0072209Y0034465D03*
X0067309Y0032365D03*
X0074509Y0039865D03*
X0074309Y0041265D03*
X0072409Y0042265D03*
X0059618Y0058618D03*
X0056618Y0059018D03*
X0055018Y0060718D03*
X0059618Y0061418D03*
X0056118Y0071529D03*
X0056018Y0071629D03*
X0054518Y0072729D03*
X0054518Y0072829D03*
X0058918Y0072929D03*
X0059018Y0073029D03*
X0059418Y0073329D03*
X0046357Y0083340D03*
X0046857Y0084340D03*
X0043957Y0084640D03*
X0040957Y0084140D03*
X0039057Y0083140D03*
X0038957Y0083340D03*
X0035457Y0084340D03*
X0037257Y0029422D03*
X0044457Y0028722D03*
X0044657Y0028922D03*
X0046357Y0028722D03*
D57*
X0093261Y0071614D03*
X0093361Y0071714D03*
D58*
X0093411Y0071814D03*
D59*
X0093461Y0071914D03*
D60*
X0094011Y0073414D03*
X0090711Y0072014D03*
X0077759Y0046265D03*
X0077759Y0046165D03*
X0077759Y0046065D03*
X0077759Y0045965D03*
X0077759Y0045865D03*
X0077759Y0045765D03*
X0077759Y0045665D03*
X0077759Y0045565D03*
X0077759Y0045465D03*
X0077859Y0044565D03*
X0077859Y0044465D03*
X0077859Y0044365D03*
X0077859Y0044265D03*
X0077959Y0043565D03*
X0077959Y0043465D03*
X0077959Y0043365D03*
X0077959Y0043265D03*
X0077959Y0043165D03*
X0078059Y0041265D03*
X0078059Y0041165D03*
X0078059Y0041065D03*
X0078059Y0040765D03*
X0078059Y0040565D03*
X0078059Y0040465D03*
X0078059Y0040365D03*
X0078059Y0040165D03*
X0078059Y0040065D03*
X0078059Y0039965D03*
X0078059Y0039865D03*
X0078059Y0039765D03*
X0078059Y0039665D03*
X0075059Y0040665D03*
X0074959Y0040865D03*
X0074759Y0041065D03*
X0070359Y0040065D03*
X0068759Y0039765D03*
X0068359Y0041865D03*
X0068359Y0041965D03*
X0068359Y0042065D03*
X0068459Y0042365D03*
X0068459Y0042465D03*
X0068459Y0042565D03*
X0068459Y0042665D03*
X0068559Y0042765D03*
X0068559Y0042865D03*
X0068159Y0046065D03*
X0068159Y0046165D03*
X0068159Y0046365D03*
X0068159Y0046465D03*
X0075359Y0035965D03*
X0075359Y0035765D03*
X0075359Y0035665D03*
X0075459Y0034765D03*
X0075459Y0034665D03*
X0075459Y0034565D03*
X0075459Y0034365D03*
X0075459Y0034265D03*
X0075459Y0034165D03*
X0075459Y0034065D03*
X0075459Y0033965D03*
X0075459Y0033865D03*
X0075459Y0033765D03*
X0075459Y0033665D03*
X0075459Y0033465D03*
X0075359Y0032665D03*
X0075359Y0032565D03*
X0075359Y0032465D03*
X0075359Y0032365D03*
X0075359Y0032265D03*
X0075359Y0032165D03*
X0075359Y0032065D03*
X0075359Y0031965D03*
X0075359Y0031865D03*
X0075359Y0031765D03*
X0075359Y0031665D03*
X0075359Y0031565D03*
X0075359Y0031465D03*
X0075459Y0031365D03*
X0073859Y0030865D03*
X0073259Y0031465D03*
X0073059Y0031765D03*
X0072959Y0031965D03*
X0070359Y0032065D03*
X0070359Y0032465D03*
X0070359Y0032565D03*
X0070459Y0032765D03*
X0068859Y0034565D03*
X0066559Y0033365D03*
X0066459Y0033565D03*
X0066359Y0033865D03*
X0066759Y0032765D03*
X0067459Y0031365D03*
X0077559Y0034365D03*
X0077559Y0034465D03*
X0077659Y0034265D03*
X0077659Y0034165D03*
X0077759Y0033965D03*
X0077859Y0033765D03*
X0077859Y0033665D03*
X0077959Y0033565D03*
X0077959Y0033465D03*
X0078059Y0033365D03*
X0078059Y0033265D03*
X0078159Y0033065D03*
X0078159Y0032965D03*
X0078259Y0032765D03*
X0078359Y0032465D03*
X0078459Y0032265D03*
X0078459Y0032165D03*
X0078559Y0031965D03*
X0079459Y0031965D03*
X0079559Y0032265D03*
X0079559Y0032365D03*
X0079659Y0032665D03*
X0079659Y0032765D03*
X0079759Y0033065D03*
X0079259Y0030665D03*
X0082659Y0031865D03*
X0082659Y0033165D03*
X0084859Y0033965D03*
X0085659Y0041665D03*
X0085659Y0041765D03*
X0085659Y0041865D03*
X0085659Y0041965D03*
X0084859Y0045265D03*
X0084859Y0045365D03*
X0084859Y0045465D03*
X0084759Y0045565D03*
X0060868Y0059918D03*
X0060868Y0060018D03*
X0060868Y0060118D03*
X0060768Y0060218D03*
X0060768Y0060318D03*
X0060768Y0060418D03*
X0060668Y0060618D03*
X0060568Y0060818D03*
X0060468Y0060918D03*
X0060368Y0061018D03*
X0058568Y0060218D03*
X0058568Y0060118D03*
X0058568Y0060018D03*
X0058568Y0059918D03*
X0058568Y0059418D03*
X0058668Y0059218D03*
X0056968Y0059918D03*
X0056968Y0060018D03*
X0056968Y0060118D03*
X0056968Y0060218D03*
X0056968Y0060318D03*
X0056968Y0060418D03*
X0056968Y0060518D03*
X0057068Y0060918D03*
X0057068Y0061018D03*
X0057068Y0061118D03*
X0057068Y0061218D03*
X0055668Y0060118D03*
X0055468Y0060418D03*
X0054568Y0060418D03*
X0054568Y0060318D03*
X0054568Y0060218D03*
X0054568Y0060118D03*
X0054568Y0060018D03*
X0054468Y0059418D03*
X0054468Y0059318D03*
X0054468Y0059218D03*
X0054468Y0059118D03*
X0054468Y0059018D03*
X0054368Y0058618D03*
X0054568Y0061818D03*
X0056368Y0070529D03*
X0056368Y0071929D03*
X0056368Y0072029D03*
X0056368Y0072129D03*
X0056268Y0072829D03*
X0056268Y0072929D03*
X0056268Y0073029D03*
X0056268Y0073129D03*
X0056368Y0073429D03*
X0056368Y0073529D03*
X0056368Y0073629D03*
X0055168Y0072429D03*
X0055168Y0072329D03*
X0055268Y0072229D03*
X0055368Y0072029D03*
X0055468Y0071929D03*
X0055568Y0071829D03*
X0055068Y0072529D03*
X0054968Y0072629D03*
X0054168Y0073729D03*
X0054068Y0071529D03*
X0054068Y0071429D03*
X0054068Y0071329D03*
X0054068Y0071229D03*
X0053968Y0070829D03*
X0053968Y0070729D03*
X0057968Y0071629D03*
X0049707Y0082740D03*
X0049607Y0083340D03*
X0049607Y0083440D03*
X0049607Y0083540D03*
X0049607Y0083640D03*
X0049507Y0084640D03*
X0049507Y0084740D03*
X0049407Y0085440D03*
X0049407Y0085540D03*
X0049307Y0085840D03*
X0049307Y0085940D03*
X0047707Y0083340D03*
X0047807Y0083140D03*
X0048007Y0082840D03*
X0045007Y0082940D03*
X0045007Y0083040D03*
X0044907Y0083440D03*
X0044907Y0083540D03*
X0044907Y0083640D03*
X0044807Y0083840D03*
X0044807Y0083940D03*
X0044807Y0084040D03*
X0043107Y0083840D03*
X0043107Y0083740D03*
X0043107Y0083640D03*
X0043107Y0083240D03*
X0040407Y0083640D03*
X0038507Y0083440D03*
X0036807Y0083440D03*
X0036807Y0082940D03*
X0042207Y0030122D03*
X0042207Y0030022D03*
X0042207Y0029922D03*
X0042207Y0029822D03*
X0042307Y0028622D03*
X0042407Y0028222D03*
X0042407Y0028122D03*
X0042407Y0028022D03*
X0042407Y0027922D03*
X0044007Y0028222D03*
X0044007Y0028322D03*
X0040907Y0028422D03*
X0038307Y0028322D03*
X0036607Y0028022D03*
X0036607Y0028722D03*
X0033807Y0028722D03*
X0033707Y0028522D03*
X0033607Y0028322D03*
X0048407Y0030022D03*
X0048407Y0030122D03*
X0048507Y0029122D03*
X0048507Y0028822D03*
X0048607Y0028522D03*
X0048607Y0028422D03*
X0048607Y0028322D03*
X0048707Y0027322D03*
D61*
X0083259Y0039965D03*
X0083659Y0043165D03*
X0083559Y0043265D03*
X0084259Y0031365D03*
X0095111Y0072014D03*
D62*
X0095611Y0072114D03*
X0095311Y0072614D03*
X0083459Y0043565D03*
X0083159Y0039665D03*
X0083259Y0032865D03*
X0083159Y0032765D03*
X0073459Y0039265D03*
X0071959Y0033965D03*
X0071159Y0031865D03*
X0042407Y0029422D03*
X0041207Y0081240D03*
X0043807Y0084440D03*
D63*
X0041307Y0081040D03*
X0036207Y0082540D03*
X0036107Y0083840D03*
X0036107Y0085140D03*
X0059668Y0061318D03*
X0059668Y0058718D03*
X0056468Y0059518D03*
X0056468Y0059618D03*
X0073559Y0042965D03*
X0073059Y0042665D03*
X0081259Y0045265D03*
X0084159Y0034565D03*
X0082959Y0032565D03*
X0072359Y0032265D03*
X0071159Y0031665D03*
X0046707Y0027422D03*
X0046407Y0028522D03*
X0037307Y0029222D03*
X0094411Y0073014D03*
X0095811Y0072214D03*
D64*
X0095511Y0072514D03*
X0094511Y0072914D03*
X0073359Y0042765D03*
X0072659Y0041965D03*
X0072059Y0034165D03*
X0071159Y0031765D03*
X0083059Y0032665D03*
X0059668Y0058818D03*
X0059668Y0061218D03*
X0041207Y0083040D03*
X0041107Y0083140D03*
X0041107Y0083240D03*
X0043807Y0084540D03*
X0046707Y0084040D03*
X0036207Y0082640D03*
X0036007Y0085040D03*
X0037307Y0029122D03*
X0040107Y0028922D03*
X0040107Y0028822D03*
X0042407Y0028822D03*
X0046607Y0027622D03*
D65*
X0073159Y0041665D03*
X0073559Y0041365D03*
X0081859Y0045565D03*
X0083359Y0046165D03*
X0083459Y0043465D03*
X0059268Y0070529D03*
X0095011Y0072714D03*
D66*
X0094761Y0072814D03*
X0073009Y0041765D03*
X0073509Y0039365D03*
X0083409Y0033065D03*
X0059618Y0059018D03*
X0046757Y0083440D03*
X0042357Y0029222D03*
D67*
X0043257Y0029522D03*
X0044957Y0029322D03*
X0041057Y0027122D03*
X0040257Y0029522D03*
X0068509Y0043265D03*
X0072109Y0039965D03*
X0073209Y0038965D03*
X0077409Y0034865D03*
X0080109Y0034565D03*
X0079309Y0030465D03*
X0075509Y0031065D03*
X0082609Y0042665D03*
X0095761Y0072914D03*
X0040257Y0081740D03*
D68*
X0040507Y0081440D03*
X0041507Y0083540D03*
X0041507Y0083640D03*
X0041007Y0084340D03*
X0043207Y0084040D03*
X0036607Y0083640D03*
X0054268Y0073429D03*
X0056268Y0070829D03*
X0058168Y0072029D03*
X0058268Y0072229D03*
X0058368Y0072429D03*
X0058468Y0072529D03*
X0059968Y0071029D03*
X0059568Y0061618D03*
X0058868Y0060718D03*
X0058768Y0060618D03*
X0058668Y0060418D03*
X0060668Y0059518D03*
X0060768Y0059618D03*
X0059668Y0058518D03*
X0056768Y0058418D03*
X0054668Y0061618D03*
X0074959Y0040365D03*
X0074959Y0040265D03*
X0080959Y0044965D03*
X0082659Y0042865D03*
X0084659Y0044865D03*
X0084759Y0044965D03*
X0085459Y0041265D03*
X0085459Y0041165D03*
X0085359Y0041065D03*
X0080159Y0033965D03*
X0080059Y0033765D03*
X0082859Y0033565D03*
X0082959Y0033665D03*
X0084759Y0033765D03*
X0079159Y0030965D03*
X0079159Y0030865D03*
X0073659Y0031165D03*
X0073559Y0031265D03*
X0072559Y0032965D03*
X0072559Y0033065D03*
X0072559Y0033765D03*
X0072559Y0033865D03*
X0072259Y0034665D03*
X0070859Y0033365D03*
X0070759Y0033265D03*
X0070659Y0033165D03*
X0068859Y0034465D03*
X0068159Y0033465D03*
X0068059Y0033365D03*
X0067959Y0033165D03*
X0067859Y0033065D03*
X0067859Y0032965D03*
X0067359Y0031765D03*
X0067359Y0031665D03*
X0069559Y0039165D03*
X0047007Y0028322D03*
X0046307Y0028922D03*
X0046707Y0027122D03*
X0039507Y0028522D03*
X0038207Y0028122D03*
X0036807Y0029022D03*
X0036707Y0028922D03*
X0034807Y0029822D03*
X0034107Y0029122D03*
X0034007Y0029022D03*
X0033907Y0028922D03*
X0094111Y0073314D03*
D69*
X0068209Y0046665D03*
X0072209Y0039865D03*
X0075209Y0036965D03*
X0075209Y0036865D03*
X0077409Y0034765D03*
X0075509Y0031165D03*
X0079309Y0030565D03*
X0067509Y0031265D03*
X0080909Y0044765D03*
X0059418Y0061718D03*
X0056818Y0058118D03*
X0056418Y0070329D03*
X0054018Y0070429D03*
X0056318Y0073829D03*
X0048057Y0082640D03*
X0046257Y0083040D03*
X0043157Y0083040D03*
X0040257Y0081640D03*
X0038357Y0085740D03*
X0038357Y0086240D03*
X0049257Y0086140D03*
X0042057Y0030422D03*
X0042557Y0027322D03*
X0041057Y0027222D03*
X0037257Y0029822D03*
X0034257Y0027222D03*
X0048857Y0026722D03*
D70*
X0046707Y0027322D03*
X0044607Y0028822D03*
X0042307Y0028722D03*
X0040207Y0029122D03*
X0037307Y0029322D03*
X0034507Y0027322D03*
X0067259Y0032465D03*
X0067259Y0032565D03*
X0071659Y0032065D03*
X0072359Y0032365D03*
X0079059Y0031865D03*
X0079059Y0031765D03*
X0079059Y0031665D03*
X0083959Y0031065D03*
X0083159Y0039565D03*
X0081159Y0045165D03*
X0073659Y0043065D03*
X0072559Y0042365D03*
X0056568Y0059118D03*
X0056568Y0059218D03*
X0054968Y0060618D03*
X0059168Y0070329D03*
X0059368Y0073229D03*
X0055968Y0071729D03*
X0041407Y0080940D03*
X0039007Y0083240D03*
X0036207Y0082440D03*
D71*
X0046707Y0083540D03*
X0046707Y0083640D03*
X0083359Y0032965D03*
X0084159Y0031165D03*
X0042407Y0029322D03*
X0042407Y0029122D03*
X0042407Y0029022D03*
X0034507Y0027822D03*
D72*
X0059168Y0070829D03*
X0083259Y0046065D03*
X0084259Y0031265D03*
D73*
X0084209Y0031465D03*
X0084109Y0031665D03*
X0084009Y0031765D03*
D74*
X0084159Y0031565D03*
X0083359Y0040165D03*
D75*
X0081609Y0045465D03*
X0072909Y0041865D03*
X0069609Y0039665D03*
X0071209Y0031965D03*
X0042457Y0028922D03*
X0037457Y0027922D03*
X0037457Y0027822D03*
X0034557Y0027722D03*
X0034557Y0027622D03*
X0034457Y0027922D03*
X0059618Y0058918D03*
X0059218Y0070429D03*
X0046657Y0083740D03*
X0046657Y0083840D03*
X0043857Y0084240D03*
X0043857Y0084340D03*
D76*
X0046657Y0083940D03*
X0041257Y0081140D03*
X0036157Y0082740D03*
X0059618Y0061118D03*
X0081409Y0045365D03*
X0083409Y0046265D03*
X0084109Y0034365D03*
X0072209Y0032165D03*
X0072009Y0034065D03*
X0069609Y0039565D03*
X0046657Y0027722D03*
X0037457Y0027722D03*
X0034557Y0027522D03*
D77*
X0037457Y0027522D03*
X0040157Y0029022D03*
X0046357Y0028622D03*
X0069609Y0039365D03*
X0072809Y0042465D03*
X0072909Y0042565D03*
X0074309Y0039765D03*
X0072109Y0034365D03*
X0083409Y0043665D03*
X0084409Y0040265D03*
X0084009Y0033165D03*
X0056518Y0059318D03*
X0056518Y0059418D03*
X0055018Y0060518D03*
X0059218Y0073129D03*
X0046857Y0084240D03*
X0040957Y0084040D03*
X0040957Y0083940D03*
X0040957Y0083840D03*
X0036157Y0085240D03*
X0035557Y0084240D03*
D78*
X0038407Y0084940D03*
X0038407Y0086340D03*
X0041107Y0084540D03*
X0043007Y0084640D03*
X0049307Y0086240D03*
X0054068Y0070329D03*
X0068159Y0046765D03*
X0075159Y0037065D03*
X0048907Y0026622D03*
X0042507Y0027222D03*
D79*
X0073509Y0039465D03*
X0073309Y0041565D03*
X0083209Y0039765D03*
D80*
X0083209Y0039865D03*
X0083509Y0043365D03*
X0073609Y0039565D03*
X0059218Y0070729D03*
X0059118Y0070929D03*
D81*
X0073609Y0039665D03*
D82*
X0083309Y0040065D03*
X0083709Y0043065D03*
D83*
X0073359Y0041465D03*
X0059268Y0070629D03*
D84*
X0083009Y0045765D03*
D85*
X0083059Y0045865D03*
D86*
X0083159Y0045965D03*
M02*
