G75*
%MOIN*%
%OFA0B0*%
%FSLAX25Y25*%
%IPPOS*%
%LPD*%
%AMOC8*
5,1,8,0,0,1.08239X$1,22.5*
%
%ADD10C,0.05937*%
%ADD11C,0.02000*%
D10*
X0032118Y0015079D03*
X0042157Y0015079D03*
X0052197Y0015079D03*
X0106606Y0046339D03*
X0106606Y0056378D03*
X0106606Y0066417D03*
X0052197Y0097677D03*
X0042157Y0097677D03*
X0032118Y0097677D03*
D11*
X0023745Y0024297D02*
X0024449Y0022598D01*
X0024724Y0022598D01*
X0027574Y0021418D01*
X0029613Y0019379D01*
X0030211Y0019683D01*
X0030955Y0019925D01*
X0031727Y0020047D01*
X0032118Y0020047D01*
X0032118Y0015079D01*
X0032118Y0015079D01*
X0032118Y0020047D01*
X0032509Y0020047D01*
X0033282Y0019925D01*
X0034025Y0019683D01*
X0034722Y0019328D01*
X0035355Y0018868D01*
X0035908Y0018315D01*
X0036368Y0017683D01*
X0036723Y0016986D01*
X0036964Y0016242D01*
X0037087Y0015470D01*
X0037087Y0015079D01*
X0032118Y0015079D01*
X0032118Y0015079D01*
X0032118Y0015079D01*
X0032118Y0010110D01*
X0031727Y0010110D01*
X0030955Y0010233D01*
X0030211Y0010474D01*
X0029844Y0010661D01*
X0029756Y0010449D01*
X0029357Y0010050D01*
X0054958Y0010050D01*
X0054559Y0010449D01*
X0054401Y0010830D01*
X0053145Y0010310D01*
X0051248Y0010310D01*
X0049496Y0011036D01*
X0048154Y0012378D01*
X0047428Y0014130D01*
X0047428Y0016027D01*
X0048154Y0017780D01*
X0049496Y0019121D01*
X0051248Y0019847D01*
X0053145Y0019847D01*
X0054577Y0019254D01*
X0056740Y0021418D01*
X0059591Y0022598D01*
X0059866Y0022598D01*
X0060570Y0024297D01*
X0060570Y0024297D01*
X0062821Y0026548D01*
X0062821Y0026548D01*
X0065762Y0027767D01*
X0085288Y0027767D01*
X0087144Y0026998D01*
X0088565Y0025577D01*
X0089333Y0023721D01*
X0089333Y0021270D01*
X0096950Y0021270D01*
X0096950Y0032773D01*
X0098168Y0035714D01*
X0098168Y0035714D01*
X0100420Y0037966D01*
X0100420Y0037966D01*
X0102118Y0038669D01*
X0102118Y0038944D01*
X0103299Y0041795D01*
X0103853Y0042349D01*
X0102564Y0043637D01*
X0101838Y0045390D01*
X0101838Y0047287D01*
X0102564Y0049040D01*
X0103905Y0050381D01*
X0105658Y0051107D01*
X0107555Y0051107D01*
X0109307Y0050381D01*
X0110649Y0049040D01*
X0111375Y0047287D01*
X0111375Y0045390D01*
X0111278Y0045157D01*
X0111417Y0045157D01*
X0114267Y0043977D01*
X0114667Y0043578D01*
X0114667Y0069178D01*
X0114267Y0068779D01*
X0111443Y0067609D01*
X0111452Y0067581D01*
X0111575Y0066808D01*
X0111575Y0066417D01*
X0106606Y0066417D01*
X0106606Y0066417D01*
X0106606Y0061449D01*
X0106215Y0061449D01*
X0105443Y0061571D01*
X0104699Y0061813D01*
X0104002Y0062168D01*
X0103370Y0062628D01*
X0102817Y0063181D01*
X0102357Y0063813D01*
X0102002Y0064510D01*
X0101760Y0065254D01*
X0101638Y0066026D01*
X0101638Y0066417D01*
X0106606Y0066417D01*
X0106606Y0066417D01*
X0106606Y0061449D01*
X0106997Y0061449D01*
X0107770Y0061571D01*
X0108514Y0061813D01*
X0109210Y0062168D01*
X0109843Y0062628D01*
X0110396Y0063181D01*
X0110856Y0063813D01*
X0111211Y0064510D01*
X0111452Y0065254D01*
X0111575Y0066026D01*
X0111575Y0066417D01*
X0106606Y0066417D01*
X0101638Y0066417D01*
X0101638Y0066808D01*
X0101760Y0067581D01*
X0102002Y0068325D01*
X0102357Y0069021D01*
X0102817Y0069654D01*
X0103370Y0070207D01*
X0103765Y0070495D01*
X0103299Y0070961D01*
X0102118Y0073812D01*
X0102118Y0074087D01*
X0100420Y0074790D01*
X0100420Y0074790D01*
X0098168Y0077042D01*
X0098168Y0077042D01*
X0096950Y0079983D01*
X0096950Y0091485D01*
X0089333Y0091485D01*
X0089333Y0089035D01*
X0088565Y0087179D01*
X0087144Y0085758D01*
X0085288Y0084989D01*
X0065762Y0084989D01*
X0062821Y0086208D01*
X0062821Y0086208D01*
X0060570Y0088459D01*
X0060570Y0088459D01*
X0059866Y0090157D01*
X0059591Y0090157D01*
X0056740Y0091338D01*
X0054702Y0093377D01*
X0054104Y0093073D01*
X0053360Y0092831D01*
X0052588Y0092709D01*
X0052197Y0092709D01*
X0052197Y0097677D01*
X0052197Y0097677D01*
X0052197Y0092709D01*
X0051806Y0092709D01*
X0051033Y0092831D01*
X0050290Y0093073D01*
X0049593Y0093428D01*
X0048960Y0093887D01*
X0048407Y0094440D01*
X0047947Y0095073D01*
X0047592Y0095770D01*
X0047351Y0096514D01*
X0047228Y0097286D01*
X0047228Y0097677D01*
X0052197Y0097677D01*
X0052197Y0097677D01*
X0052197Y0097677D01*
X0052197Y0102646D01*
X0052588Y0102646D01*
X0053360Y0102523D01*
X0054104Y0102282D01*
X0054471Y0102095D01*
X0054559Y0102307D01*
X0054958Y0102706D01*
X0029357Y0102706D01*
X0029756Y0102307D01*
X0029914Y0101926D01*
X0031170Y0102446D01*
X0033067Y0102446D01*
X0034819Y0101720D01*
X0036161Y0100378D01*
X0036887Y0098626D01*
X0036887Y0096729D01*
X0036161Y0094976D01*
X0034819Y0093635D01*
X0033067Y0092909D01*
X0031170Y0092909D01*
X0029738Y0093502D01*
X0027574Y0091338D01*
X0024724Y0090157D01*
X0024449Y0090157D01*
X0023745Y0088459D01*
X0023745Y0088459D01*
X0021494Y0086208D01*
X0021494Y0086208D01*
X0018552Y0084989D01*
X0007050Y0084989D01*
X0007050Y0027767D01*
X0018552Y0027767D01*
X0021494Y0026548D01*
X0021494Y0026548D01*
X0023745Y0024297D01*
X0023745Y0024297D01*
X0023057Y0024985D02*
X0061258Y0024985D01*
X0060027Y0022987D02*
X0024288Y0022987D01*
X0028004Y0020988D02*
X0056311Y0020988D01*
X0049364Y0018990D02*
X0044990Y0018990D01*
X0044859Y0019121D02*
X0046200Y0017780D01*
X0046926Y0016027D01*
X0046926Y0014130D01*
X0046200Y0012378D01*
X0044859Y0011036D01*
X0043106Y0010310D01*
X0041209Y0010310D01*
X0039456Y0011036D01*
X0038115Y0012378D01*
X0037389Y0014130D01*
X0037389Y0016027D01*
X0038115Y0017780D01*
X0039456Y0019121D01*
X0041209Y0019847D01*
X0043106Y0019847D01*
X0044859Y0019121D01*
X0046527Y0016991D02*
X0047828Y0016991D01*
X0047428Y0014993D02*
X0046926Y0014993D01*
X0046455Y0012994D02*
X0047899Y0012994D01*
X0049594Y0010996D02*
X0044760Y0010996D01*
X0039554Y0010996D02*
X0034951Y0010996D01*
X0034722Y0010829D02*
X0035355Y0011289D01*
X0035908Y0011842D01*
X0036368Y0012475D01*
X0036723Y0013171D01*
X0036964Y0013915D01*
X0037087Y0014688D01*
X0037087Y0015079D01*
X0032118Y0015079D01*
X0032118Y0010110D01*
X0032509Y0010110D01*
X0033282Y0010233D01*
X0034025Y0010474D01*
X0034722Y0010829D01*
X0032118Y0010996D02*
X0032118Y0010996D01*
X0032118Y0012994D02*
X0032118Y0012994D01*
X0032118Y0014993D02*
X0032118Y0014993D01*
X0032118Y0016991D02*
X0032118Y0016991D01*
X0032118Y0018990D02*
X0032118Y0018990D01*
X0035188Y0018990D02*
X0039325Y0018990D01*
X0037788Y0016991D02*
X0036720Y0016991D01*
X0037087Y0014993D02*
X0037389Y0014993D01*
X0037860Y0012994D02*
X0036632Y0012994D01*
X0020443Y0026984D02*
X0063872Y0026984D01*
X0087158Y0026984D02*
X0096950Y0026984D01*
X0096950Y0024985D02*
X0088810Y0024985D01*
X0089333Y0022987D02*
X0096950Y0022987D01*
X0096950Y0028982D02*
X0007050Y0028982D01*
X0007050Y0030981D02*
X0096950Y0030981D01*
X0097035Y0032979D02*
X0007050Y0032979D01*
X0007050Y0034978D02*
X0097863Y0034978D01*
X0099430Y0036976D02*
X0007050Y0036976D01*
X0007050Y0038975D02*
X0102131Y0038975D01*
X0102959Y0040973D02*
X0007050Y0040973D01*
X0007050Y0042972D02*
X0103229Y0042972D01*
X0102012Y0044970D02*
X0007050Y0044970D01*
X0007050Y0046969D02*
X0101838Y0046969D01*
X0102534Y0048967D02*
X0007050Y0048967D01*
X0007050Y0050966D02*
X0105317Y0050966D01*
X0105658Y0051609D02*
X0107555Y0051609D01*
X0109307Y0052335D01*
X0110649Y0053677D01*
X0111375Y0055429D01*
X0111375Y0057326D01*
X0110649Y0059079D01*
X0109307Y0060420D01*
X0107555Y0061146D01*
X0105658Y0061146D01*
X0103905Y0060420D01*
X0102564Y0059079D01*
X0101838Y0057326D01*
X0101838Y0055429D01*
X0102564Y0053677D01*
X0103905Y0052335D01*
X0105658Y0051609D01*
X0107896Y0050966D02*
X0114667Y0050966D01*
X0114667Y0052964D02*
X0109936Y0052964D01*
X0111181Y0054963D02*
X0114667Y0054963D01*
X0114667Y0056961D02*
X0111375Y0056961D01*
X0110698Y0058960D02*
X0114667Y0058960D01*
X0114667Y0060958D02*
X0108009Y0060958D01*
X0106606Y0062957D02*
X0106606Y0062957D01*
X0105204Y0060958D02*
X0083024Y0060958D01*
X0083024Y0061642D02*
X0082008Y0064095D01*
X0080130Y0065972D01*
X0079531Y0066220D01*
X0080130Y0066469D01*
X0082008Y0068346D01*
X0083024Y0070799D01*
X0083024Y0073453D01*
X0082008Y0075906D01*
X0080130Y0077783D01*
X0077678Y0078799D01*
X0075023Y0078799D01*
X0072570Y0077783D01*
X0070693Y0075906D01*
X0069677Y0073453D01*
X0069677Y0070799D01*
X0070693Y0068346D01*
X0072570Y0066469D01*
X0073170Y0066220D01*
X0072570Y0065972D01*
X0070693Y0064095D01*
X0069677Y0061642D01*
X0069677Y0058988D01*
X0070693Y0056535D01*
X0072570Y0054658D01*
X0075023Y0053642D01*
X0077678Y0053642D01*
X0080130Y0054658D01*
X0082008Y0056535D01*
X0083024Y0058988D01*
X0083024Y0061642D01*
X0082479Y0062957D02*
X0103040Y0062957D01*
X0101857Y0064955D02*
X0081147Y0064955D01*
X0080616Y0066954D02*
X0101661Y0066954D01*
X0102322Y0068952D02*
X0082259Y0068952D01*
X0083024Y0070951D02*
X0103309Y0070951D01*
X0102475Y0072949D02*
X0083024Y0072949D01*
X0082405Y0074948D02*
X0100262Y0074948D01*
X0098264Y0076946D02*
X0080967Y0076946D01*
X0071733Y0076946D02*
X0007050Y0076946D01*
X0007050Y0074948D02*
X0070296Y0074948D01*
X0069677Y0072949D02*
X0007050Y0072949D01*
X0007050Y0070951D02*
X0069677Y0070951D01*
X0070442Y0068952D02*
X0007050Y0068952D01*
X0007050Y0066954D02*
X0072085Y0066954D01*
X0071553Y0064955D02*
X0007050Y0064955D01*
X0007050Y0062957D02*
X0070222Y0062957D01*
X0069677Y0060958D02*
X0007050Y0060958D01*
X0007050Y0058960D02*
X0069689Y0058960D01*
X0070516Y0056961D02*
X0007050Y0056961D01*
X0007050Y0054963D02*
X0072265Y0054963D01*
X0080436Y0054963D02*
X0102031Y0054963D01*
X0101838Y0056961D02*
X0082184Y0056961D01*
X0083012Y0058960D02*
X0102514Y0058960D01*
X0106606Y0064955D02*
X0106606Y0064955D01*
X0106606Y0066417D02*
X0106606Y0066417D01*
X0110172Y0062957D02*
X0114667Y0062957D01*
X0114667Y0064955D02*
X0111355Y0064955D01*
X0111552Y0066954D02*
X0114667Y0066954D01*
X0114667Y0068952D02*
X0114441Y0068952D01*
X0097380Y0078945D02*
X0007050Y0078945D01*
X0007050Y0080943D02*
X0096950Y0080943D01*
X0096950Y0082942D02*
X0007050Y0082942D01*
X0007050Y0084940D02*
X0096950Y0084940D01*
X0096950Y0086939D02*
X0088325Y0086939D01*
X0089293Y0088937D02*
X0096950Y0088937D01*
X0096950Y0090936D02*
X0089333Y0090936D01*
X0062090Y0086939D02*
X0022225Y0086939D01*
X0023943Y0088937D02*
X0060372Y0088937D01*
X0057712Y0090936D02*
X0026603Y0090936D01*
X0029171Y0092934D02*
X0031107Y0092934D01*
X0033129Y0092934D02*
X0041147Y0092934D01*
X0041209Y0092909D02*
X0039456Y0093635D01*
X0038115Y0094976D01*
X0037389Y0096729D01*
X0037389Y0098626D01*
X0038115Y0100378D01*
X0039456Y0101720D01*
X0041209Y0102446D01*
X0043106Y0102446D01*
X0044859Y0101720D01*
X0046200Y0100378D01*
X0046926Y0098626D01*
X0046926Y0096729D01*
X0046200Y0094976D01*
X0044859Y0093635D01*
X0043106Y0092909D01*
X0041209Y0092909D01*
X0043168Y0092934D02*
X0050715Y0092934D01*
X0052197Y0092934D02*
X0052197Y0092934D01*
X0053679Y0092934D02*
X0055144Y0092934D01*
X0052197Y0094933D02*
X0052197Y0094933D01*
X0052197Y0096932D02*
X0052197Y0096932D01*
X0052197Y0097677D02*
X0047228Y0097677D01*
X0047228Y0098068D01*
X0047351Y0098841D01*
X0047592Y0099584D01*
X0047947Y0100281D01*
X0048407Y0100914D01*
X0048960Y0101467D01*
X0049593Y0101927D01*
X0050290Y0102282D01*
X0051033Y0102523D01*
X0051806Y0102646D01*
X0052197Y0102646D01*
X0052197Y0097677D01*
X0052197Y0098930D02*
X0052197Y0098930D01*
X0052197Y0100929D02*
X0052197Y0100929D01*
X0048422Y0100929D02*
X0045650Y0100929D01*
X0046800Y0098930D02*
X0047380Y0098930D01*
X0047285Y0096932D02*
X0046926Y0096932D01*
X0046157Y0094933D02*
X0048049Y0094933D01*
X0038665Y0100929D02*
X0035610Y0100929D01*
X0036761Y0098930D02*
X0037515Y0098930D01*
X0037389Y0096932D02*
X0036887Y0096932D01*
X0036118Y0094933D02*
X0038158Y0094933D01*
X0007050Y0052964D02*
X0103276Y0052964D01*
X0110679Y0048967D02*
X0114667Y0048967D01*
X0114667Y0046969D02*
X0111375Y0046969D01*
X0111869Y0044970D02*
X0114667Y0044970D01*
M02*
