G75*
%MOIN*%
%OFA0B0*%
%FSLAX25Y25*%
%IPPOS*%
%LPD*%
%AMOC8*
5,1,8,0,0,1.08239X$1,22.5*
%
%ADD10C,0.00600*%
%ADD11R,0.23200X0.00100*%
%ADD12R,0.23400X0.00100*%
%ADD13R,0.23600X0.00100*%
%ADD14R,0.23700X0.00100*%
%ADD15R,0.23800X0.00100*%
%ADD16R,0.23900X0.00100*%
%ADD17R,0.24000X0.00100*%
%ADD18R,0.24100X0.00100*%
%ADD19R,0.24200X0.00100*%
%ADD20R,0.24300X0.00100*%
%ADD21R,0.24400X0.00100*%
%ADD22R,0.24500X0.00100*%
%ADD23R,0.24600X0.00100*%
%ADD24R,0.24700X0.00100*%
%ADD25R,0.24800X0.00100*%
%ADD26R,0.24900X0.00100*%
%ADD27R,0.25000X0.00100*%
%ADD28R,0.25100X0.00100*%
%ADD29R,0.25200X0.00100*%
%ADD30R,0.25300X0.00100*%
%ADD31R,0.25400X0.00100*%
%ADD32R,0.25500X0.00100*%
%ADD33R,0.25600X0.00100*%
%ADD34R,0.25700X0.00100*%
%ADD35R,0.25800X0.00100*%
%ADD36R,0.26000X0.00100*%
%ADD37R,0.26100X0.00100*%
%ADD38R,0.26200X0.00100*%
%ADD39R,0.26300X0.00100*%
%ADD40R,0.26400X0.00100*%
%ADD41R,0.26500X0.00100*%
%ADD42R,0.05500X0.00100*%
%ADD43R,0.00400X0.00100*%
%ADD44R,0.02600X0.00100*%
%ADD45R,0.03200X0.00100*%
%ADD46R,0.02200X0.00100*%
%ADD47R,0.01900X0.00100*%
%ADD48R,0.01700X0.00100*%
%ADD49R,0.01500X0.00100*%
%ADD50R,0.01400X0.00100*%
%ADD51R,0.01300X0.00100*%
%ADD52R,0.01200X0.00100*%
%ADD53R,0.01100X0.00100*%
%ADD54R,0.01000X0.00100*%
%ADD55R,0.00900X0.00100*%
%ADD56R,0.00800X0.00100*%
%ADD57R,0.05400X0.00100*%
%ADD58R,0.05300X0.00100*%
%ADD59R,0.00700X0.00100*%
%ADD60R,0.05200X0.00100*%
%ADD61R,0.05100X0.00100*%
%ADD62R,0.00600X0.00100*%
%ADD63R,0.05000X0.00100*%
%ADD64R,0.04900X0.00100*%
%ADD65R,0.04800X0.00100*%
%ADD66R,0.00500X0.00100*%
%ADD67R,0.04700X0.00100*%
%ADD68R,0.04600X0.00100*%
%ADD69R,0.04500X0.00100*%
%ADD70R,0.04400X0.00100*%
%ADD71R,0.04300X0.00100*%
%ADD72R,0.04200X0.00100*%
%ADD73R,0.04100X0.00100*%
%ADD74R,0.04000X0.00100*%
%ADD75R,0.03900X0.00100*%
%ADD76R,0.03800X0.00100*%
%ADD77R,0.03700X0.00100*%
%ADD78R,0.03600X0.00100*%
%ADD79R,0.03500X0.00100*%
%ADD80R,0.03400X0.00100*%
%ADD81R,0.03300X0.00100*%
%ADD82R,0.10400X0.00100*%
%ADD83R,0.07200X0.00100*%
%ADD84R,0.06900X0.00100*%
%ADD85R,0.00300X0.00100*%
%ADD86R,0.03000X0.00100*%
%ADD87R,0.02500X0.00100*%
%ADD88R,0.02100X0.00100*%
%ADD89R,0.07100X0.00100*%
%ADD90R,0.07000X0.00100*%
%ADD91R,0.06800X0.00100*%
%ADD92R,0.01600X0.00100*%
%ADD93R,0.06700X0.00100*%
%ADD94R,0.06600X0.00100*%
%ADD95R,0.02000X0.00100*%
%ADD96R,0.06500X0.00100*%
%ADD97R,0.06400X0.00100*%
%ADD98R,0.06300X0.00100*%
%ADD99R,0.06200X0.00100*%
%ADD100R,0.06100X0.00100*%
%ADD101R,0.06000X0.00100*%
%ADD102R,0.05800X0.00100*%
%ADD103R,0.05700X0.00100*%
%ADD104R,0.01800X0.00100*%
%ADD105R,0.02300X0.00100*%
%ADD106R,0.02700X0.00100*%
%ADD107R,0.22300X0.00100*%
%ADD108R,0.22200X0.00100*%
%ADD109R,0.22100X0.00100*%
%ADD110R,0.22000X0.00100*%
%ADD111R,0.21900X0.00100*%
%ADD112R,0.21800X0.00100*%
%ADD113R,0.21700X0.00100*%
%ADD114R,0.21600X0.00100*%
%ADD115R,0.21500X0.00100*%
%ADD116R,0.21400X0.00100*%
%ADD117R,0.21300X0.00100*%
%ADD118R,0.21200X0.00100*%
%ADD119R,0.21100X0.00100*%
%ADD120R,0.21000X0.00100*%
%ADD121R,0.20900X0.00100*%
%ADD122R,0.20800X0.00100*%
%ADD123R,0.20700X0.00100*%
%ADD124R,0.20600X0.00100*%
%ADD125R,0.20500X0.00100*%
%ADD126R,0.20400X0.00100*%
%ADD127R,0.20300X0.00100*%
%ADD128R,0.20200X0.00100*%
%ADD129R,0.20100X0.00100*%
%ADD130R,0.20000X0.00100*%
%ADD131R,0.19900X0.00100*%
%ADD132R,0.19800X0.00100*%
%ADD133R,0.19700X0.00100*%
%ADD134R,0.19600X0.00100*%
%ADD135R,0.19500X0.00100*%
%ADD136R,0.19400X0.00100*%
%ADD137R,0.19300X0.00100*%
%ADD138R,0.19200X0.00100*%
%ADD139R,0.19000X0.00100*%
D10*
X0010594Y0070354D02*
X0009194Y0071754D01*
X0010394Y0073554D01*
X0010704Y0073829D02*
X0014078Y0073829D01*
X0014394Y0074354D02*
X0012894Y0071854D01*
X0012394Y0071854D01*
X0010894Y0070854D01*
X0009894Y0071854D01*
X0010894Y0073354D01*
X0009894Y0075854D01*
X0007894Y0076354D01*
X0007894Y0077854D01*
X0009894Y0077854D01*
X0010894Y0080354D01*
X0009394Y0082354D01*
X0010894Y0083354D01*
X0012394Y0081854D01*
X0014394Y0082854D01*
X0014894Y0084854D01*
X0016394Y0084854D01*
X0016894Y0082854D01*
X0018894Y0081854D01*
X0020894Y0083354D01*
X0021894Y0082354D01*
X0020894Y0080354D01*
X0021894Y0077854D01*
X0023894Y0077854D01*
X0023894Y0076354D01*
X0021394Y0075854D01*
X0020894Y0073354D01*
X0021894Y0071854D01*
X0020894Y0070854D01*
X0019394Y0071854D01*
X0018394Y0071354D01*
X0017394Y0074354D01*
X0018894Y0076354D01*
X0018394Y0078854D01*
X0016394Y0079854D01*
X0014394Y0079854D01*
X0012894Y0078354D01*
X0012894Y0075354D01*
X0014394Y0074354D01*
X0014284Y0074427D02*
X0010465Y0074427D01*
X0010225Y0075026D02*
X0013386Y0075026D01*
X0012894Y0075624D02*
X0009986Y0075624D01*
X0009594Y0075554D02*
X0007394Y0075954D01*
X0007394Y0077954D01*
X0009694Y0078354D01*
X0009959Y0078018D02*
X0012894Y0078018D01*
X0012894Y0077420D02*
X0007894Y0077420D01*
X0007894Y0076821D02*
X0012894Y0076821D01*
X0012894Y0076223D02*
X0008420Y0076223D01*
X0010199Y0078617D02*
X0013156Y0078617D01*
X0013755Y0079215D02*
X0010438Y0079215D01*
X0010678Y0079814D02*
X0014353Y0079814D01*
X0016475Y0079814D02*
X0021110Y0079814D01*
X0020994Y0080254D02*
X0022394Y0082154D01*
X0020994Y0083554D01*
X0018994Y0082254D01*
X0019365Y0082208D02*
X0021821Y0082208D01*
X0021521Y0081609D02*
X0009952Y0081609D01*
X0010401Y0081011D02*
X0021222Y0081011D01*
X0020923Y0080412D02*
X0010850Y0080412D01*
X0010494Y0080254D02*
X0009194Y0082154D01*
X0010594Y0083554D01*
X0012494Y0082254D01*
X0012040Y0082208D02*
X0009503Y0082208D01*
X0010072Y0082806D02*
X0011442Y0082806D01*
X0013101Y0082208D02*
X0018186Y0082208D01*
X0017194Y0082954D02*
X0016694Y0085354D01*
X0014794Y0085354D01*
X0014294Y0082954D01*
X0014298Y0082806D02*
X0016989Y0082806D01*
X0016756Y0083405D02*
X0014531Y0083405D01*
X0014681Y0084003D02*
X0016606Y0084003D01*
X0016457Y0084602D02*
X0014831Y0084602D01*
X0020163Y0082806D02*
X0021442Y0082806D01*
X0021349Y0079215D02*
X0017672Y0079215D01*
X0018441Y0078617D02*
X0021589Y0078617D01*
X0021894Y0078354D02*
X0024094Y0077954D01*
X0024094Y0075954D01*
X0021894Y0075554D01*
X0021348Y0075624D02*
X0018346Y0075624D01*
X0017897Y0075026D02*
X0021228Y0075026D01*
X0021108Y0074427D02*
X0017448Y0074427D01*
X0016994Y0074554D02*
X0018394Y0071154D01*
X0019194Y0071554D01*
X0020994Y0070354D01*
X0022394Y0071754D01*
X0021094Y0073554D01*
X0020989Y0073829D02*
X0017569Y0073829D01*
X0017768Y0073230D02*
X0020976Y0073230D01*
X0021375Y0072632D02*
X0017968Y0072632D01*
X0018167Y0072033D02*
X0021774Y0072033D01*
X0021474Y0071435D02*
X0020023Y0071435D01*
X0018555Y0071435D02*
X0018367Y0071435D01*
X0014594Y0074554D02*
X0013094Y0071154D01*
X0012394Y0071554D01*
X0010594Y0070354D01*
X0010313Y0071435D02*
X0011764Y0071435D01*
X0013001Y0072033D02*
X0010013Y0072033D01*
X0010412Y0072632D02*
X0013360Y0072632D01*
X0013719Y0073230D02*
X0010811Y0073230D01*
X0010418Y0073602D02*
X0010337Y0073730D01*
X0010258Y0073860D01*
X0010183Y0073991D01*
X0010112Y0074125D01*
X0010043Y0074260D01*
X0009978Y0074397D01*
X0009917Y0074535D01*
X0009858Y0074675D01*
X0009804Y0074817D01*
X0009752Y0074959D01*
X0009705Y0075103D01*
X0009661Y0075248D01*
X0009620Y0075394D01*
X0012518Y0082212D02*
X0012645Y0082286D01*
X0012774Y0082356D01*
X0012904Y0082424D01*
X0013036Y0082489D01*
X0013170Y0082550D01*
X0013305Y0082608D01*
X0013441Y0082664D01*
X0013578Y0082716D01*
X0013717Y0082764D01*
X0013857Y0082810D01*
X0013998Y0082852D01*
X0014139Y0082891D01*
X0014282Y0082926D01*
X0018561Y0078018D02*
X0021828Y0078018D01*
X0023894Y0077420D02*
X0018681Y0077420D01*
X0018800Y0076821D02*
X0023894Y0076821D01*
X0023236Y0076223D02*
X0018795Y0076223D01*
X0021912Y0078362D02*
X0021872Y0078505D01*
X0021829Y0078647D01*
X0021782Y0078788D01*
X0021731Y0078927D01*
X0021677Y0079065D01*
X0021620Y0079202D01*
X0021559Y0079338D01*
X0021496Y0079472D01*
X0021428Y0079604D01*
X0021358Y0079735D01*
X0021284Y0079863D01*
X0021207Y0079990D01*
X0021127Y0080115D01*
X0021044Y0080238D01*
X0016994Y0074554D02*
X0017086Y0074601D01*
X0017176Y0074652D01*
X0017264Y0074706D01*
X0017350Y0074763D01*
X0017433Y0074823D01*
X0017515Y0074887D01*
X0017593Y0074954D01*
X0017670Y0075023D01*
X0017743Y0075095D01*
X0017814Y0075171D01*
X0017882Y0075248D01*
X0017947Y0075329D01*
X0018009Y0075411D01*
X0018067Y0075496D01*
X0018123Y0075583D01*
X0018175Y0075672D01*
X0018223Y0075763D01*
X0018269Y0075856D01*
X0018310Y0075950D01*
X0018348Y0076046D01*
X0018383Y0076144D01*
X0018413Y0076242D01*
X0018440Y0076342D01*
X0018464Y0076442D01*
X0018483Y0076544D01*
X0018498Y0076646D01*
X0018510Y0076748D01*
X0018518Y0076851D01*
X0018522Y0076954D01*
X0018521Y0077058D01*
X0018517Y0077161D01*
X0018510Y0077264D01*
X0018498Y0077366D01*
X0018482Y0077468D01*
X0018463Y0077570D01*
X0018439Y0077670D01*
X0018412Y0077770D01*
X0018382Y0077868D01*
X0018347Y0077965D01*
X0018309Y0078061D01*
X0018267Y0078156D01*
X0018222Y0078248D01*
X0018173Y0078339D01*
X0018121Y0078428D01*
X0018065Y0078515D01*
X0018006Y0078600D01*
X0017944Y0078683D01*
X0017879Y0078763D01*
X0017811Y0078840D01*
X0017740Y0078915D01*
X0017667Y0078988D01*
X0017590Y0079057D01*
X0017511Y0079124D01*
X0017430Y0079187D01*
X0017346Y0079247D01*
X0017260Y0079304D01*
X0017172Y0079358D01*
X0017082Y0079409D01*
X0016990Y0079456D01*
X0016897Y0079499D01*
X0016802Y0079539D01*
X0016705Y0079575D01*
X0016607Y0079608D01*
X0016508Y0079637D01*
X0016408Y0079662D01*
X0016307Y0079683D01*
X0016205Y0079701D01*
X0016103Y0079714D01*
X0016000Y0079724D01*
X0015897Y0079730D01*
X0015794Y0079732D01*
X0015691Y0079730D01*
X0015588Y0079724D01*
X0015485Y0079714D01*
X0015383Y0079701D01*
X0015281Y0079683D01*
X0015180Y0079662D01*
X0015080Y0079637D01*
X0014981Y0079608D01*
X0014883Y0079575D01*
X0014786Y0079539D01*
X0014691Y0079499D01*
X0014598Y0079456D01*
X0014506Y0079409D01*
X0014416Y0079358D01*
X0014328Y0079304D01*
X0014242Y0079247D01*
X0014158Y0079187D01*
X0014077Y0079124D01*
X0013998Y0079057D01*
X0013921Y0078988D01*
X0013848Y0078915D01*
X0013777Y0078840D01*
X0013709Y0078763D01*
X0013644Y0078683D01*
X0013582Y0078600D01*
X0013523Y0078515D01*
X0013467Y0078428D01*
X0013415Y0078339D01*
X0013366Y0078248D01*
X0013321Y0078156D01*
X0013279Y0078061D01*
X0013241Y0077965D01*
X0013206Y0077868D01*
X0013176Y0077770D01*
X0013149Y0077670D01*
X0013125Y0077570D01*
X0013106Y0077468D01*
X0013090Y0077366D01*
X0013078Y0077264D01*
X0013071Y0077161D01*
X0013067Y0077058D01*
X0013066Y0076954D01*
X0013070Y0076851D01*
X0013078Y0076748D01*
X0013090Y0076646D01*
X0013105Y0076544D01*
X0013124Y0076442D01*
X0013148Y0076342D01*
X0013175Y0076242D01*
X0013205Y0076144D01*
X0013240Y0076046D01*
X0013278Y0075950D01*
X0013319Y0075856D01*
X0013365Y0075763D01*
X0013413Y0075672D01*
X0013465Y0075583D01*
X0013521Y0075496D01*
X0013579Y0075411D01*
X0013641Y0075329D01*
X0013706Y0075248D01*
X0013774Y0075171D01*
X0013845Y0075095D01*
X0013918Y0075023D01*
X0013995Y0074954D01*
X0014073Y0074887D01*
X0014155Y0074823D01*
X0014238Y0074763D01*
X0014324Y0074706D01*
X0014412Y0074652D01*
X0014502Y0074601D01*
X0014594Y0074554D01*
X0009675Y0078376D02*
X0009716Y0078529D01*
X0009760Y0078681D01*
X0009808Y0078831D01*
X0009859Y0078980D01*
X0009915Y0079128D01*
X0009974Y0079275D01*
X0010036Y0079420D01*
X0010103Y0079563D01*
X0010173Y0079705D01*
X0010246Y0079845D01*
X0010323Y0079982D01*
X0010404Y0080118D01*
X0010488Y0080252D01*
X0021884Y0075562D02*
X0021850Y0075412D01*
X0021813Y0075263D01*
X0021771Y0075115D01*
X0021727Y0074968D01*
X0021678Y0074822D01*
X0021626Y0074677D01*
X0021571Y0074534D01*
X0021512Y0074392D01*
X0021449Y0074251D01*
X0021383Y0074112D01*
X0021314Y0073975D01*
X0021241Y0073840D01*
X0021165Y0073706D01*
X0021086Y0073574D01*
X0018986Y0082254D02*
X0018857Y0082328D01*
X0018726Y0082400D01*
X0018593Y0082468D01*
X0018459Y0082533D01*
X0018324Y0082594D01*
X0018187Y0082653D01*
X0018048Y0082708D01*
X0017909Y0082760D01*
X0017768Y0082808D01*
X0017626Y0082853D01*
X0017483Y0082895D01*
X0017339Y0082933D01*
X0017194Y0082968D01*
D11*
X0054941Y0026663D03*
D12*
X0055041Y0026763D03*
X0055041Y0026863D03*
D13*
X0055141Y0026963D03*
D14*
X0055191Y0027063D03*
D15*
X0055241Y0027163D03*
D16*
X0055291Y0027263D03*
D17*
X0055341Y0027363D03*
D18*
X0055391Y0027463D03*
D19*
X0055441Y0027563D03*
D20*
X0055491Y0027663D03*
D21*
X0055541Y0027763D03*
D22*
X0055591Y0027863D03*
D23*
X0055641Y0027963D03*
D24*
X0055691Y0028063D03*
D25*
X0055741Y0028163D03*
D26*
X0055791Y0028263D03*
D27*
X0055841Y0028363D03*
D28*
X0055891Y0028463D03*
D29*
X0055941Y0028563D03*
D30*
X0055991Y0028663D03*
D31*
X0056041Y0028763D03*
D32*
X0056091Y0028863D03*
D33*
X0056141Y0028963D03*
D34*
X0056191Y0029063D03*
D35*
X0056241Y0029163D03*
D36*
X0056341Y0029263D03*
D37*
X0056391Y0029363D03*
D38*
X0056441Y0029463D03*
D39*
X0056491Y0029563D03*
D40*
X0056541Y0029663D03*
D41*
X0056591Y0029763D03*
D42*
X0047791Y0038163D03*
X0047791Y0038263D03*
X0067191Y0029863D03*
X0067291Y0029963D03*
X0067391Y0030063D03*
X0067491Y0030163D03*
X0067591Y0030263D03*
X0067691Y0030363D03*
X0067791Y0030463D03*
X0067891Y0030563D03*
X0067991Y0030663D03*
X0068091Y0030763D03*
X0068191Y0030863D03*
X0068291Y0030963D03*
D43*
X0064141Y0030963D03*
X0064141Y0031063D03*
X0064141Y0031163D03*
X0064141Y0031263D03*
X0064141Y0031363D03*
X0064141Y0031463D03*
X0064141Y0031563D03*
X0064141Y0031663D03*
X0064141Y0031763D03*
X0064141Y0031863D03*
X0064141Y0031963D03*
X0064141Y0032063D03*
X0064141Y0032163D03*
X0064141Y0032263D03*
X0064141Y0032363D03*
X0064141Y0032463D03*
X0064141Y0032563D03*
X0064141Y0032663D03*
X0064141Y0032763D03*
X0064141Y0032863D03*
X0064141Y0032963D03*
X0064141Y0033063D03*
X0064141Y0033163D03*
X0064141Y0030863D03*
X0064141Y0030763D03*
X0064141Y0030663D03*
X0064141Y0030563D03*
X0064141Y0030463D03*
X0064141Y0030363D03*
X0064141Y0030263D03*
X0064141Y0030163D03*
X0064141Y0030063D03*
X0064141Y0029963D03*
X0064141Y0029863D03*
X0064141Y0036563D03*
X0064141Y0036663D03*
X0064141Y0036763D03*
X0064141Y0036863D03*
X0064141Y0036963D03*
X0064141Y0037063D03*
X0064141Y0037163D03*
X0064141Y0037263D03*
X0064141Y0037363D03*
X0064141Y0037463D03*
X0064141Y0037563D03*
X0064141Y0037663D03*
X0064141Y0037763D03*
X0064141Y0037863D03*
X0064141Y0037963D03*
X0064141Y0038463D03*
X0064141Y0038563D03*
X0064141Y0038663D03*
X0064141Y0038763D03*
X0064141Y0038863D03*
X0064141Y0038963D03*
X0064141Y0039063D03*
X0064141Y0039163D03*
X0064141Y0039263D03*
X0064141Y0039363D03*
X0054141Y0039363D03*
X0054141Y0039463D03*
X0054141Y0039563D03*
X0054141Y0039663D03*
X0054141Y0039763D03*
X0054141Y0039863D03*
X0054141Y0039963D03*
X0054141Y0040063D03*
X0054141Y0040163D03*
X0054141Y0040263D03*
X0054141Y0040363D03*
X0054141Y0040463D03*
X0054141Y0040563D03*
X0054141Y0040663D03*
X0054141Y0040763D03*
X0054141Y0040863D03*
X0054141Y0040963D03*
X0054141Y0041063D03*
X0054141Y0041163D03*
X0054141Y0041263D03*
X0054141Y0041363D03*
X0054141Y0041463D03*
X0054141Y0041563D03*
X0054141Y0041663D03*
X0054141Y0039263D03*
X0054141Y0039163D03*
X0054141Y0039063D03*
X0054141Y0038963D03*
X0054141Y0038863D03*
X0054141Y0038763D03*
X0054141Y0038663D03*
X0054141Y0038563D03*
X0054141Y0035263D03*
X0054141Y0035163D03*
X0054141Y0035063D03*
X0054141Y0034963D03*
X0054141Y0034863D03*
X0054141Y0034763D03*
X0054141Y0034663D03*
X0054141Y0034563D03*
X0054141Y0034463D03*
X0054141Y0034363D03*
X0054141Y0034263D03*
X0054141Y0034163D03*
X0054141Y0034063D03*
X0054141Y0033963D03*
X0054141Y0033863D03*
X0054141Y0033763D03*
X0054141Y0033563D03*
X0054141Y0033163D03*
X0054141Y0033063D03*
X0054141Y0032963D03*
X0054141Y0032863D03*
X0054141Y0032763D03*
X0054141Y0032663D03*
X0054141Y0032563D03*
X0054141Y0032463D03*
X0054141Y0032363D03*
X0054141Y0032263D03*
X0054141Y0032163D03*
X0054141Y0032063D03*
X0054141Y0031963D03*
D44*
X0055241Y0029863D03*
X0055241Y0037463D03*
D45*
X0044941Y0029863D03*
X0044941Y0029963D03*
X0044941Y0030063D03*
X0044941Y0030163D03*
X0044941Y0030263D03*
X0044941Y0030363D03*
X0044941Y0030463D03*
X0044941Y0030563D03*
X0044941Y0030663D03*
X0044941Y0030763D03*
X0044941Y0030863D03*
X0044941Y0030963D03*
X0044941Y0031063D03*
X0044941Y0031163D03*
X0044941Y0031263D03*
X0044941Y0031363D03*
X0044941Y0031463D03*
X0044941Y0031563D03*
X0044941Y0031663D03*
X0044941Y0031763D03*
X0044941Y0031863D03*
X0044941Y0031963D03*
X0044941Y0032063D03*
X0044941Y0032163D03*
X0044941Y0032263D03*
X0044941Y0032363D03*
X0044941Y0032463D03*
X0044941Y0032563D03*
X0044941Y0032663D03*
X0044941Y0032763D03*
X0044941Y0032863D03*
X0044941Y0032963D03*
X0044941Y0033063D03*
D46*
X0055041Y0029963D03*
X0055041Y0037363D03*
D47*
X0063391Y0034563D03*
X0054891Y0030063D03*
D48*
X0054791Y0030163D03*
X0054791Y0037163D03*
X0063491Y0034663D03*
D49*
X0063591Y0034763D03*
X0063591Y0041163D03*
X0054691Y0030263D03*
D50*
X0054641Y0030363D03*
X0054641Y0036963D03*
X0063641Y0034863D03*
D51*
X0063691Y0034963D03*
X0063691Y0041063D03*
X0054591Y0036863D03*
X0054591Y0030463D03*
D52*
X0054541Y0030563D03*
X0054541Y0036763D03*
X0063741Y0035063D03*
X0063741Y0040963D03*
D53*
X0063791Y0040863D03*
X0063791Y0035163D03*
X0054491Y0036663D03*
X0054491Y0030663D03*
D54*
X0054441Y0030763D03*
X0054441Y0036563D03*
X0063841Y0035263D03*
X0063841Y0040663D03*
X0063841Y0040763D03*
D55*
X0063891Y0040563D03*
X0063891Y0035363D03*
X0054391Y0036363D03*
X0054391Y0036463D03*
X0054391Y0030863D03*
D56*
X0054341Y0030963D03*
X0054341Y0031063D03*
X0054341Y0036163D03*
X0054341Y0036263D03*
X0063941Y0035563D03*
X0063941Y0035463D03*
X0063941Y0040363D03*
X0063941Y0040463D03*
D57*
X0068341Y0031063D03*
D58*
X0068391Y0031163D03*
X0051091Y0041563D03*
X0050791Y0041263D03*
X0050691Y0041163D03*
X0050591Y0041063D03*
X0050491Y0040963D03*
X0050391Y0040863D03*
X0050291Y0040763D03*
X0050191Y0040663D03*
X0050091Y0040563D03*
X0049991Y0040463D03*
X0049891Y0040363D03*
X0049791Y0040263D03*
X0049691Y0040163D03*
X0049591Y0040063D03*
X0049491Y0039963D03*
X0049391Y0039863D03*
X0049291Y0039763D03*
X0049191Y0039663D03*
X0049091Y0039563D03*
X0048991Y0039463D03*
X0048891Y0039363D03*
X0048791Y0039263D03*
X0048691Y0039163D03*
X0048591Y0039063D03*
X0048491Y0038963D03*
X0048391Y0038863D03*
X0048291Y0038763D03*
X0048191Y0038663D03*
X0048091Y0038563D03*
X0047991Y0038463D03*
X0047891Y0038363D03*
D59*
X0054291Y0036063D03*
X0054291Y0035963D03*
X0054291Y0031263D03*
X0054291Y0031163D03*
X0063991Y0035663D03*
X0063991Y0035763D03*
X0063991Y0040163D03*
X0063991Y0040263D03*
D60*
X0068441Y0031263D03*
X0051241Y0041663D03*
X0051041Y0041463D03*
X0050941Y0041363D03*
D61*
X0068491Y0031363D03*
D62*
X0064041Y0035863D03*
X0064041Y0035963D03*
X0064041Y0036063D03*
X0064041Y0039863D03*
X0064041Y0039963D03*
X0064041Y0040063D03*
X0054241Y0035863D03*
X0054241Y0035763D03*
X0054241Y0031563D03*
X0054241Y0031463D03*
X0054241Y0031363D03*
D63*
X0068541Y0031463D03*
D64*
X0068591Y0031563D03*
D65*
X0068641Y0031663D03*
D66*
X0064091Y0036163D03*
X0064091Y0036263D03*
X0064091Y0036363D03*
X0064091Y0036463D03*
X0064091Y0039463D03*
X0064091Y0039563D03*
X0064091Y0039663D03*
X0064091Y0039763D03*
X0054191Y0035663D03*
X0054191Y0035563D03*
X0054191Y0035463D03*
X0054191Y0035363D03*
X0054191Y0031863D03*
X0054191Y0031763D03*
X0054191Y0031663D03*
D67*
X0068691Y0031763D03*
D68*
X0068741Y0031863D03*
D69*
X0068791Y0031963D03*
D70*
X0068841Y0032063D03*
D71*
X0068891Y0032163D03*
D72*
X0068941Y0032263D03*
D73*
X0068991Y0032363D03*
D74*
X0069041Y0032463D03*
D75*
X0069091Y0032563D03*
D76*
X0069141Y0032663D03*
D77*
X0069191Y0032763D03*
D78*
X0069241Y0032863D03*
D79*
X0069291Y0032963D03*
D80*
X0069341Y0033063D03*
D81*
X0069391Y0033163D03*
X0069391Y0033263D03*
X0069391Y0033363D03*
X0069391Y0033463D03*
X0069391Y0033563D03*
X0069391Y0033663D03*
X0069391Y0033763D03*
X0069391Y0033863D03*
X0069391Y0033963D03*
X0069391Y0034063D03*
X0069391Y0034163D03*
X0069391Y0034263D03*
X0069391Y0034363D03*
X0069391Y0034463D03*
X0069391Y0034563D03*
X0069391Y0034663D03*
X0069391Y0034763D03*
X0069391Y0034863D03*
X0069391Y0034963D03*
X0069391Y0035063D03*
X0069391Y0035163D03*
X0069391Y0035263D03*
X0069391Y0035363D03*
X0069391Y0035463D03*
X0069391Y0035563D03*
X0069391Y0035663D03*
X0069391Y0035763D03*
X0069391Y0035863D03*
X0069391Y0035963D03*
X0069391Y0036063D03*
X0069391Y0036163D03*
X0069391Y0036263D03*
X0069391Y0036363D03*
X0069391Y0036463D03*
X0069391Y0036563D03*
X0069391Y0036663D03*
X0069391Y0036763D03*
X0069391Y0036863D03*
X0069391Y0036963D03*
X0069391Y0037063D03*
X0069391Y0037163D03*
X0069391Y0037263D03*
X0069391Y0037363D03*
X0069391Y0037463D03*
X0069391Y0037563D03*
X0069391Y0037663D03*
X0069391Y0037763D03*
X0069391Y0037863D03*
X0069391Y0037963D03*
X0069391Y0038063D03*
X0069391Y0038163D03*
X0069391Y0038263D03*
X0069391Y0038363D03*
X0069391Y0038463D03*
X0069391Y0038563D03*
X0069391Y0038663D03*
X0069391Y0038763D03*
X0069391Y0038863D03*
X0069391Y0038963D03*
X0069391Y0039063D03*
X0069391Y0039163D03*
X0069391Y0039263D03*
X0069391Y0039363D03*
X0069391Y0039463D03*
X0069391Y0039563D03*
X0069391Y0039663D03*
X0069391Y0039763D03*
X0069391Y0039863D03*
X0069391Y0039963D03*
X0069391Y0040063D03*
X0069391Y0040163D03*
X0069391Y0040263D03*
X0069391Y0040363D03*
X0069391Y0040463D03*
X0069391Y0040563D03*
X0069391Y0040663D03*
X0069391Y0040763D03*
X0069391Y0040863D03*
X0069391Y0040963D03*
X0069391Y0041063D03*
X0069391Y0041163D03*
X0069391Y0041263D03*
X0069391Y0041363D03*
X0069391Y0041463D03*
X0069391Y0041563D03*
X0069391Y0041663D03*
X0044991Y0033163D03*
D82*
X0059141Y0033263D03*
X0059141Y0033363D03*
X0059141Y0033463D03*
X0059141Y0038063D03*
X0059141Y0038163D03*
X0059141Y0038263D03*
X0059141Y0038363D03*
D83*
X0046941Y0036563D03*
X0046941Y0036463D03*
X0046941Y0036363D03*
X0046941Y0036263D03*
X0046941Y0036163D03*
X0046941Y0036063D03*
X0046941Y0035963D03*
X0046941Y0035863D03*
X0046941Y0035763D03*
X0046941Y0035663D03*
X0046941Y0035563D03*
X0046941Y0035463D03*
X0046941Y0035363D03*
X0046941Y0035263D03*
X0046941Y0035163D03*
X0046941Y0035063D03*
X0046941Y0034963D03*
X0046941Y0034863D03*
X0046941Y0034763D03*
X0046941Y0034663D03*
X0046941Y0034563D03*
X0046941Y0034463D03*
X0046941Y0034363D03*
X0046941Y0034263D03*
X0046941Y0034163D03*
X0046941Y0034063D03*
X0046941Y0033963D03*
X0046941Y0033863D03*
X0046941Y0033763D03*
X0046941Y0033663D03*
X0046941Y0033563D03*
X0046941Y0033463D03*
X0046941Y0033363D03*
X0046941Y0033263D03*
D84*
X0047091Y0036863D03*
X0060891Y0034163D03*
X0060891Y0034063D03*
X0060891Y0033963D03*
X0060891Y0033863D03*
X0060891Y0033763D03*
X0060891Y0033663D03*
X0060891Y0033563D03*
D85*
X0054091Y0033663D03*
X0054091Y0038463D03*
D86*
X0062841Y0034263D03*
D87*
X0063091Y0034363D03*
D88*
X0063291Y0034463D03*
D89*
X0046991Y0036663D03*
D90*
X0047041Y0036763D03*
D91*
X0047141Y0036963D03*
X0057341Y0037563D03*
X0057341Y0037663D03*
X0057341Y0037763D03*
X0057341Y0037863D03*
X0057341Y0037963D03*
D92*
X0054741Y0037063D03*
X0063541Y0041263D03*
D93*
X0047191Y0037063D03*
D94*
X0047241Y0037163D03*
D95*
X0054941Y0037263D03*
X0063341Y0041463D03*
D96*
X0047291Y0037263D03*
D97*
X0047341Y0037363D03*
D98*
X0047391Y0037463D03*
D99*
X0047441Y0037563D03*
D100*
X0047491Y0037663D03*
D101*
X0047541Y0037763D03*
D102*
X0047641Y0037863D03*
X0047641Y0037963D03*
D103*
X0047691Y0038063D03*
D104*
X0063441Y0041363D03*
D105*
X0063191Y0041563D03*
D106*
X0062991Y0041663D03*
D107*
X0059891Y0041763D03*
D108*
X0059941Y0041863D03*
D109*
X0059991Y0041963D03*
D110*
X0060041Y0042063D03*
D111*
X0060091Y0042163D03*
D112*
X0060141Y0042263D03*
D113*
X0060191Y0042363D03*
D114*
X0060241Y0042463D03*
D115*
X0060291Y0042563D03*
D116*
X0060341Y0042663D03*
D117*
X0060391Y0042763D03*
D118*
X0060441Y0042863D03*
D119*
X0060491Y0042963D03*
D120*
X0060541Y0043063D03*
D121*
X0060591Y0043163D03*
D122*
X0060641Y0043263D03*
D123*
X0060691Y0043363D03*
D124*
X0060741Y0043463D03*
D125*
X0060791Y0043563D03*
D126*
X0060841Y0043663D03*
D127*
X0060891Y0043763D03*
D128*
X0060941Y0043863D03*
D129*
X0060991Y0043963D03*
D130*
X0061041Y0044063D03*
D131*
X0061091Y0044163D03*
D132*
X0061141Y0044263D03*
D133*
X0061191Y0044363D03*
D134*
X0061241Y0044463D03*
D135*
X0061291Y0044563D03*
D136*
X0061341Y0044663D03*
D137*
X0061391Y0044763D03*
D138*
X0061441Y0044863D03*
D139*
X0061541Y0044963D03*
M02*
