G75*
%MOIN*%
%OFA0B0*%
%FSLAX25Y25*%
%IPPOS*%
%LPD*%
%AMOC8*
5,1,8,0,0,1.08239X$1,22.5*
%
%ADD10C,0.00600*%
%ADD11R,0.23200X0.00100*%
%ADD12R,0.23400X0.00100*%
%ADD13R,0.23600X0.00100*%
%ADD14R,0.23700X0.00100*%
%ADD15R,0.23800X0.00100*%
%ADD16R,0.23900X0.00100*%
%ADD17R,0.24000X0.00100*%
%ADD18R,0.24100X0.00100*%
%ADD19R,0.24200X0.00100*%
%ADD20R,0.24300X0.00100*%
%ADD21R,0.24400X0.00100*%
%ADD22R,0.24500X0.00100*%
%ADD23R,0.24600X0.00100*%
%ADD24R,0.24700X0.00100*%
%ADD25R,0.24800X0.00100*%
%ADD26R,0.24900X0.00100*%
%ADD27R,0.25000X0.00100*%
%ADD28R,0.25100X0.00100*%
%ADD29R,0.25200X0.00100*%
%ADD30R,0.25300X0.00100*%
%ADD31R,0.25400X0.00100*%
%ADD32R,0.25500X0.00100*%
%ADD33R,0.25600X0.00100*%
%ADD34R,0.25700X0.00100*%
%ADD35R,0.25800X0.00100*%
%ADD36R,0.26000X0.00100*%
%ADD37R,0.26100X0.00100*%
%ADD38R,0.26200X0.00100*%
%ADD39R,0.26300X0.00100*%
%ADD40R,0.26400X0.00100*%
%ADD41R,0.26500X0.00100*%
%ADD42R,0.05500X0.00100*%
%ADD43R,0.00400X0.00100*%
%ADD44R,0.02600X0.00100*%
%ADD45R,0.03200X0.00100*%
%ADD46R,0.02200X0.00100*%
%ADD47R,0.01900X0.00100*%
%ADD48R,0.01700X0.00100*%
%ADD49R,0.01500X0.00100*%
%ADD50R,0.01400X0.00100*%
%ADD51R,0.01300X0.00100*%
%ADD52R,0.01200X0.00100*%
%ADD53R,0.01100X0.00100*%
%ADD54R,0.01000X0.00100*%
%ADD55R,0.00900X0.00100*%
%ADD56R,0.00800X0.00100*%
%ADD57R,0.05400X0.00100*%
%ADD58R,0.05300X0.00100*%
%ADD59R,0.00700X0.00100*%
%ADD60R,0.05200X0.00100*%
%ADD61R,0.05100X0.00100*%
%ADD62R,0.00600X0.00100*%
%ADD63R,0.05000X0.00100*%
%ADD64R,0.04900X0.00100*%
%ADD65R,0.04800X0.00100*%
%ADD66R,0.00500X0.00100*%
%ADD67R,0.04700X0.00100*%
%ADD68R,0.04600X0.00100*%
%ADD69R,0.04500X0.00100*%
%ADD70R,0.04400X0.00100*%
%ADD71R,0.04300X0.00100*%
%ADD72R,0.04200X0.00100*%
%ADD73R,0.04100X0.00100*%
%ADD74R,0.04000X0.00100*%
%ADD75R,0.03900X0.00100*%
%ADD76R,0.03800X0.00100*%
%ADD77R,0.03700X0.00100*%
%ADD78R,0.03600X0.00100*%
%ADD79R,0.03500X0.00100*%
%ADD80R,0.03400X0.00100*%
%ADD81R,0.03300X0.00100*%
%ADD82R,0.10400X0.00100*%
%ADD83R,0.07200X0.00100*%
%ADD84R,0.06900X0.00100*%
%ADD85R,0.00300X0.00100*%
%ADD86R,0.03000X0.00100*%
%ADD87R,0.02500X0.00100*%
%ADD88R,0.02100X0.00100*%
%ADD89R,0.07100X0.00100*%
%ADD90R,0.07000X0.00100*%
%ADD91R,0.06800X0.00100*%
%ADD92R,0.01600X0.00100*%
%ADD93R,0.06700X0.00100*%
%ADD94R,0.06600X0.00100*%
%ADD95R,0.02000X0.00100*%
%ADD96R,0.06500X0.00100*%
%ADD97R,0.06400X0.00100*%
%ADD98R,0.06300X0.00100*%
%ADD99R,0.06200X0.00100*%
%ADD100R,0.06100X0.00100*%
%ADD101R,0.06000X0.00100*%
%ADD102R,0.05800X0.00100*%
%ADD103R,0.05700X0.00100*%
%ADD104R,0.01800X0.00100*%
%ADD105R,0.02300X0.00100*%
%ADD106R,0.02700X0.00100*%
%ADD107R,0.22300X0.00100*%
%ADD108R,0.22200X0.00100*%
%ADD109R,0.22100X0.00100*%
%ADD110R,0.22000X0.00100*%
%ADD111R,0.21900X0.00100*%
%ADD112R,0.21800X0.00100*%
%ADD113R,0.21700X0.00100*%
%ADD114R,0.21600X0.00100*%
%ADD115R,0.21500X0.00100*%
%ADD116R,0.21400X0.00100*%
%ADD117R,0.21300X0.00100*%
%ADD118R,0.21200X0.00100*%
%ADD119R,0.21100X0.00100*%
%ADD120R,0.21000X0.00100*%
%ADD121R,0.20900X0.00100*%
%ADD122R,0.20800X0.00100*%
%ADD123R,0.20700X0.00100*%
%ADD124R,0.20600X0.00100*%
%ADD125R,0.20500X0.00100*%
%ADD126R,0.20400X0.00100*%
%ADD127R,0.20300X0.00100*%
%ADD128R,0.20200X0.00100*%
%ADD129R,0.20100X0.00100*%
%ADD130R,0.20000X0.00100*%
%ADD131R,0.19900X0.00100*%
%ADD132R,0.19800X0.00100*%
%ADD133R,0.19700X0.00100*%
%ADD134R,0.19600X0.00100*%
%ADD135R,0.19500X0.00100*%
%ADD136R,0.19400X0.00100*%
%ADD137R,0.19300X0.00100*%
%ADD138R,0.19200X0.00100*%
%ADD139R,0.19000X0.00100*%
D10*
X0030326Y0063024D02*
X0028926Y0064424D01*
X0030126Y0066224D01*
X0030380Y0066639D02*
X0033895Y0066639D01*
X0034126Y0067024D02*
X0032626Y0064524D01*
X0032126Y0064524D01*
X0030626Y0063524D01*
X0029626Y0064524D01*
X0030626Y0066024D01*
X0029626Y0068524D01*
X0027626Y0069024D01*
X0027626Y0070524D01*
X0029626Y0070524D01*
X0030626Y0073024D01*
X0029126Y0075024D01*
X0030626Y0076024D01*
X0032126Y0074524D01*
X0034126Y0075524D01*
X0034626Y0077524D01*
X0036126Y0077524D01*
X0036626Y0075524D01*
X0038626Y0074524D01*
X0040626Y0076024D01*
X0041626Y0075024D01*
X0040626Y0073024D01*
X0041626Y0070524D01*
X0043626Y0070524D01*
X0043626Y0069024D01*
X0041126Y0068524D01*
X0040626Y0066024D01*
X0041626Y0064524D01*
X0040626Y0063524D01*
X0039126Y0064524D01*
X0038126Y0064024D01*
X0037126Y0067024D01*
X0038626Y0069024D01*
X0038126Y0071524D01*
X0036126Y0072524D01*
X0034126Y0072524D01*
X0032626Y0071024D01*
X0032626Y0068024D01*
X0034126Y0067024D01*
X0034326Y0067224D02*
X0032826Y0063824D01*
X0032126Y0064224D01*
X0030326Y0063024D01*
X0030503Y0063647D02*
X0030811Y0063647D01*
X0031708Y0064245D02*
X0029904Y0064245D01*
X0029839Y0064844D02*
X0032818Y0064844D01*
X0033177Y0065442D02*
X0030238Y0065442D01*
X0030619Y0066041D02*
X0033536Y0066041D01*
X0033805Y0067238D02*
X0030140Y0067238D01*
X0029901Y0067836D02*
X0032907Y0067836D01*
X0032626Y0068435D02*
X0029662Y0068435D01*
X0029326Y0068224D02*
X0027126Y0068624D01*
X0027126Y0070624D01*
X0029426Y0071024D01*
X0029748Y0070829D02*
X0032626Y0070829D01*
X0032626Y0070230D02*
X0027626Y0070230D01*
X0027626Y0069632D02*
X0032626Y0069632D01*
X0032626Y0069033D02*
X0027626Y0069033D01*
X0029987Y0071427D02*
X0033030Y0071427D01*
X0033628Y0072026D02*
X0030227Y0072026D01*
X0030466Y0072624D02*
X0040786Y0072624D01*
X0040726Y0072924D02*
X0042126Y0074824D01*
X0040726Y0076224D01*
X0038726Y0074924D01*
X0039286Y0075018D02*
X0041623Y0075018D01*
X0041324Y0074420D02*
X0029579Y0074420D01*
X0030028Y0073821D02*
X0041025Y0073821D01*
X0040726Y0073223D02*
X0030477Y0073223D01*
X0030226Y0072924D02*
X0028926Y0074824D01*
X0030326Y0076224D01*
X0032226Y0074924D01*
X0031631Y0075018D02*
X0029130Y0075018D01*
X0030016Y0075617D02*
X0031033Y0075617D01*
X0033116Y0075018D02*
X0037636Y0075018D01*
X0036926Y0075624D02*
X0036426Y0078024D01*
X0034526Y0078024D01*
X0034026Y0075624D01*
X0034149Y0075617D02*
X0036603Y0075617D01*
X0036453Y0076215D02*
X0034299Y0076215D01*
X0034449Y0076814D02*
X0036303Y0076814D01*
X0036154Y0077412D02*
X0034598Y0077412D01*
X0040084Y0075617D02*
X0041033Y0075617D01*
X0041025Y0072026D02*
X0037122Y0072026D01*
X0038145Y0071427D02*
X0041265Y0071427D01*
X0041626Y0071024D02*
X0043826Y0070624D01*
X0043826Y0068624D01*
X0041626Y0068224D01*
X0041108Y0068435D02*
X0038184Y0068435D01*
X0038624Y0069033D02*
X0043626Y0069033D01*
X0043626Y0069632D02*
X0038504Y0069632D01*
X0038385Y0070230D02*
X0043626Y0070230D01*
X0041504Y0070829D02*
X0038265Y0070829D01*
X0040776Y0072907D02*
X0040859Y0072784D01*
X0040939Y0072659D01*
X0041016Y0072532D01*
X0041090Y0072404D01*
X0041160Y0072273D01*
X0041228Y0072141D01*
X0041291Y0072007D01*
X0041352Y0071871D01*
X0041409Y0071734D01*
X0041463Y0071596D01*
X0041514Y0071457D01*
X0041561Y0071316D01*
X0041604Y0071174D01*
X0041644Y0071031D01*
X0040989Y0067836D02*
X0037735Y0067836D01*
X0037287Y0067238D02*
X0040869Y0067238D01*
X0040749Y0066639D02*
X0037254Y0066639D01*
X0037454Y0066041D02*
X0040629Y0066041D01*
X0040826Y0066224D02*
X0042126Y0064424D01*
X0040726Y0063024D01*
X0038926Y0064224D01*
X0038126Y0063824D01*
X0036726Y0067224D01*
X0037653Y0065442D02*
X0041014Y0065442D01*
X0041413Y0064844D02*
X0037853Y0064844D01*
X0038052Y0064245D02*
X0038569Y0064245D01*
X0039544Y0064245D02*
X0041348Y0064245D01*
X0040749Y0063647D02*
X0040441Y0063647D01*
X0038718Y0074924D02*
X0038589Y0074998D01*
X0038458Y0075070D01*
X0038325Y0075138D01*
X0038191Y0075203D01*
X0038056Y0075264D01*
X0037919Y0075323D01*
X0037780Y0075378D01*
X0037641Y0075430D01*
X0037500Y0075478D01*
X0037358Y0075523D01*
X0037215Y0075565D01*
X0037071Y0075603D01*
X0036926Y0075638D01*
X0036726Y0067224D02*
X0036818Y0067271D01*
X0036908Y0067322D01*
X0036996Y0067376D01*
X0037082Y0067433D01*
X0037165Y0067493D01*
X0037247Y0067557D01*
X0037325Y0067624D01*
X0037402Y0067693D01*
X0037475Y0067765D01*
X0037546Y0067841D01*
X0037614Y0067918D01*
X0037679Y0067999D01*
X0037741Y0068081D01*
X0037799Y0068166D01*
X0037855Y0068253D01*
X0037907Y0068342D01*
X0037955Y0068433D01*
X0038001Y0068526D01*
X0038042Y0068620D01*
X0038080Y0068716D01*
X0038115Y0068814D01*
X0038145Y0068912D01*
X0038172Y0069012D01*
X0038196Y0069112D01*
X0038215Y0069214D01*
X0038230Y0069316D01*
X0038242Y0069418D01*
X0038250Y0069521D01*
X0038254Y0069624D01*
X0038253Y0069728D01*
X0038249Y0069831D01*
X0038242Y0069934D01*
X0038230Y0070036D01*
X0038214Y0070138D01*
X0038195Y0070240D01*
X0038171Y0070340D01*
X0038144Y0070440D01*
X0038114Y0070538D01*
X0038079Y0070635D01*
X0038041Y0070731D01*
X0037999Y0070826D01*
X0037954Y0070918D01*
X0037905Y0071009D01*
X0037853Y0071098D01*
X0037797Y0071185D01*
X0037738Y0071270D01*
X0037676Y0071353D01*
X0037611Y0071433D01*
X0037543Y0071510D01*
X0037472Y0071585D01*
X0037399Y0071658D01*
X0037322Y0071727D01*
X0037243Y0071794D01*
X0037162Y0071857D01*
X0037078Y0071917D01*
X0036992Y0071974D01*
X0036904Y0072028D01*
X0036814Y0072079D01*
X0036722Y0072126D01*
X0036629Y0072169D01*
X0036534Y0072209D01*
X0036437Y0072245D01*
X0036339Y0072278D01*
X0036240Y0072307D01*
X0036140Y0072332D01*
X0036039Y0072353D01*
X0035937Y0072371D01*
X0035835Y0072384D01*
X0035732Y0072394D01*
X0035629Y0072400D01*
X0035526Y0072402D01*
X0035423Y0072400D01*
X0035320Y0072394D01*
X0035217Y0072384D01*
X0035115Y0072371D01*
X0035013Y0072353D01*
X0034912Y0072332D01*
X0034812Y0072307D01*
X0034713Y0072278D01*
X0034615Y0072245D01*
X0034518Y0072209D01*
X0034423Y0072169D01*
X0034330Y0072126D01*
X0034238Y0072079D01*
X0034148Y0072028D01*
X0034060Y0071974D01*
X0033974Y0071917D01*
X0033890Y0071857D01*
X0033809Y0071794D01*
X0033730Y0071727D01*
X0033653Y0071658D01*
X0033580Y0071585D01*
X0033509Y0071510D01*
X0033441Y0071433D01*
X0033376Y0071353D01*
X0033314Y0071270D01*
X0033255Y0071185D01*
X0033199Y0071098D01*
X0033147Y0071009D01*
X0033098Y0070918D01*
X0033053Y0070826D01*
X0033011Y0070731D01*
X0032973Y0070635D01*
X0032938Y0070538D01*
X0032908Y0070440D01*
X0032881Y0070340D01*
X0032857Y0070240D01*
X0032838Y0070138D01*
X0032822Y0070036D01*
X0032810Y0069934D01*
X0032803Y0069831D01*
X0032799Y0069728D01*
X0032798Y0069624D01*
X0032802Y0069521D01*
X0032810Y0069418D01*
X0032822Y0069316D01*
X0032837Y0069214D01*
X0032856Y0069112D01*
X0032880Y0069012D01*
X0032907Y0068912D01*
X0032937Y0068814D01*
X0032972Y0068716D01*
X0033010Y0068620D01*
X0033051Y0068526D01*
X0033097Y0068433D01*
X0033145Y0068342D01*
X0033197Y0068253D01*
X0033253Y0068166D01*
X0033311Y0068081D01*
X0033373Y0067999D01*
X0033438Y0067918D01*
X0033506Y0067841D01*
X0033577Y0067765D01*
X0033650Y0067693D01*
X0033727Y0067624D01*
X0033805Y0067557D01*
X0033887Y0067493D01*
X0033970Y0067433D01*
X0034056Y0067376D01*
X0034144Y0067322D01*
X0034234Y0067271D01*
X0034326Y0067224D01*
X0032250Y0074882D02*
X0032377Y0074956D01*
X0032506Y0075026D01*
X0032636Y0075094D01*
X0032768Y0075159D01*
X0032902Y0075220D01*
X0033037Y0075278D01*
X0033173Y0075334D01*
X0033310Y0075386D01*
X0033449Y0075434D01*
X0033589Y0075480D01*
X0033730Y0075522D01*
X0033871Y0075561D01*
X0034014Y0075596D01*
X0029352Y0068064D02*
X0029393Y0067918D01*
X0029437Y0067773D01*
X0029484Y0067629D01*
X0029536Y0067487D01*
X0029590Y0067345D01*
X0029649Y0067205D01*
X0029710Y0067067D01*
X0029775Y0066930D01*
X0029844Y0066795D01*
X0029915Y0066661D01*
X0029990Y0066530D01*
X0030069Y0066400D01*
X0030150Y0066272D01*
X0029407Y0071045D02*
X0029448Y0071198D01*
X0029492Y0071350D01*
X0029540Y0071500D01*
X0029591Y0071649D01*
X0029647Y0071797D01*
X0029706Y0071944D01*
X0029768Y0072089D01*
X0029835Y0072232D01*
X0029905Y0072374D01*
X0029978Y0072514D01*
X0030055Y0072651D01*
X0030136Y0072787D01*
X0030220Y0072921D01*
X0041616Y0068231D02*
X0041582Y0068081D01*
X0041545Y0067932D01*
X0041503Y0067784D01*
X0041459Y0067637D01*
X0041410Y0067491D01*
X0041358Y0067346D01*
X0041303Y0067203D01*
X0041244Y0067061D01*
X0041181Y0066920D01*
X0041115Y0066781D01*
X0041046Y0066644D01*
X0040973Y0066509D01*
X0040897Y0066375D01*
X0040818Y0066243D01*
D11*
X0054004Y0006537D03*
D12*
X0054104Y0006637D03*
X0054104Y0006737D03*
D13*
X0054204Y0006837D03*
D14*
X0054254Y0006937D03*
D15*
X0054304Y0007037D03*
D16*
X0054354Y0007137D03*
D17*
X0054404Y0007237D03*
D18*
X0054454Y0007337D03*
D19*
X0054504Y0007437D03*
D20*
X0054554Y0007537D03*
D21*
X0054604Y0007637D03*
D22*
X0054654Y0007737D03*
D23*
X0054704Y0007837D03*
D24*
X0054754Y0007937D03*
D25*
X0054804Y0008037D03*
D26*
X0054854Y0008137D03*
D27*
X0054904Y0008237D03*
D28*
X0054954Y0008337D03*
D29*
X0055004Y0008437D03*
D30*
X0055054Y0008537D03*
D31*
X0055104Y0008637D03*
D32*
X0055154Y0008737D03*
D33*
X0055204Y0008837D03*
D34*
X0055254Y0008937D03*
D35*
X0055304Y0009037D03*
D36*
X0055404Y0009137D03*
D37*
X0055454Y0009237D03*
D38*
X0055504Y0009337D03*
D39*
X0055554Y0009437D03*
D40*
X0055604Y0009537D03*
D41*
X0055654Y0009637D03*
D42*
X0066254Y0009737D03*
X0066354Y0009837D03*
X0066454Y0009937D03*
X0066554Y0010037D03*
X0066654Y0010137D03*
X0066754Y0010237D03*
X0066854Y0010337D03*
X0066954Y0010437D03*
X0067054Y0010537D03*
X0067154Y0010637D03*
X0067254Y0010737D03*
X0067354Y0010837D03*
X0046854Y0018037D03*
X0046854Y0018137D03*
D43*
X0053204Y0018437D03*
X0053204Y0018537D03*
X0053204Y0018637D03*
X0053204Y0018737D03*
X0053204Y0018837D03*
X0053204Y0018937D03*
X0053204Y0019037D03*
X0053204Y0019137D03*
X0053204Y0019237D03*
X0053204Y0019337D03*
X0053204Y0019437D03*
X0053204Y0019537D03*
X0053204Y0019637D03*
X0053204Y0019737D03*
X0053204Y0019837D03*
X0053204Y0019937D03*
X0053204Y0020037D03*
X0053204Y0020137D03*
X0053204Y0020237D03*
X0053204Y0020337D03*
X0053204Y0020437D03*
X0053204Y0020537D03*
X0053204Y0020637D03*
X0053204Y0020737D03*
X0053204Y0020837D03*
X0053204Y0020937D03*
X0053204Y0021037D03*
X0053204Y0021137D03*
X0053204Y0021237D03*
X0053204Y0021337D03*
X0053204Y0021437D03*
X0053204Y0021537D03*
X0053204Y0015137D03*
X0053204Y0015037D03*
X0053204Y0014937D03*
X0053204Y0014837D03*
X0053204Y0014737D03*
X0053204Y0014637D03*
X0053204Y0014537D03*
X0053204Y0014437D03*
X0053204Y0014337D03*
X0053204Y0014237D03*
X0053204Y0014137D03*
X0053204Y0014037D03*
X0053204Y0013937D03*
X0053204Y0013837D03*
X0053204Y0013737D03*
X0053204Y0013637D03*
X0053204Y0013437D03*
X0053204Y0013037D03*
X0053204Y0012937D03*
X0053204Y0012837D03*
X0053204Y0012737D03*
X0053204Y0012637D03*
X0053204Y0012537D03*
X0053204Y0012437D03*
X0053204Y0012337D03*
X0053204Y0012237D03*
X0053204Y0012137D03*
X0053204Y0012037D03*
X0053204Y0011937D03*
X0053204Y0011837D03*
X0063204Y0011837D03*
X0063204Y0011737D03*
X0063204Y0011637D03*
X0063204Y0011537D03*
X0063204Y0011437D03*
X0063204Y0011337D03*
X0063204Y0011237D03*
X0063204Y0011137D03*
X0063204Y0011037D03*
X0063204Y0010937D03*
X0063204Y0010837D03*
X0063204Y0010737D03*
X0063204Y0010637D03*
X0063204Y0010537D03*
X0063204Y0010437D03*
X0063204Y0010337D03*
X0063204Y0010237D03*
X0063204Y0010137D03*
X0063204Y0010037D03*
X0063204Y0009937D03*
X0063204Y0009837D03*
X0063204Y0009737D03*
X0063204Y0011937D03*
X0063204Y0012037D03*
X0063204Y0012137D03*
X0063204Y0012237D03*
X0063204Y0012337D03*
X0063204Y0012437D03*
X0063204Y0012537D03*
X0063204Y0012637D03*
X0063204Y0012737D03*
X0063204Y0012837D03*
X0063204Y0012937D03*
X0063204Y0013037D03*
X0063204Y0016437D03*
X0063204Y0016537D03*
X0063204Y0016637D03*
X0063204Y0016737D03*
X0063204Y0016837D03*
X0063204Y0016937D03*
X0063204Y0017037D03*
X0063204Y0017137D03*
X0063204Y0017237D03*
X0063204Y0017337D03*
X0063204Y0017437D03*
X0063204Y0017537D03*
X0063204Y0017637D03*
X0063204Y0017737D03*
X0063204Y0017837D03*
X0063204Y0018337D03*
X0063204Y0018437D03*
X0063204Y0018537D03*
X0063204Y0018637D03*
X0063204Y0018737D03*
X0063204Y0018837D03*
X0063204Y0018937D03*
X0063204Y0019037D03*
X0063204Y0019137D03*
X0063204Y0019237D03*
D44*
X0054304Y0017337D03*
X0054304Y0009737D03*
D45*
X0044004Y0009737D03*
X0044004Y0009837D03*
X0044004Y0009937D03*
X0044004Y0010037D03*
X0044004Y0010137D03*
X0044004Y0010237D03*
X0044004Y0010337D03*
X0044004Y0010437D03*
X0044004Y0010537D03*
X0044004Y0010637D03*
X0044004Y0010737D03*
X0044004Y0010837D03*
X0044004Y0010937D03*
X0044004Y0011037D03*
X0044004Y0011137D03*
X0044004Y0011237D03*
X0044004Y0011337D03*
X0044004Y0011437D03*
X0044004Y0011537D03*
X0044004Y0011637D03*
X0044004Y0011737D03*
X0044004Y0011837D03*
X0044004Y0011937D03*
X0044004Y0012037D03*
X0044004Y0012137D03*
X0044004Y0012237D03*
X0044004Y0012337D03*
X0044004Y0012437D03*
X0044004Y0012537D03*
X0044004Y0012637D03*
X0044004Y0012737D03*
X0044004Y0012837D03*
X0044004Y0012937D03*
D46*
X0054104Y0009837D03*
X0054104Y0017237D03*
D47*
X0062454Y0014437D03*
X0053954Y0009937D03*
D48*
X0053854Y0010037D03*
X0062554Y0014537D03*
X0053854Y0017037D03*
D49*
X0053754Y0010137D03*
X0062654Y0014637D03*
X0062654Y0021037D03*
D50*
X0062704Y0014737D03*
X0053704Y0016837D03*
X0053704Y0010237D03*
D51*
X0053654Y0010337D03*
X0053654Y0016737D03*
X0062754Y0014837D03*
X0062754Y0020937D03*
D52*
X0062804Y0020837D03*
X0062804Y0014937D03*
X0053604Y0016637D03*
X0053604Y0010437D03*
D53*
X0053554Y0010537D03*
X0053554Y0016537D03*
X0062854Y0015037D03*
X0062854Y0020737D03*
D54*
X0062904Y0020637D03*
X0062904Y0020537D03*
X0062904Y0015137D03*
X0053504Y0016437D03*
X0053504Y0010637D03*
D55*
X0053454Y0010737D03*
X0053454Y0016237D03*
X0053454Y0016337D03*
X0062954Y0015237D03*
X0062954Y0020437D03*
D56*
X0063004Y0020337D03*
X0063004Y0020237D03*
X0063004Y0015437D03*
X0063004Y0015337D03*
X0053404Y0016037D03*
X0053404Y0016137D03*
X0053404Y0010937D03*
X0053404Y0010837D03*
D57*
X0067404Y0010937D03*
D58*
X0067454Y0011037D03*
X0050154Y0021437D03*
X0049854Y0021137D03*
X0049754Y0021037D03*
X0049654Y0020937D03*
X0049554Y0020837D03*
X0049454Y0020737D03*
X0049354Y0020637D03*
X0049254Y0020537D03*
X0049154Y0020437D03*
X0049054Y0020337D03*
X0048954Y0020237D03*
X0048854Y0020137D03*
X0048754Y0020037D03*
X0048654Y0019937D03*
X0048554Y0019837D03*
X0048454Y0019737D03*
X0048354Y0019637D03*
X0048254Y0019537D03*
X0048154Y0019437D03*
X0048054Y0019337D03*
X0047954Y0019237D03*
X0047854Y0019137D03*
X0047754Y0019037D03*
X0047654Y0018937D03*
X0047554Y0018837D03*
X0047454Y0018737D03*
X0047354Y0018637D03*
X0047254Y0018537D03*
X0047154Y0018437D03*
X0047054Y0018337D03*
X0046954Y0018237D03*
D59*
X0053354Y0015937D03*
X0053354Y0015837D03*
X0053354Y0011137D03*
X0053354Y0011037D03*
X0063054Y0015537D03*
X0063054Y0015637D03*
X0063054Y0020037D03*
X0063054Y0020137D03*
D60*
X0067504Y0011137D03*
X0050304Y0021537D03*
X0050104Y0021337D03*
X0050004Y0021237D03*
D61*
X0067554Y0011237D03*
D62*
X0063104Y0015737D03*
X0063104Y0015837D03*
X0063104Y0015937D03*
X0063104Y0019737D03*
X0063104Y0019837D03*
X0063104Y0019937D03*
X0053304Y0015737D03*
X0053304Y0015637D03*
X0053304Y0011437D03*
X0053304Y0011337D03*
X0053304Y0011237D03*
D63*
X0067604Y0011337D03*
D64*
X0067654Y0011437D03*
D65*
X0067704Y0011537D03*
D66*
X0063154Y0016037D03*
X0063154Y0016137D03*
X0063154Y0016237D03*
X0063154Y0016337D03*
X0063154Y0019337D03*
X0063154Y0019437D03*
X0063154Y0019537D03*
X0063154Y0019637D03*
X0053254Y0015537D03*
X0053254Y0015437D03*
X0053254Y0015337D03*
X0053254Y0015237D03*
X0053254Y0011737D03*
X0053254Y0011637D03*
X0053254Y0011537D03*
D67*
X0067754Y0011637D03*
D68*
X0067804Y0011737D03*
D69*
X0067854Y0011837D03*
D70*
X0067904Y0011937D03*
D71*
X0067954Y0012037D03*
D72*
X0068004Y0012137D03*
D73*
X0068054Y0012237D03*
D74*
X0068104Y0012337D03*
D75*
X0068154Y0012437D03*
D76*
X0068204Y0012537D03*
D77*
X0068254Y0012637D03*
D78*
X0068304Y0012737D03*
D79*
X0068354Y0012837D03*
D80*
X0068404Y0012937D03*
D81*
X0068454Y0013037D03*
X0068454Y0013137D03*
X0068454Y0013237D03*
X0068454Y0013337D03*
X0068454Y0013437D03*
X0068454Y0013537D03*
X0068454Y0013637D03*
X0068454Y0013737D03*
X0068454Y0013837D03*
X0068454Y0013937D03*
X0068454Y0014037D03*
X0068454Y0014137D03*
X0068454Y0014237D03*
X0068454Y0014337D03*
X0068454Y0014437D03*
X0068454Y0014537D03*
X0068454Y0014637D03*
X0068454Y0014737D03*
X0068454Y0014837D03*
X0068454Y0014937D03*
X0068454Y0015037D03*
X0068454Y0015137D03*
X0068454Y0015237D03*
X0068454Y0015337D03*
X0068454Y0015437D03*
X0068454Y0015537D03*
X0068454Y0015637D03*
X0068454Y0015737D03*
X0068454Y0015837D03*
X0068454Y0015937D03*
X0068454Y0016037D03*
X0068454Y0016137D03*
X0068454Y0016237D03*
X0068454Y0016337D03*
X0068454Y0016437D03*
X0068454Y0016537D03*
X0068454Y0016637D03*
X0068454Y0016737D03*
X0068454Y0016837D03*
X0068454Y0016937D03*
X0068454Y0017037D03*
X0068454Y0017137D03*
X0068454Y0017237D03*
X0068454Y0017337D03*
X0068454Y0017437D03*
X0068454Y0017537D03*
X0068454Y0017637D03*
X0068454Y0017737D03*
X0068454Y0017837D03*
X0068454Y0017937D03*
X0068454Y0018037D03*
X0068454Y0018137D03*
X0068454Y0018237D03*
X0068454Y0018337D03*
X0068454Y0018437D03*
X0068454Y0018537D03*
X0068454Y0018637D03*
X0068454Y0018737D03*
X0068454Y0018837D03*
X0068454Y0018937D03*
X0068454Y0019037D03*
X0068454Y0019137D03*
X0068454Y0019237D03*
X0068454Y0019337D03*
X0068454Y0019437D03*
X0068454Y0019537D03*
X0068454Y0019637D03*
X0068454Y0019737D03*
X0068454Y0019837D03*
X0068454Y0019937D03*
X0068454Y0020037D03*
X0068454Y0020137D03*
X0068454Y0020237D03*
X0068454Y0020337D03*
X0068454Y0020437D03*
X0068454Y0020537D03*
X0068454Y0020637D03*
X0068454Y0020737D03*
X0068454Y0020837D03*
X0068454Y0020937D03*
X0068454Y0021037D03*
X0068454Y0021137D03*
X0068454Y0021237D03*
X0068454Y0021337D03*
X0068454Y0021437D03*
X0068454Y0021537D03*
X0044054Y0013037D03*
D82*
X0058204Y0013137D03*
X0058204Y0013237D03*
X0058204Y0013337D03*
X0058204Y0017937D03*
X0058204Y0018037D03*
X0058204Y0018137D03*
X0058204Y0018237D03*
D83*
X0046004Y0016437D03*
X0046004Y0016337D03*
X0046004Y0016237D03*
X0046004Y0016137D03*
X0046004Y0016037D03*
X0046004Y0015937D03*
X0046004Y0015837D03*
X0046004Y0015737D03*
X0046004Y0015637D03*
X0046004Y0015537D03*
X0046004Y0015437D03*
X0046004Y0015337D03*
X0046004Y0015237D03*
X0046004Y0015137D03*
X0046004Y0015037D03*
X0046004Y0014937D03*
X0046004Y0014837D03*
X0046004Y0014737D03*
X0046004Y0014637D03*
X0046004Y0014537D03*
X0046004Y0014437D03*
X0046004Y0014337D03*
X0046004Y0014237D03*
X0046004Y0014137D03*
X0046004Y0014037D03*
X0046004Y0013937D03*
X0046004Y0013837D03*
X0046004Y0013737D03*
X0046004Y0013637D03*
X0046004Y0013537D03*
X0046004Y0013437D03*
X0046004Y0013337D03*
X0046004Y0013237D03*
X0046004Y0013137D03*
D84*
X0046154Y0016737D03*
X0059954Y0014037D03*
X0059954Y0013937D03*
X0059954Y0013837D03*
X0059954Y0013737D03*
X0059954Y0013637D03*
X0059954Y0013537D03*
X0059954Y0013437D03*
D85*
X0053154Y0013537D03*
X0053154Y0018337D03*
D86*
X0061904Y0014137D03*
D87*
X0062154Y0014237D03*
D88*
X0062354Y0014337D03*
D89*
X0046054Y0016537D03*
D90*
X0046104Y0016637D03*
D91*
X0046204Y0016837D03*
X0056404Y0017437D03*
X0056404Y0017537D03*
X0056404Y0017637D03*
X0056404Y0017737D03*
X0056404Y0017837D03*
D92*
X0053804Y0016937D03*
X0062604Y0021137D03*
D93*
X0046254Y0016937D03*
D94*
X0046304Y0017037D03*
D95*
X0054004Y0017137D03*
X0062404Y0021337D03*
D96*
X0046354Y0017137D03*
D97*
X0046404Y0017237D03*
D98*
X0046454Y0017337D03*
D99*
X0046504Y0017437D03*
D100*
X0046554Y0017537D03*
D101*
X0046604Y0017637D03*
D102*
X0046704Y0017737D03*
X0046704Y0017837D03*
D103*
X0046754Y0017937D03*
D104*
X0062504Y0021237D03*
D105*
X0062254Y0021437D03*
D106*
X0062054Y0021537D03*
D107*
X0058954Y0021637D03*
D108*
X0059004Y0021737D03*
D109*
X0059054Y0021837D03*
D110*
X0059104Y0021937D03*
D111*
X0059154Y0022037D03*
D112*
X0059204Y0022137D03*
D113*
X0059254Y0022237D03*
D114*
X0059304Y0022337D03*
D115*
X0059354Y0022437D03*
D116*
X0059404Y0022537D03*
D117*
X0059454Y0022637D03*
D118*
X0059504Y0022737D03*
D119*
X0059554Y0022837D03*
D120*
X0059604Y0022937D03*
D121*
X0059654Y0023037D03*
D122*
X0059704Y0023137D03*
D123*
X0059754Y0023237D03*
D124*
X0059804Y0023337D03*
D125*
X0059854Y0023437D03*
D126*
X0059904Y0023537D03*
D127*
X0059954Y0023637D03*
D128*
X0060004Y0023737D03*
D129*
X0060054Y0023837D03*
D130*
X0060104Y0023937D03*
D131*
X0060154Y0024037D03*
D132*
X0060204Y0024137D03*
D133*
X0060254Y0024237D03*
D134*
X0060304Y0024337D03*
D135*
X0060354Y0024437D03*
D136*
X0060404Y0024537D03*
D137*
X0060454Y0024637D03*
D138*
X0060504Y0024737D03*
D139*
X0060604Y0024837D03*
M02*
