G75*
%MOIN*%
%OFA0B0*%
%FSLAX25Y25*%
%IPPOS*%
%LPD*%
%AMOC8*
5,1,8,0,0,1.08239X$1,22.5*
%
%ADD10C,0.01000*%
%ADD11R,0.00100X0.00100*%
%ADD12R,0.00500X0.00100*%
%ADD13R,0.00400X0.00100*%
%ADD14R,0.00600X0.00100*%
%ADD15R,0.00700X0.00100*%
%ADD16R,0.00800X0.00100*%
%ADD17R,0.00900X0.00100*%
%ADD18R,0.01200X0.00100*%
%ADD19R,0.01900X0.00100*%
%ADD20R,0.01000X0.00100*%
%ADD21R,0.01300X0.00100*%
%ADD22R,0.02500X0.00100*%
%ADD23R,0.01100X0.00100*%
%ADD24R,0.02300X0.00100*%
%ADD25R,0.02900X0.00100*%
%ADD26R,0.02800X0.00100*%
%ADD27R,0.03300X0.00100*%
%ADD28R,0.03100X0.00100*%
%ADD29R,0.03500X0.00100*%
%ADD30R,0.03400X0.00100*%
%ADD31R,0.03700X0.00100*%
%ADD32R,0.01400X0.00100*%
%ADD33R,0.02600X0.00100*%
%ADD34R,0.01700X0.00100*%
%ADD35R,0.01500X0.00100*%
%ADD36R,0.01600X0.00100*%
%ADD37R,0.00200X0.00100*%
%ADD38R,0.01800X0.00100*%
%ADD39R,0.02100X0.00100*%
%ADD40R,0.02200X0.00100*%
%ADD41R,0.02000X0.00100*%
%ADD42R,0.02400X0.00100*%
%ADD43R,0.02700X0.00100*%
%ADD44R,0.00300X0.00100*%
%ADD45R,0.06400X0.00100*%
%ADD46R,0.04200X0.00100*%
%ADD47R,0.04300X0.00100*%
%ADD48R,0.04100X0.00100*%
%ADD49R,0.03000X0.00100*%
%ADD50R,0.03200X0.00100*%
%ADD51R,0.03600X0.00100*%
%ADD52R,0.05000X0.00100*%
%ADD53R,0.06700X0.00100*%
%ADD54R,0.06600X0.00100*%
%ADD55R,0.06500X0.00100*%
%ADD56R,0.05100X0.00100*%
%ADD57R,0.07300X0.00100*%
%ADD58R,0.06800X0.00100*%
D10*
X0054583Y0026063D02*
X0059307Y0026063D01*
X0060094Y0030394D02*
X0060094Y0033150D01*
X0059307Y0037480D02*
X0054583Y0037480D01*
D11*
X0046616Y0051943D03*
X0041616Y0056643D03*
X0041916Y0057643D03*
X0057816Y0060743D03*
X0055116Y0073743D03*
X0050216Y0075743D03*
X0061316Y0075143D03*
X0062216Y0076743D03*
X0078312Y0056994D03*
D12*
X0077612Y0056994D03*
X0072616Y0055643D03*
X0070016Y0051943D03*
X0066916Y0056243D03*
X0059516Y0061443D03*
X0057816Y0060943D03*
X0057816Y0060843D03*
X0056716Y0055843D03*
X0054516Y0053543D03*
X0049916Y0055943D03*
X0046616Y0052043D03*
X0042416Y0052543D03*
X0041616Y0056543D03*
X0041816Y0057843D03*
X0041716Y0058343D03*
X0049616Y0064443D03*
X0057916Y0070043D03*
X0059316Y0068443D03*
X0061316Y0075243D03*
X0057816Y0076943D03*
X0050216Y0075643D03*
X0050216Y0073443D03*
X0082212Y0059494D03*
D13*
X0072566Y0055543D03*
X0064866Y0058243D03*
X0056666Y0055943D03*
X0057766Y0052143D03*
X0061966Y0052143D03*
X0049366Y0052043D03*
X0044266Y0052543D03*
X0042466Y0052443D03*
X0047666Y0056143D03*
X0041866Y0057743D03*
X0048666Y0061043D03*
X0049666Y0061443D03*
X0052366Y0060743D03*
X0059266Y0068543D03*
X0050366Y0074943D03*
X0030767Y0055294D03*
D14*
X0030767Y0055394D03*
X0031067Y0059294D03*
X0041666Y0058243D03*
X0041666Y0056443D03*
X0041666Y0054143D03*
X0042366Y0052743D03*
X0042366Y0052643D03*
X0044266Y0052643D03*
X0046566Y0052143D03*
X0049366Y0052143D03*
X0047666Y0056043D03*
X0048566Y0061143D03*
X0048266Y0061743D03*
X0048166Y0062043D03*
X0049666Y0061643D03*
X0049666Y0061543D03*
X0052166Y0062543D03*
X0052166Y0062643D03*
X0052166Y0062743D03*
X0052066Y0063143D03*
X0052066Y0063243D03*
X0051966Y0063543D03*
X0051866Y0063743D03*
X0051766Y0063943D03*
X0049666Y0064143D03*
X0049666Y0064243D03*
X0049666Y0064343D03*
X0047466Y0063843D03*
X0047366Y0064043D03*
X0044466Y0062243D03*
X0044466Y0062143D03*
X0052366Y0060843D03*
X0054066Y0062043D03*
X0054066Y0062143D03*
X0054066Y0062243D03*
X0054166Y0061943D03*
X0057166Y0062043D03*
X0057666Y0061243D03*
X0057766Y0061143D03*
X0057766Y0061043D03*
X0060966Y0062143D03*
X0060966Y0062243D03*
X0060966Y0062343D03*
X0060966Y0062443D03*
X0061066Y0061943D03*
X0061666Y0059143D03*
X0061666Y0059043D03*
X0064966Y0058143D03*
X0065466Y0061543D03*
X0068266Y0061443D03*
X0067866Y0064443D03*
X0062566Y0064643D03*
X0059366Y0068343D03*
X0053566Y0070243D03*
X0050866Y0069343D03*
X0055066Y0073643D03*
X0050266Y0075543D03*
X0056766Y0055743D03*
X0059766Y0055543D03*
X0057766Y0052243D03*
X0061966Y0052243D03*
X0064466Y0053443D03*
X0068966Y0055943D03*
X0072566Y0055743D03*
X0070066Y0052043D03*
D15*
X0070016Y0052143D03*
X0069916Y0052343D03*
X0069916Y0052443D03*
X0069216Y0054843D03*
X0069216Y0054943D03*
X0069116Y0055343D03*
X0069116Y0055443D03*
X0069016Y0055743D03*
X0069016Y0055843D03*
X0067616Y0053443D03*
X0064616Y0053243D03*
X0064516Y0053343D03*
X0064416Y0053543D03*
X0064416Y0053643D03*
X0061916Y0052343D03*
X0057716Y0052343D03*
X0057716Y0052443D03*
X0057616Y0052643D03*
X0057616Y0052743D03*
X0057616Y0052843D03*
X0056916Y0055243D03*
X0056916Y0055343D03*
X0056916Y0055443D03*
X0056816Y0055543D03*
X0056816Y0055643D03*
X0061716Y0056643D03*
X0061716Y0056743D03*
X0061716Y0056843D03*
X0061716Y0056943D03*
X0061716Y0057043D03*
X0061716Y0057143D03*
X0061716Y0057243D03*
X0061716Y0057343D03*
X0061716Y0057443D03*
X0061716Y0057543D03*
X0061716Y0057643D03*
X0061716Y0057743D03*
X0061716Y0057843D03*
X0061716Y0057943D03*
X0061716Y0058043D03*
X0061716Y0058143D03*
X0061716Y0058243D03*
X0061716Y0058343D03*
X0061716Y0058943D03*
X0059516Y0061543D03*
X0059516Y0061643D03*
X0059416Y0061843D03*
X0059416Y0061943D03*
X0059316Y0062243D03*
X0059316Y0062343D03*
X0059316Y0062443D03*
X0059316Y0062543D03*
X0059316Y0062643D03*
X0059316Y0063543D03*
X0059316Y0063643D03*
X0059316Y0063743D03*
X0059416Y0064743D03*
X0059416Y0064943D03*
X0059416Y0065043D03*
X0059416Y0065143D03*
X0059416Y0065243D03*
X0059416Y0065343D03*
X0059416Y0065443D03*
X0059416Y0065543D03*
X0059416Y0065643D03*
X0059416Y0065743D03*
X0059416Y0065843D03*
X0059416Y0065943D03*
X0059416Y0066043D03*
X0059416Y0066143D03*
X0059416Y0066243D03*
X0059416Y0066343D03*
X0059416Y0066443D03*
X0059416Y0066543D03*
X0059416Y0066643D03*
X0059416Y0066743D03*
X0059416Y0066843D03*
X0059416Y0066943D03*
X0059416Y0067043D03*
X0059416Y0067143D03*
X0059416Y0067243D03*
X0059416Y0067343D03*
X0059416Y0067443D03*
X0059416Y0067543D03*
X0059416Y0067643D03*
X0059416Y0067743D03*
X0059416Y0067843D03*
X0059416Y0067943D03*
X0059416Y0068043D03*
X0059416Y0068243D03*
X0056616Y0063543D03*
X0056616Y0063443D03*
X0057216Y0061943D03*
X0057316Y0061843D03*
X0057316Y0061743D03*
X0057416Y0061643D03*
X0057516Y0061543D03*
X0057516Y0061443D03*
X0057616Y0061343D03*
X0061016Y0062043D03*
X0060916Y0062543D03*
X0060916Y0062643D03*
X0064116Y0063543D03*
X0064216Y0063343D03*
X0064216Y0063243D03*
X0065416Y0062043D03*
X0065416Y0061943D03*
X0065416Y0061843D03*
X0065416Y0061743D03*
X0065416Y0061643D03*
X0065516Y0061443D03*
X0068316Y0061343D03*
X0068316Y0061243D03*
X0068316Y0061143D03*
X0068316Y0061043D03*
X0068316Y0060943D03*
X0068316Y0060843D03*
X0068316Y0060743D03*
X0068316Y0060643D03*
X0068316Y0060543D03*
X0068316Y0060443D03*
X0068316Y0060343D03*
X0068316Y0060243D03*
X0068316Y0060143D03*
X0068316Y0060043D03*
X0068316Y0059943D03*
X0068316Y0059843D03*
X0068316Y0059743D03*
X0068316Y0059643D03*
X0068216Y0059243D03*
X0068216Y0059143D03*
X0068216Y0059043D03*
X0065116Y0058043D03*
X0054116Y0062343D03*
X0054116Y0062443D03*
X0054116Y0062543D03*
X0052216Y0062443D03*
X0052216Y0062343D03*
X0052216Y0062243D03*
X0052216Y0062143D03*
X0052216Y0062043D03*
X0052216Y0061943D03*
X0052216Y0061843D03*
X0052216Y0061743D03*
X0052216Y0061643D03*
X0052216Y0061543D03*
X0052316Y0061043D03*
X0052316Y0060943D03*
X0052116Y0062843D03*
X0052116Y0062943D03*
X0052116Y0063043D03*
X0052016Y0063343D03*
X0052016Y0063443D03*
X0051916Y0063643D03*
X0051816Y0063843D03*
X0051716Y0064043D03*
X0049616Y0061743D03*
X0048516Y0061343D03*
X0048516Y0061243D03*
X0048416Y0061443D03*
X0048316Y0061643D03*
X0048216Y0061843D03*
X0048216Y0061943D03*
X0047716Y0063243D03*
X0047616Y0063543D03*
X0047516Y0063643D03*
X0047516Y0063743D03*
X0047416Y0063943D03*
X0047316Y0064143D03*
X0046916Y0064843D03*
X0044516Y0062343D03*
X0044516Y0062043D03*
X0041716Y0058143D03*
X0041716Y0058043D03*
X0041816Y0057943D03*
X0041616Y0056343D03*
X0041616Y0056243D03*
X0041516Y0055843D03*
X0041516Y0055743D03*
X0041516Y0055643D03*
X0041516Y0055543D03*
X0041516Y0055443D03*
X0041516Y0055343D03*
X0041516Y0055243D03*
X0041516Y0055143D03*
X0041516Y0055043D03*
X0041516Y0054943D03*
X0041516Y0054843D03*
X0041516Y0054743D03*
X0041516Y0054643D03*
X0041616Y0054443D03*
X0041616Y0054343D03*
X0041616Y0054243D03*
X0041716Y0054043D03*
X0041716Y0053943D03*
X0041716Y0053843D03*
X0041816Y0053743D03*
X0041816Y0053643D03*
X0041916Y0053543D03*
X0041916Y0053443D03*
X0042016Y0053343D03*
X0042116Y0053243D03*
X0042116Y0053143D03*
X0042216Y0053043D03*
X0042316Y0052943D03*
X0042316Y0052843D03*
X0044216Y0052743D03*
X0046516Y0052543D03*
X0046516Y0053143D03*
X0046516Y0053943D03*
X0046516Y0054043D03*
X0046316Y0055143D03*
X0045516Y0056143D03*
X0043916Y0055943D03*
X0043916Y0055843D03*
X0043916Y0055743D03*
X0043916Y0055643D03*
X0043916Y0055543D03*
X0043916Y0055443D03*
X0043816Y0056243D03*
X0043816Y0056343D03*
X0047916Y0055543D03*
X0048016Y0055343D03*
X0048016Y0055243D03*
X0048116Y0055043D03*
X0048116Y0054943D03*
X0048216Y0054743D03*
X0048216Y0054643D03*
X0048316Y0054443D03*
X0048316Y0054343D03*
X0048416Y0054143D03*
X0048416Y0054043D03*
X0048516Y0053943D03*
X0048516Y0053843D03*
X0048616Y0053743D03*
X0048616Y0053643D03*
X0049316Y0052243D03*
X0049916Y0055843D03*
X0030817Y0055494D03*
X0050216Y0073243D03*
X0050216Y0073343D03*
X0061316Y0075343D03*
X0062216Y0076643D03*
X0064816Y0070943D03*
X0082212Y0059394D03*
X0081712Y0054994D03*
D16*
X0069966Y0052243D03*
X0069866Y0052543D03*
X0069866Y0052643D03*
X0069866Y0052743D03*
X0069866Y0052843D03*
X0069866Y0052943D03*
X0069166Y0055043D03*
X0069166Y0055143D03*
X0069166Y0055243D03*
X0069066Y0055543D03*
X0069066Y0055643D03*
X0067966Y0058243D03*
X0068066Y0058343D03*
X0068066Y0058443D03*
X0068066Y0058543D03*
X0068166Y0058643D03*
X0068166Y0058743D03*
X0068166Y0058843D03*
X0068166Y0058943D03*
X0068266Y0059343D03*
X0068266Y0059443D03*
X0068266Y0059543D03*
X0065366Y0057843D03*
X0065266Y0057943D03*
X0061766Y0058643D03*
X0061766Y0058743D03*
X0061766Y0058843D03*
X0061766Y0055643D03*
X0061766Y0055543D03*
X0061766Y0055443D03*
X0061766Y0055343D03*
X0061766Y0055243D03*
X0061766Y0055143D03*
X0061766Y0055043D03*
X0061766Y0054943D03*
X0061766Y0054843D03*
X0061766Y0054743D03*
X0061766Y0054643D03*
X0061766Y0054543D03*
X0061766Y0054443D03*
X0061766Y0054343D03*
X0061766Y0054243D03*
X0061766Y0054143D03*
X0061766Y0054043D03*
X0061766Y0053943D03*
X0061766Y0053843D03*
X0061766Y0053743D03*
X0061766Y0053643D03*
X0061766Y0053543D03*
X0061766Y0053443D03*
X0061766Y0053343D03*
X0061766Y0053243D03*
X0061766Y0053143D03*
X0061766Y0053043D03*
X0061766Y0052943D03*
X0061766Y0052843D03*
X0061766Y0052743D03*
X0061766Y0052643D03*
X0061866Y0052543D03*
X0061866Y0052443D03*
X0057666Y0052543D03*
X0057566Y0052943D03*
X0057566Y0053043D03*
X0057566Y0053143D03*
X0057566Y0053243D03*
X0057566Y0053343D03*
X0057566Y0053443D03*
X0051866Y0053443D03*
X0049666Y0054343D03*
X0049666Y0054443D03*
X0049766Y0054743D03*
X0049766Y0054843D03*
X0049766Y0054943D03*
X0049866Y0055143D03*
X0049866Y0055243D03*
X0049966Y0055543D03*
X0049966Y0055643D03*
X0049966Y0055743D03*
X0049566Y0054043D03*
X0049566Y0053943D03*
X0048366Y0054243D03*
X0048266Y0054543D03*
X0048166Y0054843D03*
X0048066Y0055143D03*
X0047966Y0055443D03*
X0047866Y0055643D03*
X0047866Y0055743D03*
X0047766Y0055843D03*
X0047766Y0055943D03*
X0046266Y0055343D03*
X0046266Y0055243D03*
X0046366Y0055043D03*
X0046366Y0054943D03*
X0046366Y0054843D03*
X0046466Y0054743D03*
X0046466Y0054643D03*
X0046466Y0054543D03*
X0046466Y0054443D03*
X0046466Y0054343D03*
X0046466Y0054243D03*
X0046466Y0054143D03*
X0046566Y0053843D03*
X0046566Y0053743D03*
X0046566Y0053643D03*
X0046566Y0053543D03*
X0046566Y0053443D03*
X0046566Y0053243D03*
X0046466Y0052843D03*
X0046466Y0052743D03*
X0046566Y0052443D03*
X0046566Y0052343D03*
X0046566Y0052243D03*
X0044166Y0052843D03*
X0044166Y0052943D03*
X0044166Y0053043D03*
X0044166Y0053143D03*
X0043966Y0055343D03*
X0043866Y0056043D03*
X0043866Y0056143D03*
X0041566Y0056143D03*
X0041566Y0056043D03*
X0041566Y0055943D03*
X0041566Y0054543D03*
X0046166Y0055443D03*
X0049266Y0052343D03*
X0048366Y0061543D03*
X0049666Y0061843D03*
X0049666Y0061943D03*
X0049666Y0062043D03*
X0049666Y0062143D03*
X0049766Y0062543D03*
X0047766Y0062943D03*
X0047766Y0063043D03*
X0047766Y0063143D03*
X0047666Y0063343D03*
X0047666Y0063443D03*
X0044566Y0062543D03*
X0044566Y0062443D03*
X0052266Y0061443D03*
X0052266Y0061343D03*
X0052266Y0061243D03*
X0052266Y0061143D03*
X0054166Y0062643D03*
X0054166Y0062743D03*
X0056666Y0063343D03*
X0056666Y0063643D03*
X0056566Y0063743D03*
X0056166Y0064543D03*
X0059366Y0064543D03*
X0059366Y0064443D03*
X0059366Y0064343D03*
X0059366Y0064243D03*
X0059366Y0064143D03*
X0059366Y0064043D03*
X0059366Y0063943D03*
X0059366Y0063843D03*
X0059266Y0063443D03*
X0059266Y0063343D03*
X0059266Y0063243D03*
X0059266Y0063143D03*
X0059266Y0063043D03*
X0059266Y0062943D03*
X0059266Y0062843D03*
X0059266Y0062743D03*
X0059366Y0062143D03*
X0059366Y0062043D03*
X0059466Y0061743D03*
X0060966Y0062743D03*
X0060966Y0062843D03*
X0061066Y0062943D03*
X0061066Y0063043D03*
X0059366Y0064643D03*
X0059366Y0064843D03*
X0059466Y0068143D03*
X0057866Y0070143D03*
X0057866Y0070543D03*
X0057866Y0070643D03*
X0057866Y0070743D03*
X0057866Y0070843D03*
X0057866Y0070943D03*
X0057866Y0071043D03*
X0057866Y0071143D03*
X0057866Y0071243D03*
X0057866Y0071343D03*
X0057866Y0071443D03*
X0057866Y0071543D03*
X0057866Y0071643D03*
X0057866Y0071743D03*
X0057866Y0071843D03*
X0057766Y0072343D03*
X0057766Y0072443D03*
X0057766Y0072543D03*
X0057766Y0072643D03*
X0057766Y0072743D03*
X0057766Y0072843D03*
X0057766Y0072943D03*
X0057766Y0073043D03*
X0057766Y0073143D03*
X0057766Y0073243D03*
X0057766Y0073343D03*
X0057766Y0073443D03*
X0057766Y0073643D03*
X0057766Y0073743D03*
X0057766Y0073843D03*
X0057766Y0073943D03*
X0057866Y0074343D03*
X0057866Y0074443D03*
X0057866Y0074543D03*
X0057866Y0074643D03*
X0057866Y0074743D03*
X0057866Y0074843D03*
X0057866Y0074943D03*
X0057866Y0075043D03*
X0057866Y0075143D03*
X0057866Y0075243D03*
X0057866Y0075343D03*
X0057866Y0075443D03*
X0057866Y0075543D03*
X0057866Y0075743D03*
X0057866Y0075843D03*
X0057866Y0075943D03*
X0057866Y0076043D03*
X0057866Y0076143D03*
X0057866Y0076243D03*
X0057866Y0076743D03*
X0057866Y0076843D03*
X0062366Y0074543D03*
X0062366Y0074443D03*
X0062366Y0074343D03*
X0062366Y0074243D03*
X0062366Y0074143D03*
X0062366Y0074043D03*
X0062366Y0073943D03*
X0062366Y0073843D03*
X0062366Y0073743D03*
X0062366Y0073643D03*
X0062366Y0073543D03*
X0062366Y0073443D03*
X0062366Y0073343D03*
X0062366Y0073243D03*
X0062366Y0073143D03*
X0062366Y0073043D03*
X0062366Y0072943D03*
X0062366Y0072843D03*
X0062366Y0072743D03*
X0062366Y0072643D03*
X0062366Y0072543D03*
X0062366Y0070643D03*
X0055666Y0070843D03*
X0055666Y0070943D03*
X0054266Y0072143D03*
X0050166Y0072943D03*
X0050166Y0073043D03*
X0050166Y0073143D03*
X0050066Y0072743D03*
X0050066Y0072643D03*
X0050066Y0072543D03*
X0049966Y0072443D03*
X0049966Y0072343D03*
X0049966Y0072243D03*
X0049966Y0072143D03*
X0049966Y0072043D03*
X0049866Y0071843D03*
X0049866Y0071743D03*
X0049866Y0071643D03*
X0049866Y0071543D03*
X0049866Y0071443D03*
X0049866Y0071343D03*
X0049866Y0071243D03*
X0049866Y0071143D03*
X0049866Y0071043D03*
X0049866Y0070943D03*
X0049866Y0070843D03*
X0049866Y0070743D03*
X0049866Y0070643D03*
X0049866Y0070543D03*
X0049866Y0070443D03*
X0049966Y0070343D03*
X0049966Y0070243D03*
X0049966Y0070143D03*
X0050066Y0070043D03*
X0050266Y0075043D03*
X0050266Y0075343D03*
X0050266Y0075443D03*
X0064066Y0063643D03*
X0064166Y0063443D03*
X0064266Y0063143D03*
X0064166Y0063043D03*
X0064166Y0062943D03*
X0065466Y0062143D03*
X0068066Y0063143D03*
X0068066Y0063243D03*
X0068066Y0063343D03*
X0068066Y0063443D03*
X0067866Y0064343D03*
X0031067Y0059194D03*
X0027767Y0057794D03*
D17*
X0030917Y0055694D03*
X0030917Y0055594D03*
X0044216Y0053443D03*
X0044216Y0053343D03*
X0044216Y0053243D03*
X0046516Y0053343D03*
X0046516Y0053043D03*
X0046516Y0052943D03*
X0046516Y0052643D03*
X0049216Y0052543D03*
X0049216Y0052443D03*
X0049516Y0053643D03*
X0049516Y0053743D03*
X0049516Y0053843D03*
X0049616Y0054143D03*
X0049616Y0054243D03*
X0049716Y0054543D03*
X0049716Y0054643D03*
X0049816Y0055043D03*
X0049916Y0055343D03*
X0049916Y0055443D03*
X0051816Y0054443D03*
X0057516Y0053943D03*
X0057516Y0053843D03*
X0057516Y0053743D03*
X0057516Y0053643D03*
X0057516Y0053543D03*
X0059616Y0055643D03*
X0060316Y0056543D03*
X0061716Y0058443D03*
X0061716Y0058543D03*
X0066316Y0060743D03*
X0065516Y0062243D03*
X0065516Y0062343D03*
X0065616Y0062443D03*
X0064116Y0062743D03*
X0064116Y0062843D03*
X0064016Y0062643D03*
X0063916Y0063743D03*
X0061116Y0063143D03*
X0056616Y0063143D03*
X0056616Y0063043D03*
X0056616Y0063243D03*
X0054316Y0062943D03*
X0054216Y0062843D03*
X0055116Y0061243D03*
X0051016Y0064743D03*
X0049816Y0062743D03*
X0049816Y0062643D03*
X0049716Y0062443D03*
X0049716Y0062343D03*
X0049716Y0062243D03*
X0047716Y0062743D03*
X0047716Y0062843D03*
X0046816Y0064743D03*
X0044616Y0062643D03*
X0044716Y0061943D03*
X0045616Y0061243D03*
X0055716Y0070543D03*
X0055716Y0070643D03*
X0055716Y0070743D03*
X0055616Y0071043D03*
X0055516Y0071143D03*
X0055416Y0071243D03*
X0055316Y0071343D03*
X0057816Y0071943D03*
X0057816Y0072043D03*
X0057816Y0072143D03*
X0057816Y0072243D03*
X0057816Y0073543D03*
X0057816Y0074043D03*
X0057816Y0074143D03*
X0057816Y0074243D03*
X0057816Y0075643D03*
X0057916Y0076343D03*
X0057916Y0076443D03*
X0057916Y0076543D03*
X0057916Y0076643D03*
X0061316Y0075443D03*
X0062416Y0075443D03*
X0062416Y0075343D03*
X0062416Y0075243D03*
X0062416Y0075143D03*
X0062416Y0075043D03*
X0062416Y0074943D03*
X0062416Y0074843D03*
X0062416Y0074743D03*
X0062416Y0074643D03*
X0062316Y0072443D03*
X0062316Y0072343D03*
X0062316Y0072243D03*
X0062316Y0072143D03*
X0062316Y0072043D03*
X0062316Y0071943D03*
X0062316Y0071843D03*
X0062316Y0071743D03*
X0062316Y0071643D03*
X0062316Y0071543D03*
X0062316Y0071443D03*
X0062316Y0071343D03*
X0062316Y0071243D03*
X0062316Y0071143D03*
X0062316Y0071043D03*
X0062316Y0070943D03*
X0062316Y0070843D03*
X0062316Y0070743D03*
X0060616Y0069343D03*
X0057916Y0070243D03*
X0057916Y0070343D03*
X0057916Y0070443D03*
X0049916Y0071943D03*
X0050116Y0072843D03*
X0050316Y0075143D03*
X0050316Y0075243D03*
X0068016Y0063043D03*
X0067916Y0058143D03*
X0070116Y0054943D03*
X0070116Y0054843D03*
X0069816Y0053243D03*
X0069816Y0053143D03*
X0069816Y0053043D03*
X0071716Y0056543D03*
X0081612Y0055694D03*
X0081712Y0055094D03*
X0082212Y0059294D03*
D18*
X0082362Y0058594D03*
X0082462Y0058494D03*
X0081962Y0056094D03*
X0070666Y0055643D03*
X0070566Y0055543D03*
X0069766Y0054043D03*
X0069766Y0053943D03*
X0065866Y0052443D03*
X0064866Y0054743D03*
X0063666Y0062243D03*
X0065866Y0062743D03*
X0065966Y0062843D03*
X0066066Y0062943D03*
X0067966Y0062343D03*
X0061566Y0063643D03*
X0061466Y0063543D03*
X0056666Y0062743D03*
X0056666Y0062643D03*
X0056666Y0062543D03*
X0056166Y0062043D03*
X0054766Y0063443D03*
X0054866Y0063543D03*
X0056066Y0064443D03*
X0055566Y0070343D03*
X0053166Y0072143D03*
X0053266Y0072343D03*
X0062266Y0076443D03*
X0064666Y0070843D03*
X0047666Y0062543D03*
X0045866Y0063943D03*
X0045766Y0063843D03*
X0045666Y0063743D03*
X0045066Y0055443D03*
X0044266Y0054243D03*
X0044266Y0054143D03*
X0044266Y0054043D03*
X0049166Y0052943D03*
X0049166Y0052843D03*
X0052266Y0055143D03*
X0052366Y0055243D03*
X0053966Y0054943D03*
X0054066Y0055043D03*
X0054166Y0055143D03*
X0032767Y0057194D03*
X0031667Y0056294D03*
X0031567Y0056194D03*
X0031467Y0056094D03*
D19*
X0032717Y0058094D03*
X0032717Y0058194D03*
X0028017Y0057094D03*
X0045516Y0055643D03*
X0045516Y0055543D03*
X0047516Y0062143D03*
X0046716Y0064343D03*
X0051016Y0064143D03*
X0054616Y0073243D03*
X0061916Y0075843D03*
X0062716Y0064343D03*
X0067516Y0063843D03*
X0066416Y0061043D03*
X0066716Y0057143D03*
X0065016Y0053843D03*
X0065916Y0052543D03*
X0083012Y0058194D03*
X0083312Y0057994D03*
X0083712Y0057794D03*
D20*
X0082162Y0058794D03*
X0082162Y0058894D03*
X0082162Y0058994D03*
X0082162Y0059094D03*
X0082162Y0059194D03*
X0070366Y0055343D03*
X0070266Y0055243D03*
X0070266Y0055143D03*
X0070166Y0055043D03*
X0069766Y0053743D03*
X0069766Y0053643D03*
X0069766Y0053543D03*
X0069766Y0053443D03*
X0069766Y0053343D03*
X0066866Y0056143D03*
X0065566Y0057743D03*
X0067866Y0058043D03*
X0068066Y0062743D03*
X0068066Y0062843D03*
X0068066Y0062943D03*
X0065666Y0062543D03*
X0063966Y0062543D03*
X0063866Y0062443D03*
X0062566Y0064543D03*
X0061266Y0063343D03*
X0061166Y0063243D03*
X0056666Y0062943D03*
X0056666Y0062843D03*
X0054466Y0063143D03*
X0054366Y0063043D03*
X0049866Y0063043D03*
X0049866Y0062943D03*
X0049866Y0062843D03*
X0044866Y0062943D03*
X0044766Y0062843D03*
X0044666Y0062743D03*
X0053966Y0056443D03*
X0054566Y0055643D03*
X0054466Y0055543D03*
X0054366Y0053443D03*
X0051966Y0053343D03*
X0051866Y0053543D03*
X0051866Y0054543D03*
X0051866Y0054643D03*
X0051966Y0054743D03*
X0049166Y0052643D03*
X0044966Y0055343D03*
X0044166Y0053543D03*
X0057466Y0054043D03*
X0057466Y0054143D03*
X0057866Y0055243D03*
X0057866Y0055343D03*
X0057966Y0055443D03*
X0058066Y0055543D03*
X0054566Y0069543D03*
X0055666Y0070443D03*
X0054966Y0073543D03*
X0062266Y0076543D03*
X0031167Y0059094D03*
D21*
X0031217Y0058994D03*
X0032417Y0056994D03*
X0032317Y0056894D03*
X0032217Y0056794D03*
X0032117Y0056694D03*
X0032017Y0056594D03*
X0031817Y0056494D03*
X0031717Y0056394D03*
X0031317Y0055994D03*
X0027917Y0056994D03*
X0044316Y0054543D03*
X0044316Y0054443D03*
X0044316Y0054343D03*
X0045516Y0055943D03*
X0049116Y0053043D03*
X0052516Y0055343D03*
X0052616Y0055443D03*
X0053616Y0054643D03*
X0053716Y0054743D03*
X0053816Y0054843D03*
X0053116Y0052643D03*
X0057416Y0054543D03*
X0057416Y0054643D03*
X0057416Y0054743D03*
X0058216Y0055643D03*
X0065016Y0054843D03*
X0065116Y0054943D03*
X0065216Y0055043D03*
X0067016Y0055143D03*
X0067116Y0055243D03*
X0069716Y0054343D03*
X0069716Y0054243D03*
X0069716Y0054143D03*
X0067616Y0057743D03*
X0067916Y0062143D03*
X0067916Y0062243D03*
X0066316Y0063143D03*
X0066216Y0063043D03*
X0063516Y0062143D03*
X0055016Y0063643D03*
X0051016Y0064543D03*
X0049916Y0063443D03*
X0049916Y0063343D03*
X0046816Y0064643D03*
X0046116Y0064143D03*
X0046016Y0064043D03*
X0053416Y0072443D03*
X0053516Y0072543D03*
X0082112Y0056194D03*
D22*
X0071516Y0055943D03*
X0066516Y0055643D03*
X0066016Y0052643D03*
X0062616Y0056543D03*
X0058816Y0055743D03*
X0053716Y0055843D03*
X0052516Y0054143D03*
X0045816Y0061543D03*
X0055216Y0061643D03*
X0062216Y0061543D03*
X0066516Y0061343D03*
X0062716Y0064143D03*
X0031817Y0058594D03*
D23*
X0031117Y0055894D03*
X0031117Y0055794D03*
X0044216Y0053943D03*
X0044216Y0053843D03*
X0044216Y0053743D03*
X0044216Y0053643D03*
X0045516Y0056043D03*
X0049216Y0052743D03*
X0052016Y0054843D03*
X0052116Y0054943D03*
X0052216Y0055043D03*
X0054216Y0055243D03*
X0054316Y0055343D03*
X0054416Y0055443D03*
X0057416Y0054443D03*
X0057416Y0054343D03*
X0057416Y0054243D03*
X0058816Y0056343D03*
X0064816Y0054643D03*
X0064816Y0053143D03*
X0067516Y0053343D03*
X0069716Y0053843D03*
X0070416Y0055443D03*
X0067816Y0057943D03*
X0067716Y0057843D03*
X0066716Y0056943D03*
X0065716Y0057643D03*
X0062016Y0061243D03*
X0063816Y0062343D03*
X0065716Y0062643D03*
X0068016Y0062643D03*
X0068016Y0062543D03*
X0068016Y0062443D03*
X0067816Y0064243D03*
X0061316Y0063443D03*
X0054616Y0063343D03*
X0054516Y0063243D03*
X0051016Y0064643D03*
X0049916Y0063243D03*
X0049916Y0063143D03*
X0047716Y0062643D03*
X0045516Y0063643D03*
X0045416Y0063543D03*
X0045316Y0063443D03*
X0045216Y0063343D03*
X0045116Y0063243D03*
X0045016Y0063143D03*
X0044916Y0063043D03*
X0050816Y0069443D03*
X0053616Y0071443D03*
X0053216Y0072243D03*
X0055216Y0071443D03*
X0081712Y0055794D03*
X0081812Y0055894D03*
X0081912Y0055994D03*
X0081712Y0055594D03*
X0081712Y0055494D03*
X0081712Y0055394D03*
X0081712Y0055294D03*
X0081712Y0055194D03*
X0082312Y0058694D03*
D24*
X0066716Y0057243D03*
X0066616Y0055743D03*
X0067316Y0063543D03*
X0061116Y0069643D03*
X0055816Y0063943D03*
X0055216Y0061543D03*
X0052416Y0054043D03*
X0053316Y0052743D03*
D25*
X0065616Y0054543D03*
X0066316Y0055343D03*
X0066716Y0057543D03*
X0062316Y0061743D03*
X0066116Y0052743D03*
D26*
X0065566Y0054443D03*
X0066366Y0055443D03*
X0055266Y0061843D03*
X0053666Y0055743D03*
X0053366Y0052843D03*
X0045866Y0061643D03*
X0054266Y0071543D03*
X0054166Y0071643D03*
X0054066Y0071743D03*
X0080062Y0057694D03*
D27*
X0066216Y0052843D03*
X0045916Y0061843D03*
D28*
X0053416Y0052943D03*
X0061716Y0055843D03*
X0063316Y0070343D03*
X0063516Y0070443D03*
D29*
X0061716Y0069943D03*
X0053316Y0053243D03*
X0066216Y0052943D03*
D30*
X0053366Y0053043D03*
X0053366Y0053143D03*
D31*
X0066216Y0053043D03*
D32*
X0066966Y0055043D03*
X0066766Y0056043D03*
X0069666Y0054443D03*
X0070766Y0055743D03*
X0071666Y0056443D03*
X0067066Y0061443D03*
X0066366Y0060843D03*
X0067866Y0061943D03*
X0067866Y0062043D03*
X0066466Y0063243D03*
X0067766Y0064143D03*
X0063366Y0062043D03*
X0056666Y0062343D03*
X0056666Y0062443D03*
X0055966Y0061943D03*
X0055166Y0063743D03*
X0056066Y0064343D03*
X0049966Y0063643D03*
X0049966Y0063543D03*
X0047666Y0062443D03*
X0050766Y0069543D03*
X0054566Y0069643D03*
X0055366Y0070243D03*
X0053666Y0072643D03*
X0054866Y0073443D03*
X0060766Y0069443D03*
X0062266Y0076343D03*
X0082562Y0058394D03*
X0082562Y0056494D03*
X0082362Y0056394D03*
X0082262Y0056294D03*
X0057466Y0054843D03*
X0053966Y0056343D03*
X0052766Y0055543D03*
X0053466Y0054543D03*
X0049166Y0053243D03*
X0049166Y0053143D03*
X0044366Y0054643D03*
X0044366Y0054743D03*
X0044366Y0054843D03*
X0032667Y0057094D03*
D33*
X0032067Y0058494D03*
X0052566Y0054243D03*
X0052666Y0054343D03*
X0065366Y0054243D03*
X0066766Y0053143D03*
X0054666Y0070043D03*
X0053866Y0071943D03*
D34*
X0054016Y0072843D03*
X0050616Y0069843D03*
X0051016Y0064343D03*
X0050116Y0063943D03*
X0056016Y0064243D03*
X0056616Y0062143D03*
X0062116Y0061343D03*
X0066416Y0060943D03*
X0067616Y0063943D03*
X0064416Y0070743D03*
X0062016Y0076043D03*
X0082812Y0058294D03*
X0071616Y0056343D03*
X0066716Y0055943D03*
X0066316Y0054643D03*
X0067216Y0053243D03*
X0058816Y0056143D03*
X0053916Y0056243D03*
X0054116Y0053343D03*
X0049116Y0053543D03*
X0045516Y0055743D03*
X0044416Y0055143D03*
X0044416Y0055043D03*
D35*
X0044416Y0054943D03*
X0045516Y0055843D03*
X0049116Y0053343D03*
X0053316Y0054443D03*
X0057416Y0054943D03*
X0057416Y0055043D03*
X0058816Y0056243D03*
X0065316Y0055143D03*
X0066616Y0054843D03*
X0066816Y0054943D03*
X0069716Y0054643D03*
X0069716Y0054543D03*
X0067416Y0057643D03*
X0067816Y0061843D03*
X0066616Y0063343D03*
X0066716Y0063443D03*
X0067716Y0064043D03*
X0056616Y0062243D03*
X0055116Y0061343D03*
X0051016Y0064443D03*
X0050016Y0063743D03*
X0047616Y0062343D03*
X0047016Y0062043D03*
X0045716Y0061343D03*
X0032817Y0057294D03*
X0031317Y0058894D03*
X0062216Y0076243D03*
X0082712Y0056594D03*
X0082812Y0056694D03*
D36*
X0069666Y0054743D03*
X0066466Y0054743D03*
X0065466Y0055243D03*
X0064866Y0053743D03*
X0066666Y0057043D03*
X0067766Y0061743D03*
X0063166Y0061943D03*
X0061766Y0063743D03*
X0062666Y0064443D03*
X0054766Y0073343D03*
X0053866Y0072743D03*
X0050766Y0069643D03*
X0050666Y0069743D03*
X0050466Y0069943D03*
X0046766Y0064543D03*
X0047566Y0062243D03*
X0050066Y0063843D03*
X0052966Y0055643D03*
X0052166Y0053643D03*
X0049166Y0053443D03*
X0057466Y0055143D03*
X0062166Y0076143D03*
D37*
X0046966Y0064943D03*
X0049866Y0056043D03*
X0056666Y0056043D03*
X0066166Y0060643D03*
X0067766Y0053543D03*
D38*
X0061266Y0055743D03*
X0067666Y0061643D03*
X0060966Y0069543D03*
X0054566Y0069743D03*
X0051066Y0064243D03*
X0050166Y0064043D03*
X0046766Y0064443D03*
X0046766Y0061943D03*
X0044466Y0055243D03*
X0052266Y0053743D03*
X0032867Y0057994D03*
X0031467Y0058794D03*
X0061966Y0075943D03*
D39*
X0054516Y0073143D03*
X0054416Y0073043D03*
X0046616Y0064243D03*
X0045816Y0061443D03*
X0052316Y0053843D03*
X0062216Y0061443D03*
X0066416Y0061143D03*
X0066616Y0055843D03*
X0071616Y0056243D03*
X0078312Y0057094D03*
X0055916Y0064043D03*
D40*
X0062666Y0064243D03*
X0067366Y0063643D03*
X0064166Y0070643D03*
X0054666Y0069843D03*
X0053866Y0056043D03*
X0052366Y0053943D03*
X0065166Y0054043D03*
X0071566Y0056143D03*
X0083562Y0057894D03*
X0032667Y0057894D03*
X0032367Y0058394D03*
D41*
X0032567Y0058294D03*
X0031567Y0058694D03*
X0053866Y0056143D03*
X0058866Y0056043D03*
X0065066Y0053943D03*
X0067666Y0061543D03*
X0067466Y0063743D03*
X0055966Y0064143D03*
X0055166Y0061443D03*
X0054266Y0072943D03*
X0061866Y0075543D03*
X0061866Y0075643D03*
X0061866Y0075743D03*
X0083162Y0058094D03*
X0083762Y0057694D03*
X0083262Y0056894D03*
X0083262Y0056794D03*
D42*
X0083162Y0056994D03*
X0071566Y0056043D03*
X0066766Y0057343D03*
X0065266Y0054143D03*
X0058866Y0055843D03*
X0053766Y0055943D03*
X0055766Y0063843D03*
X0054666Y0069943D03*
X0053766Y0072043D03*
X0066466Y0061243D03*
D43*
X0062216Y0061643D03*
X0062716Y0064043D03*
X0061316Y0069743D03*
X0054716Y0070143D03*
X0053916Y0071843D03*
X0055216Y0061743D03*
X0065416Y0054343D03*
X0066416Y0055543D03*
X0066716Y0057443D03*
X0071516Y0055843D03*
D44*
X0068916Y0056043D03*
X0064816Y0058343D03*
X0061616Y0059243D03*
X0059616Y0061343D03*
X0059816Y0055443D03*
X0067916Y0064543D03*
X0078212Y0057694D03*
X0053516Y0070343D03*
X0050116Y0073543D03*
X0050916Y0064843D03*
X0049516Y0064543D03*
X0041716Y0058443D03*
X0043816Y0056443D03*
X0032817Y0058694D03*
D45*
X0060966Y0055943D03*
D46*
X0062066Y0056043D03*
D47*
X0062016Y0056143D03*
X0062016Y0056243D03*
X0062016Y0056343D03*
X0029117Y0057194D03*
D48*
X0061916Y0056443D03*
D49*
X0062666Y0063943D03*
X0045866Y0061743D03*
D50*
X0032167Y0057794D03*
X0061566Y0069843D03*
X0062566Y0070143D03*
X0062966Y0070243D03*
X0063566Y0070543D03*
X0062666Y0063843D03*
X0062366Y0061843D03*
D51*
X0061966Y0070043D03*
D52*
X0029467Y0057294D03*
D53*
X0030317Y0057394D03*
X0030417Y0057494D03*
D54*
X0030467Y0057594D03*
D55*
X0030517Y0057694D03*
D56*
X0082012Y0057094D03*
D57*
X0081112Y0057494D03*
X0081012Y0057394D03*
X0081012Y0057294D03*
X0080912Y0057194D03*
D58*
X0081362Y0057594D03*
M02*
