G75*
%MOIN*%
%OFA0B0*%
%FSLAX25Y25*%
%IPPOS*%
%LPD*%
%AMOC8*
5,1,8,0,0,1.08239X$1,22.5*
%
%ADD10R,0.03740X0.03740*%
%ADD11C,0.05937*%
%ADD12R,0.04134X0.02362*%
%ADD13C,0.02000*%
D10*
X0038736Y0019173D03*
X0044445Y0019173D03*
X0054091Y0020748D03*
X0059799Y0020748D03*
X0069937Y0032854D03*
X0069937Y0038563D03*
X0059799Y0042795D03*
X0054091Y0042795D03*
X0046413Y0042795D03*
X0040705Y0042795D03*
X0038736Y0027047D03*
X0044445Y0027047D03*
D11*
X0015079Y0032118D03*
X0015079Y0042157D03*
X0015079Y0052197D03*
X0094646Y0052197D03*
X0094646Y0042157D03*
X0094646Y0032118D03*
D12*
X0062260Y0035512D03*
X0062260Y0028031D03*
X0051630Y0028031D03*
X0051630Y0031772D03*
X0051630Y0035512D03*
D13*
X0027767Y0018552D02*
X0027767Y0007050D01*
X0084989Y0007050D01*
X0084989Y0018552D01*
X0086208Y0021494D01*
X0086208Y0021494D01*
X0088459Y0023745D01*
X0088459Y0023745D01*
X0090157Y0024449D01*
X0090157Y0024724D01*
X0091338Y0027574D01*
X0091805Y0028041D01*
X0091409Y0028328D01*
X0090856Y0028881D01*
X0090396Y0029514D01*
X0090041Y0030211D01*
X0089800Y0030955D01*
X0089677Y0031727D01*
X0089677Y0032118D01*
X0094646Y0032118D01*
X0094646Y0032118D01*
X0099614Y0032118D01*
X0099614Y0031727D01*
X0099492Y0030955D01*
X0099483Y0030926D01*
X0102307Y0029756D01*
X0102706Y0029357D01*
X0102706Y0047200D01*
X0091160Y0047200D01*
X0079586Y0035626D01*
X0078557Y0035200D01*
X0073750Y0035200D01*
X0073807Y0034988D01*
X0073807Y0032854D01*
X0069937Y0032854D01*
X0069937Y0032854D01*
X0066814Y0032854D01*
X0066814Y0032854D01*
X0069937Y0032854D01*
X0069937Y0032854D01*
X0067476Y0032854D01*
X0066394Y0031772D01*
X0051630Y0031772D01*
X0055697Y0031772D01*
X0055697Y0032509D01*
X0056443Y0032200D01*
X0065557Y0032200D01*
X0066067Y0032411D01*
X0066067Y0030831D01*
X0065253Y0030831D01*
X0065072Y0031013D01*
X0059447Y0031013D01*
X0058393Y0029958D01*
X0058393Y0026105D01*
X0059447Y0025050D01*
X0059460Y0025050D01*
X0059460Y0024418D01*
X0057184Y0024418D01*
X0056945Y0024179D01*
X0056706Y0024418D01*
X0054430Y0024418D01*
X0054430Y0025050D01*
X0054442Y0025050D01*
X0055497Y0026105D01*
X0055497Y0029708D01*
X0055561Y0029819D01*
X0055697Y0030327D01*
X0055697Y0031772D01*
X0051630Y0031772D01*
X0051630Y0031772D01*
X0048283Y0031772D01*
X0040705Y0039350D01*
X0040705Y0042795D01*
X0040705Y0038925D01*
X0042838Y0038925D01*
X0043347Y0039061D01*
X0043673Y0039250D01*
X0043798Y0039125D01*
X0048830Y0039125D01*
X0048830Y0038493D01*
X0048817Y0038493D01*
X0047763Y0037438D01*
X0047763Y0033835D01*
X0047699Y0033725D01*
X0047563Y0033216D01*
X0047563Y0031772D01*
X0051630Y0031772D01*
X0051630Y0031772D01*
X0047563Y0031772D01*
X0047563Y0030831D01*
X0047530Y0030831D01*
X0047117Y0030661D01*
X0047061Y0030717D01*
X0041829Y0030717D01*
X0041591Y0030479D01*
X0041352Y0030717D01*
X0039026Y0030717D01*
X0025212Y0044531D01*
X0024183Y0044957D01*
X0019022Y0044957D01*
X0017780Y0046200D01*
X0016027Y0046926D01*
X0014130Y0046926D01*
X0012378Y0046200D01*
X0011036Y0044859D01*
X0010310Y0043106D01*
X0010310Y0041209D01*
X0011036Y0039456D01*
X0012378Y0038115D01*
X0014130Y0037389D01*
X0016027Y0037389D01*
X0017780Y0038115D01*
X0019022Y0039357D01*
X0022466Y0039357D01*
X0035066Y0026758D01*
X0035066Y0024432D01*
X0035936Y0023561D01*
X0035936Y0022659D01*
X0035066Y0021789D01*
X0035066Y0016558D01*
X0036121Y0015503D01*
X0041352Y0015503D01*
X0041477Y0015628D01*
X0041803Y0015439D01*
X0042311Y0015303D01*
X0044445Y0015303D01*
X0046578Y0015303D01*
X0047087Y0015439D01*
X0047543Y0015703D01*
X0047915Y0016075D01*
X0048179Y0016531D01*
X0048315Y0017040D01*
X0048315Y0019173D01*
X0044445Y0019173D01*
X0044445Y0015303D01*
X0044445Y0019173D01*
X0044445Y0019173D01*
X0044445Y0019173D01*
X0048315Y0019173D01*
X0048315Y0021307D01*
X0048179Y0021815D01*
X0047915Y0022271D01*
X0047543Y0022644D01*
X0047087Y0022907D01*
X0046578Y0023043D01*
X0044445Y0023043D01*
X0044445Y0019173D01*
X0044445Y0019173D01*
X0044445Y0023043D01*
X0042311Y0023043D01*
X0041803Y0022907D01*
X0041536Y0022753D01*
X0041536Y0023561D01*
X0041591Y0023616D01*
X0041829Y0023377D01*
X0047061Y0023377D01*
X0048115Y0024432D01*
X0048115Y0024436D01*
X0048688Y0024674D01*
X0048830Y0024815D01*
X0048830Y0022652D01*
X0049256Y0021623D01*
X0050044Y0020835D01*
X0050420Y0020458D01*
X0050420Y0018132D01*
X0051475Y0017078D01*
X0056706Y0017078D01*
X0056945Y0017317D01*
X0057184Y0017078D01*
X0062415Y0017078D01*
X0063469Y0018132D01*
X0063469Y0020458D01*
X0063846Y0020835D01*
X0064634Y0021623D01*
X0065060Y0022652D01*
X0065060Y0025050D01*
X0065072Y0025050D01*
X0065253Y0025231D01*
X0081077Y0025231D01*
X0082106Y0025658D01*
X0082893Y0026445D01*
X0089833Y0033385D01*
X0089800Y0033282D01*
X0089677Y0032509D01*
X0089677Y0032118D01*
X0094646Y0032118D01*
X0099614Y0032118D01*
X0099614Y0032509D01*
X0099492Y0033282D01*
X0099250Y0034025D01*
X0098895Y0034722D01*
X0098435Y0035355D01*
X0097882Y0035908D01*
X0097250Y0036368D01*
X0096553Y0036723D01*
X0095809Y0036964D01*
X0095037Y0037087D01*
X0094646Y0037087D01*
X0094646Y0032118D01*
X0094646Y0032118D01*
X0094646Y0037087D01*
X0094255Y0037087D01*
X0093482Y0036964D01*
X0093379Y0036931D01*
X0093837Y0037389D01*
X0095594Y0037389D01*
X0097347Y0038115D01*
X0098688Y0039456D01*
X0099414Y0041209D01*
X0099414Y0043106D01*
X0098688Y0044859D01*
X0097347Y0046200D01*
X0095594Y0046926D01*
X0093697Y0046926D01*
X0091945Y0046200D01*
X0090603Y0044859D01*
X0089877Y0043106D01*
X0089877Y0041349D01*
X0079360Y0030831D01*
X0073807Y0030831D01*
X0073807Y0032854D01*
X0069937Y0032854D01*
X0073807Y0031978D02*
X0080506Y0031978D01*
X0082505Y0033976D02*
X0073807Y0033976D01*
X0073807Y0038000D02*
X0073807Y0038563D01*
X0073807Y0040696D01*
X0073671Y0041205D01*
X0073407Y0041661D01*
X0073035Y0042033D01*
X0072579Y0042297D01*
X0072070Y0042433D01*
X0069937Y0042433D01*
X0067804Y0042433D01*
X0067295Y0042297D01*
X0066839Y0042033D01*
X0066467Y0041661D01*
X0066203Y0041205D01*
X0066067Y0040696D01*
X0066067Y0038563D01*
X0069937Y0038563D01*
X0069937Y0038563D01*
X0069937Y0042433D01*
X0069937Y0038563D01*
X0069937Y0038563D01*
X0073807Y0038563D01*
X0069937Y0038563D01*
X0069937Y0038563D01*
X0066067Y0038563D01*
X0066067Y0037679D01*
X0065927Y0037921D01*
X0065555Y0038293D01*
X0065099Y0038557D01*
X0064590Y0038693D01*
X0062260Y0038693D01*
X0062260Y0035512D01*
X0062260Y0035512D01*
X0062260Y0038693D01*
X0059930Y0038693D01*
X0059421Y0038557D01*
X0058965Y0038293D01*
X0058593Y0037921D01*
X0058329Y0037465D01*
X0058193Y0036956D01*
X0058193Y0035512D01*
X0062260Y0035512D01*
X0062260Y0035512D01*
X0058193Y0035512D01*
X0058193Y0035000D01*
X0057000Y0035000D01*
X0057000Y0039152D01*
X0057157Y0039061D01*
X0057666Y0038925D01*
X0059799Y0038925D01*
X0059799Y0042795D01*
X0059799Y0042795D01*
X0059799Y0038925D01*
X0061933Y0038925D01*
X0062441Y0039061D01*
X0062897Y0039325D01*
X0063270Y0039697D01*
X0063533Y0040153D01*
X0063669Y0040662D01*
X0063669Y0042795D01*
X0059799Y0042795D01*
X0059799Y0042795D01*
X0059799Y0046665D01*
X0057666Y0046665D01*
X0057157Y0046529D01*
X0056831Y0046341D01*
X0056706Y0046465D01*
X0052535Y0046465D01*
X0049000Y0050000D01*
X0019536Y0050000D01*
X0019683Y0050290D01*
X0019925Y0051033D01*
X0020047Y0051806D01*
X0020047Y0052197D01*
X0020047Y0052588D01*
X0019925Y0053360D01*
X0019683Y0054104D01*
X0019379Y0054702D01*
X0021418Y0056740D01*
X0022598Y0059591D01*
X0022598Y0059866D01*
X0024297Y0060570D01*
X0026548Y0062821D01*
X0027767Y0065762D01*
X0027767Y0077265D01*
X0084989Y0077265D01*
X0084989Y0065762D01*
X0086208Y0062821D01*
X0088459Y0060570D01*
X0090157Y0059866D01*
X0090157Y0059591D01*
X0091338Y0056740D01*
X0091805Y0056274D01*
X0091409Y0055987D01*
X0090856Y0055434D01*
X0090396Y0054801D01*
X0090041Y0054104D01*
X0089800Y0053360D01*
X0089677Y0052588D01*
X0089677Y0052197D01*
X0094646Y0052197D01*
X0099614Y0052197D01*
X0099614Y0052588D01*
X0099492Y0053360D01*
X0099483Y0053389D01*
X0102307Y0054559D01*
X0102706Y0054958D01*
X0102706Y0050000D01*
X0099103Y0050000D01*
X0099250Y0050290D01*
X0099492Y0051033D01*
X0099614Y0051806D01*
X0099614Y0052197D01*
X0094646Y0052197D01*
X0094646Y0052197D01*
X0094646Y0052197D01*
X0089677Y0052197D01*
X0089677Y0051806D01*
X0089800Y0051033D01*
X0090041Y0050290D01*
X0090189Y0050000D01*
X0090000Y0050000D01*
X0078000Y0038000D01*
X0073807Y0038000D01*
X0073807Y0039972D02*
X0079972Y0039972D01*
X0081933Y0037973D02*
X0086502Y0037973D01*
X0088500Y0039972D02*
X0083932Y0039972D01*
X0081970Y0041970D02*
X0073098Y0041970D01*
X0069937Y0041970D02*
X0069937Y0041970D01*
X0069937Y0039972D02*
X0069937Y0039972D01*
X0066776Y0041970D02*
X0063669Y0041970D01*
X0063669Y0042795D02*
X0063669Y0044929D01*
X0063533Y0045437D01*
X0063270Y0045893D01*
X0062897Y0046266D01*
X0062441Y0046529D01*
X0061933Y0046665D01*
X0059799Y0046665D01*
X0059799Y0042795D01*
X0059799Y0042795D01*
X0063669Y0042795D01*
X0063669Y0043969D02*
X0083969Y0043969D01*
X0085967Y0045967D02*
X0063196Y0045967D01*
X0059799Y0045967D02*
X0059799Y0045967D01*
X0059799Y0043969D02*
X0059799Y0043969D01*
X0059799Y0041970D02*
X0059799Y0041970D01*
X0059799Y0039972D02*
X0059799Y0039972D01*
X0058645Y0037973D02*
X0057000Y0037973D01*
X0057000Y0035975D02*
X0058193Y0035975D01*
X0062260Y0035975D02*
X0062260Y0035975D01*
X0062260Y0037973D02*
X0062260Y0037973D01*
X0063428Y0039972D02*
X0066067Y0039972D01*
X0066067Y0037973D02*
X0065875Y0037973D01*
X0066067Y0031978D02*
X0055697Y0031978D01*
X0055604Y0029979D02*
X0058414Y0029979D01*
X0058393Y0027981D02*
X0055497Y0027981D01*
X0055374Y0025982D02*
X0058516Y0025982D01*
X0062260Y0028031D02*
X0062260Y0023209D01*
X0059799Y0020748D01*
X0063469Y0019987D02*
X0085583Y0019987D01*
X0084989Y0017988D02*
X0063325Y0017988D01*
X0064784Y0021985D02*
X0086699Y0021985D01*
X0089035Y0023984D02*
X0065060Y0023984D01*
X0062260Y0028031D02*
X0080520Y0028031D01*
X0094646Y0042157D01*
X0090235Y0043969D02*
X0087929Y0043969D01*
X0089927Y0045967D02*
X0091712Y0045967D01*
X0087966Y0047966D02*
X0051034Y0047966D01*
X0048575Y0046465D02*
X0043798Y0046465D01*
X0043673Y0046341D01*
X0043347Y0046529D01*
X0042838Y0046665D01*
X0040705Y0046665D01*
X0040705Y0042795D01*
X0040705Y0042795D01*
X0040705Y0038925D01*
X0038571Y0038925D01*
X0038063Y0039061D01*
X0037607Y0039325D01*
X0037234Y0039697D01*
X0036971Y0040153D01*
X0036835Y0040662D01*
X0036835Y0042795D01*
X0040705Y0042795D01*
X0040705Y0042795D01*
X0040705Y0042795D01*
X0036835Y0042795D01*
X0036835Y0044929D01*
X0036971Y0045437D01*
X0037234Y0045893D01*
X0037607Y0046266D01*
X0038063Y0046529D01*
X0038571Y0046665D01*
X0040705Y0046665D01*
X0040705Y0042795D01*
X0040705Y0041970D02*
X0040705Y0041970D01*
X0040705Y0039972D02*
X0040705Y0039972D01*
X0037076Y0039972D02*
X0029772Y0039972D01*
X0031770Y0037973D02*
X0048298Y0037973D01*
X0047763Y0035975D02*
X0033769Y0035975D01*
X0035767Y0033976D02*
X0047763Y0033976D01*
X0047563Y0031978D02*
X0037766Y0031978D01*
X0033843Y0027981D02*
X0021011Y0027981D01*
X0021418Y0027574D02*
X0019379Y0029613D01*
X0019683Y0030211D01*
X0019925Y0030955D01*
X0020047Y0031727D01*
X0020047Y0032118D01*
X0015079Y0032118D01*
X0015079Y0032118D01*
X0020047Y0032118D01*
X0020047Y0032509D01*
X0019925Y0033282D01*
X0019683Y0034025D01*
X0019328Y0034722D01*
X0018868Y0035355D01*
X0018315Y0035908D01*
X0017683Y0036368D01*
X0016986Y0036723D01*
X0016242Y0036964D01*
X0015470Y0037087D01*
X0015079Y0037087D01*
X0015079Y0032118D01*
X0015079Y0032118D01*
X0010110Y0032118D01*
X0010110Y0031727D01*
X0010233Y0030955D01*
X0010474Y0030211D01*
X0010661Y0029844D01*
X0010449Y0029756D01*
X0010050Y0029357D01*
X0010050Y0047200D01*
X0047840Y0047200D01*
X0048575Y0046465D01*
X0049036Y0049964D02*
X0089964Y0049964D01*
X0089677Y0051963D02*
X0020047Y0051963D01*
X0020047Y0052197D02*
X0015079Y0052197D01*
X0020047Y0052197D01*
X0019730Y0053961D02*
X0089995Y0053961D01*
X0091382Y0055960D02*
X0020637Y0055960D01*
X0021922Y0057958D02*
X0090834Y0057958D01*
X0089939Y0059957D02*
X0022817Y0059957D01*
X0024297Y0060570D02*
X0024297Y0060570D01*
X0025682Y0061955D02*
X0087073Y0061955D01*
X0086208Y0062821D02*
X0086208Y0062821D01*
X0085739Y0063954D02*
X0027017Y0063954D01*
X0026548Y0062821D02*
X0026548Y0062821D01*
X0027767Y0065952D02*
X0084989Y0065952D01*
X0084989Y0067951D02*
X0027767Y0067951D01*
X0027767Y0069949D02*
X0084989Y0069949D01*
X0084989Y0071948D02*
X0027767Y0071948D01*
X0027767Y0073946D02*
X0084989Y0073946D01*
X0084989Y0075945D02*
X0027767Y0075945D01*
X0010050Y0054958D02*
X0010449Y0054559D01*
X0010661Y0054471D01*
X0010474Y0054104D01*
X0010233Y0053360D01*
X0010110Y0052588D01*
X0010110Y0052197D01*
X0015079Y0052197D01*
X0015079Y0052197D01*
X0015079Y0052197D01*
X0010110Y0052197D01*
X0010110Y0051806D01*
X0010233Y0051033D01*
X0010474Y0050290D01*
X0010622Y0050000D01*
X0010050Y0050000D01*
X0010050Y0054958D01*
X0010050Y0053961D02*
X0010428Y0053961D01*
X0010110Y0051963D02*
X0010050Y0051963D01*
X0010050Y0045967D02*
X0012145Y0045967D01*
X0010668Y0043969D02*
X0010050Y0043969D01*
X0010050Y0041970D02*
X0010310Y0041970D01*
X0010050Y0039972D02*
X0010823Y0039972D01*
X0010050Y0037973D02*
X0012720Y0037973D01*
X0013171Y0036723D02*
X0012475Y0036368D01*
X0011842Y0035908D01*
X0011289Y0035355D01*
X0010829Y0034722D01*
X0010474Y0034025D01*
X0010233Y0033282D01*
X0010110Y0032509D01*
X0010110Y0032118D01*
X0015079Y0032118D01*
X0015079Y0032118D01*
X0015079Y0037087D01*
X0014688Y0037087D01*
X0013915Y0036964D01*
X0013171Y0036723D01*
X0011934Y0035975D02*
X0010050Y0035975D01*
X0010050Y0033976D02*
X0010458Y0033976D01*
X0010110Y0031978D02*
X0010050Y0031978D01*
X0010050Y0029979D02*
X0010592Y0029979D01*
X0015079Y0033976D02*
X0015079Y0033976D01*
X0015079Y0035975D02*
X0015079Y0035975D01*
X0017438Y0037973D02*
X0023850Y0037973D01*
X0025849Y0035975D02*
X0018224Y0035975D01*
X0019699Y0033976D02*
X0027847Y0033976D01*
X0029846Y0031978D02*
X0020047Y0031978D01*
X0019565Y0029979D02*
X0031845Y0029979D01*
X0035066Y0025982D02*
X0022077Y0025982D01*
X0022598Y0024724D02*
X0021418Y0027574D01*
X0022598Y0024724D02*
X0022598Y0024449D01*
X0024297Y0023745D01*
X0026548Y0021494D01*
X0026548Y0021494D01*
X0027767Y0018552D01*
X0027767Y0017988D02*
X0035066Y0017988D01*
X0035066Y0019987D02*
X0027172Y0019987D01*
X0026057Y0021985D02*
X0035262Y0021985D01*
X0035514Y0023984D02*
X0023721Y0023984D01*
X0027767Y0015990D02*
X0035634Y0015990D01*
X0038736Y0019173D02*
X0038736Y0027047D01*
X0023626Y0042157D01*
X0015079Y0042157D01*
X0018013Y0045967D02*
X0037308Y0045967D01*
X0036835Y0043969D02*
X0025775Y0043969D01*
X0027773Y0041970D02*
X0036835Y0041970D01*
X0040705Y0043969D02*
X0040705Y0043969D01*
X0040705Y0045967D02*
X0040705Y0045967D01*
X0046413Y0042795D02*
X0049169Y0042795D01*
X0051630Y0040335D01*
X0054091Y0042795D01*
X0051630Y0040335D02*
X0051630Y0035512D01*
X0051630Y0028031D02*
X0048087Y0028031D01*
X0047102Y0027047D01*
X0044445Y0027047D01*
X0047667Y0023984D02*
X0048830Y0023984D01*
X0049106Y0021985D02*
X0048081Y0021985D01*
X0048315Y0019987D02*
X0050420Y0019987D01*
X0050565Y0017988D02*
X0048315Y0017988D01*
X0047830Y0015990D02*
X0084989Y0015990D01*
X0084989Y0013991D02*
X0027767Y0013991D01*
X0027767Y0011993D02*
X0084989Y0011993D01*
X0084989Y0009994D02*
X0027767Y0009994D01*
X0027767Y0007996D02*
X0084989Y0007996D01*
X0082430Y0025982D02*
X0090679Y0025982D01*
X0091744Y0027981D02*
X0084429Y0027981D01*
X0086427Y0029979D02*
X0090159Y0029979D01*
X0089677Y0031978D02*
X0088426Y0031978D01*
X0084503Y0035975D02*
X0079934Y0035975D01*
X0085930Y0041970D02*
X0089877Y0041970D01*
X0094646Y0035975D02*
X0094646Y0035975D01*
X0094646Y0033976D02*
X0094646Y0033976D01*
X0094646Y0032118D02*
X0094646Y0032118D01*
X0097790Y0035975D02*
X0102706Y0035975D01*
X0102706Y0033976D02*
X0099266Y0033976D01*
X0099614Y0031978D02*
X0102706Y0031978D01*
X0102706Y0029979D02*
X0101769Y0029979D01*
X0102706Y0037973D02*
X0097005Y0037973D01*
X0098902Y0039972D02*
X0102706Y0039972D01*
X0102706Y0041970D02*
X0099414Y0041970D01*
X0099057Y0043969D02*
X0102706Y0043969D01*
X0102706Y0045967D02*
X0097580Y0045967D01*
X0099614Y0051963D02*
X0102706Y0051963D01*
X0102706Y0053961D02*
X0100864Y0053961D01*
X0054091Y0020748D02*
X0051630Y0023209D01*
X0051630Y0028031D01*
X0044445Y0021985D02*
X0044445Y0021985D01*
X0044445Y0019987D02*
X0044445Y0019987D01*
X0044445Y0017988D02*
X0044445Y0017988D01*
X0044445Y0015990D02*
X0044445Y0015990D01*
M02*
